{"glyphs":{"0":{"ha":690,"x_min":0,"x_max":0,"o":"m 344 -14 b 625 292 519 -14 625 83 l 625 693 b 346 1001 625 896 518 1001 b 65 693 174 1001 65 894 l 65 292 b 344 -14 65 82 171 -14 z m 346 108 b 200 300 243 108 200 174 l 200 688 b 344 883 200 813 243 883 b 490 688 446 883 490 815 l 490 300 b 346 108 490 174 446 108 z "},"1":{"ha":483,"x_min":0,"x_max":0,"o":"m 449 0 l 449 126 l 308 126 l 308 990 l 207 990 b 74 851 190 892 160 860 l 74 753 l 182 753 l 182 126 l 40 126 l 40 0 z "},"2":{"ha":643,"x_min":0,"x_max":0,"o":"m 590 0 l 590 126 l 204 126 b 392 404 204 251 297 326 b 589 717 489 485 589 567 l 589 751 b 329 1001 589 911 500 1001 b 63 763 163 1001 63 918 l 63 622 l 196 622 l 196 758 b 326 883 196 839 240 883 b 454 747 421 883 454 838 l 454 713 b 279 478 454 614 371 551 b 56 107 172 392 56 292 l 56 0 z "},"3":{"ha":646,"x_min":0,"x_max":0,"o":"m 317 -12 b 594 243 521 -12 594 97 l 594 307 b 456 508 594 411 556 482 b 581 711 551 539 581 617 l 581 768 b 319 1001 581 913 501 1001 b 56 765 150 1001 56 908 l 56 656 l 188 656 l 188 760 b 318 883 188 836 226 883 b 446 756 413 883 446 839 l 446 699 b 313 563 446 615 404 563 l 242 563 l 242 451 l 313 451 b 457 319 411 451 457 407 l 457 254 b 317 110 457 157 417 110 b 179 238 222 110 179 151 l 179 357 l 46 357 l 46 229 b 317 -12 46 69 129 -12 z "},"4":{"ha":656,"x_min":0,"x_max":0,"o":"m 625 219 l 625 335 l 508 335 l 508 990 l 393 990 l 32 317 l 32 219 l 386 219 l 386 0 l 508 0 l 508 219 z m 364 714 l 408 849 l 386 699 l 386 335 l 167 335 z "},"5":{"ha":650,"x_min":0,"x_max":0,"o":"m 326 -14 b 593 260 501 -14 593 81 l 593 446 b 382 692 593 594 525 694 b 193 579 278 694 226 640 b 222 867 200 650 214 783 l 440 867 b 575 985 551 867 575 878 l 575 990 l 111 990 l 61 490 l 190 454 b 201 482 192 456 201 482 b 336 572 226 533 265 572 b 458 439 414 572 458 526 l 458 272 b 328 107 458 167 428 107 b 194 264 225 107 194 150 l 194 338 l 57 338 l 57 251 b 326 -14 57 58 153 -14 z "},"6":{"ha":674,"x_min":0,"x_max":0,"o":"m 622 292 l 622 346 b 390 611 622 526 529 611 b 194 486 286 611 225 556 l 194 688 b 347 883 194 813 239 883 b 478 733 438 883 478 831 l 478 711 l 613 711 l 613 742 b 351 1001 613 908 519 1001 b 65 693 158 1001 65 894 l 65 292 b 339 -14 65 82 165 -14 b 622 292 514 -14 622 83 z m 340 108 b 194 300 238 108 194 174 l 194 347 b 342 493 199 432 251 493 b 489 340 449 493 489 425 l 489 300 b 340 108 489 174 440 108 z "},"7":{"ha":575,"x_min":0,"x_max":0,"o":"m 264 0 b 543 881 314 347 396 599 l 543 990 l 35 990 l 35 863 l 406 863 b 118 0 271 610 186 363 z "},"8":{"ha":658,"x_min":0,"x_max":0,"o":"m 329 -14 b 604 225 507 -14 604 85 l 604 328 b 486 519 604 419 558 488 b 592 700 553 550 592 614 l 592 767 b 331 1001 592 904 497 1001 b 72 767 164 1001 72 903 l 72 700 b 174 518 72 611 107 547 b 56 328 101 486 56 415 l 56 225 b 329 -14 56 83 149 -14 z m 340 574 l 319 574 b 201 703 238 574 201 640 l 201 750 b 332 883 201 835 246 883 b 461 751 418 883 461 835 l 461 704 b 340 574 461 639 422 574 z m 329 108 b 190 239 239 108 190 165 l 190 328 b 318 460 190 390 236 460 l 339 460 b 471 328 424 460 471 394 l 471 239 b 329 108 471 161 419 108 z "},"9":{"ha":674,"x_min":0,"x_max":0,"o":"m 333 504 b 189 661 232 504 189 564 l 189 703 b 333 883 189 817 233 883 b 479 686 440 883 479 813 l 479 657 b 333 504 475 572 424 504 z m 325 -14 b 608 293 517 -14 608 92 l 608 694 b 333 1001 608 904 508 1001 b 54 710 156 1001 54 901 l 54 654 b 285 392 54 478 136 392 b 479 517 392 392 450 447 l 479 299 b 336 107 479 174 444 107 b 199 251 238 107 199 157 l 199 317 l 63 317 l 63 243 b 325 -14 63 76 156 -14 z "}," ":{"ha":297,"x_min":0,"x_max":0,"o":""}," ":{"ha":297,"x_min":0,"x_max":0,"o":""},"A":{"ha":653,"x_min":0,"x_max":0,"o":"m 311 729 l 324 874 l 336 729 l 429 307 l 222 307 z m 497 0 l 629 0 l 389 990 l 257 990 l 25 0 l 157 0 l 196 185 l 457 185 z "},"B":{"ha":661,"x_min":0,"x_max":0,"o":"m 360 0 b 608 235 544 0 608 90 l 608 328 b 476 507 608 419 568 481 b 594 699 558 536 594 596 l 594 776 b 336 990 594 907 531 990 l 85 990 l 85 0 z m 333 879 b 465 764 424 879 465 842 l 465 701 b 328 563 465 603 431 563 l 214 563 l 214 879 z m 331 449 b 474 319 433 449 474 407 l 474 243 b 342 117 474 147 439 117 l 214 117 l 214 449 z "},"C":{"ha":667,"x_min":0,"x_max":0,"o":"m 338 -14 b 613 290 513 -14 613 82 l 613 397 l 474 397 l 474 299 b 339 108 474 172 439 108 b 200 299 236 108 200 172 l 200 692 b 338 885 200 817 236 885 b 474 692 447 885 474 832 l 474 619 l 613 619 l 613 697 b 339 1003 613 908 532 1003 b 65 697 167 1003 65 899 l 65 290 b 338 -14 65 81 164 -14 z "},"D":{"ha":683,"x_min":0,"x_max":0,"o":"m 85 0 l 318 0 b 618 301 493 0 618 93 l 618 689 b 318 990 618 900 489 990 l 85 990 z m 311 878 b 483 681 415 878 483 817 l 483 313 b 314 117 483 178 417 117 l 215 117 l 215 878 z "},"E":{"ha":588,"x_min":0,"x_max":0,"o":"m 543 122 l 214 122 l 214 443 l 488 443 l 488 564 l 214 564 l 214 872 l 529 872 l 529 990 l 85 990 l 85 0 l 543 0 z "},"F":{"ha":549,"x_min":0,"x_max":0,"o":"m 489 422 l 489 543 l 211 543 l 211 871 l 506 871 l 506 990 l 85 990 l 85 0 l 211 0 l 211 422 z "},"G":{"ha":692,"x_min":0,"x_max":0,"o":"m 535 0 l 618 0 l 618 511 l 336 511 l 336 394 l 486 394 l 486 285 b 347 108 486 192 447 108 b 199 301 244 108 199 167 l 199 689 b 350 886 199 819 246 886 b 482 749 447 886 482 826 l 482 640 l 618 640 l 618 751 b 353 1003 618 910 522 1003 b 65 696 172 1003 65 900 l 65 292 b 310 -14 65 88 151 -14 b 514 163 425 -14 492 44 z "},"H":{"ha":697,"x_min":0,"x_max":0,"o":"m 483 0 l 614 0 l 614 990 l 483 990 l 483 558 l 215 558 l 215 990 l 85 990 l 85 0 l 215 0 l 215 433 l 483 433 z "},"I":{"ha":474,"x_min":0,"x_max":0,"o":"m 425 0 l 425 122 l 300 122 l 300 872 l 425 872 l 425 990 l 49 990 l 49 872 l 174 872 l 174 122 l 49 122 l 49 0 z "},"J":{"ha":603,"x_min":0,"x_max":0,"o":"m 285 -14 b 526 254 443 -14 526 68 l 526 990 l 392 990 l 392 261 b 285 110 392 153 363 110 b 181 239 208 110 181 161 l 181 367 l 46 367 l 46 231 b 285 -14 46 67 131 -14 z "},"K":{"ha":681,"x_min":0,"x_max":0,"o":"m 213 381 l 314 542 l 326 497 l 510 0 l 653 0 l 410 631 l 633 990 l 485 990 l 211 536 l 213 560 l 213 990 l 85 990 l 85 0 l 213 0 z "},"L":{"ha":553,"x_min":0,"x_max":0,"o":"m 514 0 l 514 125 l 215 125 l 215 990 l 85 990 l 85 0 z "},"M":{"ha":806,"x_min":0,"x_max":0,"o":"m 207 618 l 171 849 l 222 683 l 383 325 l 424 325 l 575 675 l 631 850 l 599 619 l 599 0 l 721 0 l 721 990 l 601 990 l 404 518 l 206 990 l 85 990 l 85 0 l 207 0 z "},"N":{"ha":725,"x_min":0,"x_max":0,"o":"m 204 624 l 182 839 l 240 640 l 528 0 l 640 0 l 640 990 l 519 990 l 519 368 l 540 188 l 481 357 l 199 990 l 85 990 l 85 0 l 204 0 z "},"O":{"ha":690,"x_min":0,"x_max":0,"o":"m 344 -14 b 625 292 519 -14 625 83 l 625 693 b 346 1001 625 896 518 1001 b 65 693 174 1001 65 894 l 65 292 b 344 -14 65 82 171 -14 z m 346 108 b 200 300 243 108 200 174 l 200 688 b 344 883 200 813 243 883 b 490 688 446 883 490 815 l 490 300 b 346 108 490 174 446 108 z "},"P":{"ha":642,"x_min":0,"x_max":0,"o":"m 332 318 b 597 576 517 318 597 415 l 597 739 b 328 990 597 919 513 990 l 85 990 l 85 0 l 213 0 l 213 318 z m 325 875 b 468 738 422 875 468 840 l 468 578 b 326 433 468 482 422 433 l 213 433 l 213 875 z "},"Q":{"ha":690,"x_min":0,"x_max":0,"o":"m 628 -133 l 521 35 b 625 292 588 83 625 168 l 625 693 b 346 1001 625 896 518 1001 b 65 693 174 1001 65 894 l 65 292 b 344 -14 65 82 171 -14 b 399 -11 363 -14 381 -12 l 463 -133 z m 346 108 b 200 300 243 108 200 174 l 200 688 b 344 883 200 813 243 883 b 490 688 446 883 490 815 l 490 300 b 346 108 490 174 446 108 z "},"R":{"ha":665,"x_min":0,"x_max":0,"o":"m 331 876 b 468 750 428 876 468 836 l 468 657 b 333 515 468 564 429 515 l 214 515 l 214 876 z m 331 400 b 454 272 428 400 454 358 l 454 61 b 471 0 454 35 460 11 l 615 0 b 589 58 599 14 589 31 l 589 276 b 481 461 589 382 557 438 b 600 650 558 490 600 550 l 600 761 b 336 990 600 908 524 990 l 85 990 l 85 0 l 214 0 l 214 400 z "},"S":{"ha":625,"x_min":0,"x_max":0,"o":"m 321 -12 b 576 235 483 -12 576 89 l 576 286 b 367 550 576 443 468 500 b 190 733 276 594 190 635 l 190 756 b 310 889 190 831 224 889 b 432 763 396 889 432 844 l 432 663 l 563 663 l 563 771 b 311 1001 563 904 490 1001 b 60 758 136 1001 60 893 l 60 726 b 269 461 60 567 168 511 b 447 276 361 417 447 378 l 447 236 b 321 106 447 163 411 106 b 183 247 219 106 183 160 l 183 369 l 47 369 l 47 244 b 321 -12 47 79 117 -12 z "},"T":{"ha":547,"x_min":0,"x_max":0,"o":"m 518 869 l 518 990 l 29 990 l 29 869 l 208 869 l 208 0 l 339 0 l 339 869 z "},"U":{"ha":676,"x_min":0,"x_max":0,"o":"m 339 -14 b 599 283 508 -14 599 79 l 599 990 l 464 990 l 464 290 b 339 114 464 165 428 114 b 213 290 250 114 213 167 l 213 990 l 78 990 l 78 283 b 339 -14 78 79 163 -14 z "},"V":{"ha":651,"x_min":0,"x_max":0,"o":"m 393 0 l 628 990 l 493 990 l 339 271 l 328 131 l 315 271 l 158 990 l 24 990 l 261 0 z "},"W":{"ha":946,"x_min":0,"x_max":0,"o":"m 457 678 l 469 842 l 482 679 l 617 0 l 735 0 l 914 990 l 789 990 l 681 347 l 668 125 l 650 326 l 515 990 l 425 990 l 282 326 l 263 135 l 257 347 l 163 990 l 35 990 l 192 0 l 310 0 z "},"X":{"ha":635,"x_min":0,"x_max":0,"o":"m 310 372 l 318 414 l 328 372 l 474 0 l 618 0 l 389 519 l 596 990 l 454 990 l 326 657 l 318 614 l 308 658 l 183 990 l 43 990 l 243 519 l 17 0 l 165 0 z "},"Y":{"ha":593,"x_min":0,"x_max":0,"o":"m 360 0 l 360 361 l 586 990 l 447 990 l 313 569 l 294 475 l 278 569 l 147 990 l 8 990 l 225 361 l 225 0 z "},"Z":{"ha":597,"x_min":0,"x_max":0,"o":"m 547 0 l 547 126 l 197 126 l 544 872 l 544 990 l 76 990 l 76 868 l 404 868 l 47 113 l 47 0 z "},"Á":{"ha":653,"x_min":0,"x_max":0,"o":"m 311 729 l 324 874 l 336 729 l 429 307 l 222 307 z m 497 0 l 629 0 l 389 990 l 257 990 l 25 0 l 157 0 l 196 185 l 457 185 z m 268 1074 l 368 1074 l 547 1292 l 408 1292 z "},"Ă":{"ha":653,"x_min":0,"x_max":0,"o":"m 311 729 l 324 874 l 336 729 l 429 307 l 222 307 z m 497 0 l 629 0 l 389 990 l 257 990 l 25 0 l 157 0 l 196 185 l 457 185 z m 325 1072 b 525 1293 464 1072 525 1150 l 428 1293 b 326 1163 428 1203 397 1164 b 225 1293 254 1164 225 1203 l 129 1293 b 325 1072 129 1149 175 1072 z "},"Â":{"ha":653,"x_min":0,"x_max":0,"o":"m 311 729 l 324 874 l 336 729 l 429 307 l 222 307 z m 497 0 l 629 0 l 389 990 l 257 990 l 25 0 l 157 0 l 196 185 l 457 185 z m 399 1068 l 511 1068 l 364 1286 l 274 1286 l 128 1068 l 239 1068 l 319 1194 z "},"Ä":{"ha":653,"x_min":0,"x_max":0,"o":"m 311 729 l 324 874 l 336 729 l 429 307 l 222 307 z m 497 0 l 629 0 l 389 990 l 257 990 l 25 0 l 157 0 l 196 185 l 457 185 z m 218 1064 b 292 1146 269 1064 292 1088 b 218 1226 292 1206 268 1226 b 146 1146 169 1226 146 1206 b 218 1064 146 1083 165 1064 z m 422 1064 b 494 1146 471 1064 494 1088 b 422 1226 494 1206 471 1226 b 349 1146 372 1226 349 1206 b 422 1064 349 1083 368 1064 z "},"À":{"ha":653,"x_min":0,"x_max":0,"o":"m 311 729 l 324 874 l 336 729 l 429 307 l 222 307 z m 497 0 l 629 0 l 389 990 l 257 990 l 25 0 l 157 0 l 196 185 l 457 185 z m 271 1074 l 369 1074 l 243 1292 l 106 1292 z "},"Ā":{"ha":653,"x_min":0,"x_max":0,"o":"m 311 729 l 324 874 l 336 729 l 429 307 l 222 307 z m 497 0 l 629 0 l 389 990 l 257 990 l 25 0 l 157 0 l 196 185 l 457 185 z m 158 1082 l 479 1082 l 479 1182 l 158 1182 z "},"Ʌ":{"ha":653,"x_min":0,"x_max":0,"o":"m 311 729 l 324 874 l 336 729 l 497 0 l 629 0 l 389 990 l 257 990 l 25 0 l 157 0 z "},"Ą":{"ha":653,"x_min":0,"x_max":0,"o":"m 311 729 l 324 874 l 336 729 l 429 307 l 222 307 z m 736 -132 l 621 -132 b 556 -186 613 -165 589 -186 b 496 -137 518 -186 496 -169 b 625 0 496 -97 524 -71 l 629 0 l 389 990 l 257 990 l 25 0 l 157 0 l 196 185 l 457 185 l 494 11 b 392 -146 414 -44 392 -94 b 549 -271 392 -229 450 -271 b 736 -132 646 -271 708 -228 z "},"Å":{"ha":653,"x_min":0,"x_max":0,"o":"m 311 729 l 324 874 l 336 729 l 429 307 l 222 307 z m 497 0 l 629 0 l 389 990 l 257 990 l 25 0 l 157 0 l 196 185 l 457 185 z m 318 1054 b 469 1200 408 1054 469 1107 b 318 1346 469 1293 410 1346 b 169 1200 231 1346 169 1289 b 318 1054 169 1104 229 1054 z m 318 1142 b 261 1200 282 1142 261 1164 b 318 1261 261 1238 285 1261 b 378 1200 354 1261 378 1238 b 318 1142 378 1161 347 1142 z "},"Ǻ":{"ha":653,"x_min":0,"x_max":0,"o":"m 269 1251 l 369 1251 l 549 1469 l 410 1469 z m 318 990 b 261 1049 282 990 261 1013 b 318 1110 261 1086 285 1110 b 378 1049 354 1110 378 1086 b 318 990 378 1010 347 990 z m 311 729 l 324 874 l 336 729 l 429 307 l 222 307 z m 196 185 l 457 185 l 497 0 l 629 0 l 406 924 b 469 1049 446 947 469 990 b 318 1194 469 1142 410 1194 b 169 1049 231 1194 169 1138 b 240 919 169 985 196 942 l 25 0 l 157 0 z "},"Ã":{"ha":653,"x_min":0,"x_max":0,"o":"m 311 729 l 324 874 l 336 729 l 429 307 l 222 307 z m 497 0 l 629 0 l 389 990 l 257 990 l 25 0 l 157 0 l 196 185 l 457 185 z m 106 1071 l 196 1071 b 232 1147 196 1128 207 1147 b 404 1065 282 1147 315 1065 b 531 1239 500 1065 531 1132 l 442 1239 b 401 1163 442 1176 431 1163 b 231 1244 356 1163 317 1244 b 106 1071 139 1244 107 1181 z "},"Æ":{"ha":946,"x_min":0,"x_max":0,"o":"m 378 708 l 406 863 l 404 708 l 451 301 l 244 301 z m 486 0 l 900 0 l 900 122 l 593 122 l 556 443 l 843 443 l 843 564 l 542 564 l 506 872 l 886 872 l 886 990 l 350 990 l 10 0 l 146 0 l 208 189 l 464 189 z "},"Ǽ":{"ha":946,"x_min":0,"x_max":0,"o":"m 378 708 l 406 863 l 404 708 l 451 301 l 244 301 z m 486 0 l 900 0 l 900 122 l 593 122 l 556 443 l 843 443 l 843 564 l 542 564 l 506 872 l 886 872 l 886 990 l 350 990 l 10 0 l 146 0 l 208 189 l 464 189 z m 386 1074 l 486 1074 l 665 1292 l 526 1292 z "},"Ć":{"ha":667,"x_min":0,"x_max":0,"o":"m 338 -14 b 613 290 513 -14 613 82 l 613 397 l 474 397 l 474 299 b 339 108 474 172 439 108 b 200 299 236 108 200 172 l 200 692 b 338 885 200 817 236 885 b 474 692 447 885 474 832 l 474 619 l 613 619 l 613 697 b 339 1003 613 908 532 1003 b 65 697 167 1003 65 899 l 65 290 b 338 -14 65 81 164 -14 z m 297 1089 l 397 1089 l 576 1307 l 438 1307 z "},"Č":{"ha":667,"x_min":0,"x_max":0,"o":"m 338 -14 b 613 290 513 -14 613 82 l 613 397 l 474 397 l 474 299 b 339 108 474 172 439 108 b 200 299 236 108 200 172 l 200 692 b 338 885 200 817 236 885 b 474 692 447 885 474 832 l 474 619 l 613 619 l 613 697 b 339 1003 613 908 532 1003 b 65 697 167 1003 65 899 l 65 290 b 338 -14 65 81 164 -14 z m 390 1089 l 535 1307 l 425 1307 l 346 1185 l 267 1307 l 154 1307 l 300 1089 z "},"Ç":{"ha":667,"x_min":0,"x_max":0,"o":"m 356 -339 b 533 -199 467 -339 533 -290 b 390 -79 533 -126 483 -82 l 390 -11 b 613 290 532 7 613 104 l 613 397 l 474 397 l 474 299 b 339 108 474 172 439 108 b 200 299 236 108 200 172 l 200 692 b 338 885 200 817 236 885 b 474 692 447 885 474 832 l 474 619 l 613 619 l 613 697 b 339 1003 613 908 532 1003 b 65 697 167 1003 65 899 l 65 290 b 296 -12 65 99 149 3 l 296 -153 l 351 -153 b 431 -201 408 -153 431 -172 b 356 -257 431 -237 406 -257 b 274 -194 307 -257 278 -235 l 161 -194 b 356 -339 175 -286 224 -339 z "},"Ĉ":{"ha":667,"x_min":0,"x_max":0,"o":"m 338 -14 b 613 290 513 -14 613 82 l 613 397 l 474 397 l 474 299 b 339 108 474 172 439 108 b 200 299 236 108 200 172 l 200 692 b 338 885 200 817 236 885 b 474 692 447 885 474 832 l 474 619 l 613 619 l 613 697 b 339 1003 613 908 532 1003 b 65 697 167 1003 65 899 l 65 290 b 338 -14 65 81 164 -14 z m 428 1089 l 540 1089 l 393 1307 l 303 1307 l 157 1089 l 268 1089 l 349 1215 z "},"Ċ":{"ha":667,"x_min":0,"x_max":0,"o":"m 338 -14 b 613 290 513 -14 613 82 l 613 397 l 474 397 l 474 299 b 339 108 474 172 439 108 b 200 299 236 108 200 172 l 200 692 b 338 885 200 817 236 885 b 474 692 447 885 474 832 l 474 619 l 613 619 l 613 697 b 339 1003 613 908 532 1003 b 65 697 167 1003 65 899 l 65 290 b 338 -14 65 81 164 -14 z m 347 1088 b 428 1178 401 1088 428 1113 b 347 1268 428 1244 400 1268 b 264 1178 292 1268 264 1244 b 347 1088 264 1110 286 1088 z "},"Ď":{"ha":683,"x_min":0,"x_max":0,"o":"m 85 0 l 318 0 b 618 301 493 0 618 93 l 618 689 b 318 990 618 900 489 990 l 85 990 z m 311 878 b 483 681 415 878 483 817 l 483 313 b 314 117 483 178 417 117 l 215 117 l 215 878 z m 388 1074 l 532 1292 l 422 1292 l 343 1169 l 264 1292 l 151 1292 l 297 1074 z "},"Đ":{"ha":689,"x_min":0,"x_max":0,"o":"m 331 0 b 628 301 506 0 628 93 l 628 689 b 331 990 628 900 501 990 l 97 990 l 97 553 l 10 553 l 10 432 l 97 432 l 97 0 z m 360 432 l 360 553 l 226 553 l 226 878 l 324 878 b 496 681 428 878 496 817 l 496 313 b 326 117 496 178 429 117 l 226 117 l 226 432 z "},"Ð":{"ha":689,"x_min":0,"x_max":0,"o":"m 331 0 b 628 301 506 0 628 93 l 628 689 b 331 990 628 900 501 990 l 97 990 l 97 553 l 10 553 l 10 432 l 97 432 l 97 0 z m 360 432 l 360 553 l 226 553 l 226 878 l 324 878 b 496 681 428 878 496 817 l 496 313 b 326 117 496 178 429 117 l 226 117 l 226 432 z "},"É":{"ha":588,"x_min":0,"x_max":0,"o":"m 543 122 l 214 122 l 214 443 l 488 443 l 488 564 l 214 564 l 214 872 l 529 872 l 529 990 l 85 990 l 85 0 l 543 0 z m 253 1074 l 353 1074 l 532 1292 l 393 1292 z "},"Ĕ":{"ha":588,"x_min":0,"x_max":0,"o":"m 543 122 l 214 122 l 214 443 l 488 443 l 488 564 l 214 564 l 214 872 l 529 872 l 529 990 l 85 990 l 85 0 l 543 0 z m 310 1072 b 510 1293 449 1072 510 1150 l 413 1293 b 311 1163 413 1203 382 1164 b 210 1293 239 1164 210 1203 l 114 1293 b 310 1072 114 1149 160 1072 z "},"Ě":{"ha":588,"x_min":0,"x_max":0,"o":"m 543 122 l 214 122 l 214 443 l 488 443 l 488 564 l 214 564 l 214 872 l 529 872 l 529 990 l 85 990 l 85 0 l 543 0 z m 350 1074 l 494 1292 l 385 1292 l 306 1169 l 226 1292 l 114 1292 l 260 1074 z "},"Ê":{"ha":588,"x_min":0,"x_max":0,"o":"m 543 122 l 214 122 l 214 443 l 488 443 l 488 564 l 214 564 l 214 872 l 529 872 l 529 990 l 85 990 l 85 0 l 543 0 z m 388 1074 l 500 1074 l 353 1292 l 263 1292 l 117 1074 l 228 1074 l 308 1200 z "},"Ë":{"ha":588,"x_min":0,"x_max":0,"o":"m 543 122 l 214 122 l 214 443 l 488 443 l 488 564 l 214 564 l 214 872 l 529 872 l 529 990 l 85 990 l 85 0 l 543 0 z m 210 1071 b 283 1153 261 1071 283 1094 b 210 1233 283 1213 260 1233 b 138 1153 161 1233 138 1213 b 210 1071 138 1090 157 1071 z m 414 1071 b 486 1153 463 1071 486 1094 b 414 1233 486 1213 463 1233 b 340 1153 364 1233 340 1213 b 414 1071 340 1090 360 1071 z "},"Ė":{"ha":588,"x_min":0,"x_max":0,"o":"m 543 122 l 214 122 l 214 443 l 488 443 l 488 564 l 214 564 l 214 872 l 529 872 l 529 990 l 85 990 l 85 0 l 543 0 z m 307 1072 b 388 1163 361 1072 388 1097 b 307 1253 388 1229 360 1253 b 224 1163 251 1253 224 1229 b 307 1072 224 1094 246 1072 z "},"È":{"ha":588,"x_min":0,"x_max":0,"o":"m 543 122 l 214 122 l 214 443 l 488 443 l 488 564 l 214 564 l 214 872 l 529 872 l 529 990 l 85 990 l 85 0 l 543 0 z m 267 1074 l 365 1074 l 239 1292 l 101 1292 z "},"Ē":{"ha":588,"x_min":0,"x_max":0,"o":"m 543 122 l 214 122 l 214 443 l 488 443 l 488 564 l 214 564 l 214 872 l 529 872 l 529 990 l 85 990 l 85 0 l 543 0 z m 153 1099 l 474 1099 l 474 1199 l 153 1199 z "},"Ę":{"ha":588,"x_min":0,"x_max":0,"o":"m 654 -132 l 539 -132 b 474 -186 531 -165 507 -186 b 414 -137 436 -186 414 -169 b 543 0 414 -97 442 -71 l 543 122 l 214 122 l 214 443 l 488 443 l 488 564 l 214 564 l 214 872 l 529 872 l 529 990 l 85 990 l 85 0 l 397 0 b 310 -146 329 -51 310 -97 b 467 -271 310 -229 368 -271 b 654 -132 564 -271 626 -228 z "},"Ğ":{"ha":692,"x_min":0,"x_max":0,"o":"m 535 0 l 618 0 l 618 511 l 336 511 l 336 394 l 486 394 l 486 285 b 347 108 486 192 447 108 b 199 301 244 108 199 167 l 199 689 b 350 886 199 819 246 886 b 482 749 447 886 482 826 l 482 640 l 618 640 l 618 751 b 353 1003 618 910 522 1003 b 65 696 172 1003 65 900 l 65 292 b 310 -14 65 88 151 -14 b 514 163 425 -14 492 44 z m 349 1088 b 549 1308 488 1088 549 1165 l 451 1308 b 350 1178 451 1218 421 1179 b 249 1308 278 1179 249 1218 l 153 1308 b 349 1088 153 1164 199 1088 z "},"Ĝ":{"ha":692,"x_min":0,"x_max":0,"o":"m 535 0 l 618 0 l 618 511 l 336 511 l 336 394 l 486 394 l 486 285 b 347 108 486 192 447 108 b 199 301 244 108 199 167 l 199 689 b 350 886 199 819 246 886 b 482 749 447 886 482 826 l 482 640 l 618 640 l 618 751 b 353 1003 618 910 522 1003 b 65 696 172 1003 65 900 l 65 292 b 310 -14 65 88 151 -14 b 514 163 425 -14 492 44 z m 429 1089 l 542 1089 l 394 1307 l 304 1307 l 158 1089 l 269 1089 l 350 1215 z "},"Ģ":{"ha":692,"x_min":0,"x_max":0,"o":"m 535 0 l 618 0 l 618 511 l 336 511 l 336 394 l 486 394 l 486 285 b 347 108 486 192 447 108 b 199 301 244 108 199 167 l 199 689 b 350 886 199 819 246 886 b 482 749 447 886 482 826 l 482 640 l 618 640 l 618 751 b 353 1003 618 910 522 1003 b 65 696 172 1003 65 900 l 65 292 b 310 -14 65 88 151 -14 b 514 163 425 -14 492 44 z m 290 -379 b 431 -187 388 -365 431 -290 b 353 -78 431 -107 411 -78 b 276 -158 300 -78 276 -99 b 339 -231 276 -219 296 -231 b 353 -229 344 -231 349 -231 b 290 -310 349 -275 329 -303 z "},"Ġ":{"ha":692,"x_min":0,"x_max":0,"o":"m 535 0 l 618 0 l 618 511 l 336 511 l 336 394 l 486 394 l 486 285 b 347 108 486 192 447 108 b 199 301 244 108 199 167 l 199 689 b 350 886 199 819 246 886 b 482 749 447 886 482 826 l 482 640 l 618 640 l 618 751 b 353 1003 618 910 522 1003 b 65 696 172 1003 65 900 l 65 292 b 310 -14 65 88 151 -14 b 514 163 425 -14 492 44 z m 351 1088 b 432 1178 406 1088 432 1113 b 351 1268 432 1244 404 1268 b 268 1178 296 1268 268 1244 b 351 1088 268 1110 290 1088 z "},"Ħ":{"ha":724,"x_min":0,"x_max":0,"o":"m 497 521 l 228 521 l 228 688 l 497 688 z m 497 0 l 626 0 l 626 688 l 714 688 l 714 800 l 626 800 l 626 990 l 497 990 l 497 800 l 228 800 l 228 990 l 97 990 l 97 800 l 11 800 l 11 688 l 97 688 l 97 0 l 228 0 l 228 406 l 497 406 z "},"Ĥ":{"ha":697,"x_min":0,"x_max":0,"o":"m 483 0 l 614 0 l 614 990 l 483 990 l 483 558 l 215 558 l 215 990 l 85 990 l 85 0 l 215 0 l 215 433 l 483 433 z m 426 1063 l 539 1063 l 392 1281 l 301 1281 l 156 1063 l 267 1063 l 347 1189 z "},"Í":{"ha":474,"x_min":0,"x_max":0,"o":"m 425 0 l 425 122 l 300 122 l 300 872 l 425 872 l 425 990 l 49 990 l 49 872 l 174 872 l 174 122 l 49 122 l 49 0 z m 182 1074 l 282 1074 l 461 1292 l 322 1292 z "},"Ĭ":{"ha":474,"x_min":0,"x_max":0,"o":"m 425 0 l 425 122 l 300 122 l 300 872 l 425 872 l 425 990 l 49 990 l 49 872 l 174 872 l 174 122 l 49 122 l 49 0 z m 235 1072 b 435 1293 374 1072 435 1150 l 338 1293 b 236 1163 338 1203 307 1164 b 135 1293 164 1164 135 1203 l 39 1293 b 235 1072 39 1149 85 1072 z "},"Î":{"ha":474,"x_min":0,"x_max":0,"o":"m 425 0 l 425 122 l 300 122 l 300 872 l 425 872 l 425 990 l 49 990 l 49 872 l 174 872 l 174 122 l 49 122 l 49 0 z m 315 1074 l 428 1074 l 281 1292 l 190 1292 l 44 1074 l 156 1074 l 236 1200 z "},"Ï":{"ha":474,"x_min":0,"x_max":0,"o":"m 425 0 l 425 122 l 300 122 l 300 872 l 425 872 l 425 990 l 49 990 l 49 872 l 174 872 l 174 122 l 49 122 l 49 0 z m 136 1071 b 210 1153 188 1071 210 1094 b 136 1233 210 1213 186 1233 b 64 1153 88 1233 64 1213 b 136 1071 64 1090 83 1071 z m 340 1071 b 413 1153 389 1071 413 1094 b 340 1233 413 1213 389 1233 b 267 1153 290 1233 267 1213 b 340 1071 267 1090 286 1071 z "},"İ":{"ha":474,"x_min":0,"x_max":0,"o":"m 425 0 l 425 122 l 300 122 l 300 872 l 425 872 l 425 990 l 49 990 l 49 872 l 174 872 l 174 122 l 49 122 l 49 0 z m 239 1072 b 319 1163 293 1072 319 1097 b 239 1253 319 1229 292 1253 b 156 1163 183 1253 156 1229 b 239 1072 156 1094 178 1072 z "},"Ì":{"ha":474,"x_min":0,"x_max":0,"o":"m 425 0 l 425 122 l 300 122 l 300 872 l 425 872 l 425 990 l 49 990 l 49 872 l 174 872 l 174 122 l 49 122 l 49 0 z m 185 1074 l 283 1074 l 157 1292 l 19 1292 z "},"Ī":{"ha":474,"x_min":0,"x_max":0,"o":"m 425 0 l 425 122 l 300 122 l 300 872 l 425 872 l 425 990 l 49 990 l 49 872 l 174 872 l 174 122 l 49 122 l 49 0 z m 81 1096 l 401 1096 l 401 1196 l 81 1196 z "},"Į":{"ha":474,"x_min":0,"x_max":0,"o":"m 536 -132 l 421 -132 b 356 -186 413 -165 389 -186 b 296 -137 318 -186 296 -169 b 425 0 296 -97 324 -71 l 425 122 l 300 122 l 300 872 l 425 872 l 425 990 l 49 990 l 49 872 l 174 872 l 174 122 l 49 122 l 49 0 l 279 0 b 192 -146 211 -51 192 -97 b 349 -271 192 -229 250 -271 b 536 -132 446 -271 508 -228 z "},"Ĩ":{"ha":474,"x_min":0,"x_max":0,"o":"m 425 0 l 425 122 l 300 122 l 300 872 l 425 872 l 425 990 l 49 990 l 49 872 l 174 872 l 174 122 l 49 122 l 49 0 z m 24 1076 l 114 1076 b 150 1153 114 1133 125 1153 b 322 1071 200 1153 233 1071 b 449 1244 418 1071 449 1138 l 360 1244 b 319 1168 360 1182 349 1168 b 149 1250 274 1168 235 1250 b 24 1076 57 1250 25 1186 z "},"Ĵ":{"ha":603,"x_min":0,"x_max":0,"o":"m 285 -14 b 526 254 443 -14 526 68 l 526 990 l 392 990 l 392 261 b 285 110 392 153 363 110 b 181 239 208 110 181 161 l 181 367 l 46 367 l 46 231 b 285 -14 46 67 131 -14 z m 538 1074 l 650 1074 l 503 1292 l 413 1292 l 267 1074 l 378 1074 l 458 1200 z "},"Ķ":{"ha":681,"x_min":0,"x_max":0,"o":"m 213 381 l 314 542 l 326 497 l 510 0 l 653 0 l 410 631 l 633 990 l 485 990 l 211 536 l 213 560 l 213 990 l 85 990 l 85 0 l 213 0 z m 289 -354 b 429 -162 386 -340 429 -265 b 351 -53 429 -82 410 -53 b 275 -133 299 -53 275 -74 b 338 -206 275 -194 294 -206 b 351 -204 343 -206 347 -206 b 289 -285 347 -250 328 -278 z "},"Ĺ":{"ha":553,"x_min":0,"x_max":0,"o":"m 514 0 l 514 125 l 215 125 l 215 990 l 85 990 l 85 0 z m 96 1074 l 196 1074 l 375 1292 l 236 1292 z "},"Ľ":{"ha":553,"x_min":0,"x_max":0,"o":"m 514 0 l 514 125 l 215 125 l 215 990 l 85 990 l 85 0 z m 375 882 l 458 882 l 524 1094 l 414 1094 z "},"Ļ":{"ha":553,"x_min":0,"x_max":0,"o":"m 514 0 l 514 125 l 215 125 l 215 990 l 85 990 l 85 0 z m 243 -364 b 383 -172 340 -350 383 -275 b 306 -62 383 -92 364 -62 b 229 -143 253 -62 229 -83 b 292 -215 229 -204 249 -215 b 306 -214 297 -215 301 -215 b 243 -294 301 -260 282 -287 z "},"Ŀ":{"ha":553,"x_min":0,"x_max":0,"o":"m 514 0 l 514 125 l 215 125 l 215 990 l 85 990 l 85 0 z m 444 360 b 525 450 499 360 525 385 b 444 540 525 517 497 540 b 361 450 389 540 361 517 b 444 360 361 382 383 360 z "},"Ł":{"ha":571,"x_min":0,"x_max":0,"o":"m 532 0 l 532 125 l 233 125 l 233 478 l 404 531 l 375 639 l 233 594 l 233 990 l 103 990 l 103 553 l -6 519 l 25 413 l 103 436 l 103 0 z "},"Ń":{"ha":725,"x_min":0,"x_max":0,"o":"m 204 624 l 182 839 l 240 640 l 528 0 l 640 0 l 640 990 l 519 990 l 519 368 l 540 188 l 481 357 l 199 990 l 85 990 l 85 0 l 204 0 z m 313 1060 l 413 1060 l 592 1278 l 453 1278 z "},"Ň":{"ha":725,"x_min":0,"x_max":0,"o":"m 204 624 l 182 839 l 240 640 l 528 0 l 640 0 l 640 990 l 519 990 l 519 368 l 540 188 l 481 357 l 199 990 l 85 990 l 85 0 l 204 0 z m 406 1060 l 550 1278 l 440 1278 l 361 1156 l 282 1278 l 169 1278 l 315 1060 z "},"Ņ":{"ha":725,"x_min":0,"x_max":0,"o":"m 204 624 l 182 839 l 240 640 l 528 0 l 640 0 l 640 990 l 519 990 l 519 368 l 540 188 l 481 357 l 199 990 l 85 990 l 85 0 l 204 0 z m 289 -353 b 429 -161 386 -339 429 -264 b 351 -51 429 -81 410 -51 b 275 -132 299 -51 275 -72 b 338 -204 275 -193 294 -204 b 351 -203 343 -204 347 -204 b 289 -283 347 -249 328 -276 z "},"Ñ":{"ha":725,"x_min":0,"x_max":0,"o":"m 204 624 l 182 839 l 240 640 l 528 0 l 640 0 l 640 990 l 519 990 l 519 368 l 540 188 l 481 357 l 199 990 l 85 990 l 85 0 l 204 0 z m 172 1078 l 263 1078 b 299 1154 263 1135 274 1154 b 471 1072 349 1154 382 1072 b 597 1246 567 1072 597 1139 l 508 1246 b 468 1169 508 1183 497 1169 b 297 1251 422 1169 383 1251 b 172 1078 206 1251 174 1188 z "},"Ŋ":{"ha":724,"x_min":0,"x_max":0,"o":"m 444 -257 b 640 -54 601 -257 640 -211 l 640 990 l 519 990 l 519 365 l 540 189 l 493 326 l 199 990 l 85 990 l 85 0 l 204 0 l 204 628 l 182 838 l 231 671 l 519 19 l 519 -37 b 431 -135 519 -122 500 -135 l 393 -135 l 393 -257 z "},"Ó":{"ha":690,"x_min":0,"x_max":0,"o":"m 344 -14 b 625 292 519 -14 625 83 l 625 693 b 346 1001 625 896 518 1001 b 65 693 174 1001 65 894 l 65 292 b 344 -14 65 82 171 -14 z m 346 108 b 200 300 243 108 200 174 l 200 688 b 344 883 200 813 243 883 b 490 688 446 883 490 815 l 490 300 b 346 108 490 174 446 108 z m 307 1088 l 407 1088 l 586 1306 l 447 1306 z "},"Ŏ":{"ha":690,"x_min":0,"x_max":0,"o":"m 344 -14 b 625 292 519 -14 625 83 l 625 693 b 346 1001 625 896 518 1001 b 65 693 174 1001 65 894 l 65 292 b 344 -14 65 82 171 -14 z m 346 108 b 200 300 243 108 200 174 l 200 688 b 344 883 200 813 243 883 b 490 688 446 883 490 815 l 490 300 b 346 108 490 174 446 108 z m 344 1088 b 544 1308 483 1088 544 1165 l 447 1308 b 346 1178 447 1218 417 1179 b 244 1308 274 1179 244 1218 l 149 1308 b 344 1088 149 1164 194 1088 z "},"Ô":{"ha":690,"x_min":0,"x_max":0,"o":"m 344 -14 b 625 292 519 -14 625 83 l 625 693 b 346 1001 625 896 518 1001 b 65 693 174 1001 65 894 l 65 292 b 344 -14 65 82 171 -14 z m 346 108 b 200 300 243 108 200 174 l 200 688 b 344 883 200 813 243 883 b 490 688 446 883 490 815 l 490 300 b 346 108 490 174 446 108 z m 426 1089 l 539 1089 l 392 1307 l 301 1307 l 156 1089 l 267 1089 l 347 1215 z "},"Ö":{"ha":690,"x_min":0,"x_max":0,"o":"m 344 -14 b 625 292 519 -14 625 83 l 625 693 b 346 1001 625 896 518 1001 b 65 693 174 1001 65 894 l 65 292 b 344 -14 65 82 171 -14 z m 346 108 b 200 300 243 108 200 174 l 200 688 b 344 883 200 813 243 883 b 490 688 446 883 490 815 l 490 300 b 346 108 490 174 446 108 z m 246 1086 b 319 1168 297 1086 319 1110 b 246 1249 319 1228 296 1249 b 174 1168 197 1249 174 1228 b 246 1086 174 1106 193 1086 z m 450 1086 b 522 1168 499 1086 522 1110 b 450 1249 522 1228 499 1249 b 376 1168 400 1249 376 1228 b 450 1086 376 1106 396 1086 z "},"Ò":{"ha":690,"x_min":0,"x_max":0,"o":"m 344 -14 b 625 292 519 -14 625 83 l 625 693 b 346 1001 625 896 518 1001 b 65 693 174 1001 65 894 l 65 292 b 344 -14 65 82 171 -14 z m 346 108 b 200 300 243 108 200 174 l 200 688 b 344 883 200 813 243 883 b 490 688 446 883 490 815 l 490 300 b 346 108 490 174 446 108 z m 299 1089 l 397 1089 l 271 1307 l 133 1307 z "},"Ő":{"ha":690,"x_min":0,"x_max":0,"o":"m 344 -14 b 625 292 519 -14 625 83 l 625 693 b 346 1001 625 896 518 1001 b 65 693 174 1001 65 894 l 65 292 b 344 -14 65 82 171 -14 z m 346 108 b 200 300 243 108 200 174 l 200 688 b 344 883 200 813 243 883 b 490 688 446 883 490 815 l 490 300 b 346 108 490 174 446 108 z m 656 1307 l 524 1307 l 394 1089 l 486 1089 z m 464 1307 l 333 1307 l 207 1089 l 299 1089 z "},"Ō":{"ha":690,"x_min":0,"x_max":0,"o":"m 344 -14 b 625 292 519 -14 625 83 l 625 693 b 346 1001 625 896 518 1001 b 65 693 174 1001 65 894 l 65 292 b 344 -14 65 82 171 -14 z m 346 108 b 200 300 243 108 200 174 l 200 688 b 344 883 200 813 243 883 b 490 688 446 883 490 815 l 490 300 b 346 108 490 174 446 108 z m 186 1097 l 507 1097 l 507 1197 l 186 1197 z "},"Ø":{"ha":703,"x_min":0,"x_max":0,"o":"m 199 300 l 199 689 b 351 889 199 814 247 889 b 401 882 369 889 386 886 l 226 169 b 199 300 208 201 199 246 z m 351 104 b 310 108 336 104 322 106 l 481 815 b 506 689 497 782 506 740 l 506 300 b 351 104 506 174 454 104 z m 351 -17 b 638 292 529 -17 638 83 l 638 694 b 518 961 638 822 594 913 l 557 1103 l 460 1103 l 432 997 b 351 1006 407 1003 381 1006 b 65 694 175 1006 65 896 l 65 292 b 189 22 65 157 110 68 l 146 -125 l 249 -125 l 279 -11 b 351 -17 301 -15 326 -17 z "},"Ǿ":{"ha":703,"x_min":0,"x_max":0,"o":"m 199 300 l 199 689 b 351 889 199 814 247 889 b 401 882 369 889 386 886 l 226 169 b 199 300 208 201 199 246 z m 351 104 b 310 108 336 104 322 106 l 481 815 b 506 689 497 782 506 740 l 506 300 b 351 104 506 174 454 104 z m 351 -17 b 638 292 529 -17 638 83 l 638 694 b 518 961 638 822 594 913 l 557 1103 l 460 1103 l 432 997 b 351 1006 407 1003 381 1006 b 65 694 175 1006 65 896 l 65 292 b 189 22 65 157 110 68 l 146 -125 l 249 -125 l 279 -11 b 351 -17 301 -15 326 -17 z m 297 1119 l 397 1119 l 576 1338 l 438 1338 z "},"Õ":{"ha":690,"x_min":0,"x_max":0,"o":"m 344 -14 b 625 292 519 -14 625 83 l 625 693 b 346 1001 625 896 518 1001 b 65 693 174 1001 65 894 l 65 292 b 344 -14 65 82 171 -14 z m 346 108 b 200 300 243 108 200 174 l 200 688 b 344 883 200 813 243 883 b 490 688 446 883 490 815 l 490 300 b 346 108 490 174 446 108 z m 133 1092 l 224 1092 b 260 1168 224 1149 235 1168 b 432 1086 310 1168 343 1086 b 558 1260 528 1086 558 1153 l 469 1260 b 429 1183 469 1197 458 1183 b 258 1265 383 1183 344 1265 b 133 1092 167 1265 135 1201 z "},"Œ":{"ha":988,"x_min":0,"x_max":0,"o":"m 346 108 b 200 300 243 108 200 174 l 200 688 b 344 883 200 813 243 883 b 490 688 446 883 490 815 l 490 300 b 346 108 490 174 446 108 z m 485 0 l 943 0 l 943 122 l 614 122 l 614 443 l 888 443 l 888 564 l 614 564 l 614 872 l 929 872 l 929 990 l 485 990 l 485 911 b 321 1001 458 968 408 1001 b 65 693 171 1001 65 894 l 65 292 b 315 -14 65 82 171 -14 b 485 81 407 -14 457 19 z "},"Ŕ":{"ha":665,"x_min":0,"x_max":0,"o":"m 331 876 b 468 750 428 876 468 836 l 468 657 b 333 515 468 564 429 515 l 214 515 l 214 876 z m 331 400 b 454 272 428 400 454 358 l 454 61 b 471 0 454 35 460 11 l 615 0 b 589 58 599 14 589 31 l 589 276 b 481 461 589 382 557 438 b 600 650 558 490 600 550 l 600 761 b 336 990 600 908 524 990 l 85 990 l 85 0 l 214 0 l 214 400 z m 269 1074 l 369 1074 l 549 1292 l 410 1292 z "},"Ř":{"ha":665,"x_min":0,"x_max":0,"o":"m 331 876 b 468 750 428 876 468 836 l 468 657 b 333 515 468 564 429 515 l 214 515 l 214 876 z m 331 400 b 454 272 428 400 454 358 l 454 61 b 471 0 454 35 460 11 l 615 0 b 589 58 599 14 589 31 l 589 276 b 481 461 589 382 557 438 b 600 650 558 490 600 550 l 600 761 b 336 990 600 908 524 990 l 85 990 l 85 0 l 214 0 l 214 400 z m 363 1074 l 507 1292 l 397 1292 l 318 1169 l 239 1292 l 126 1292 l 272 1074 z "},"Ŗ":{"ha":665,"x_min":0,"x_max":0,"o":"m 331 876 b 468 750 428 876 468 836 l 468 657 b 333 515 468 564 429 515 l 214 515 l 214 876 z m 331 400 b 454 272 428 400 454 358 l 454 61 b 471 0 454 35 460 11 l 615 0 b 589 58 599 14 589 31 l 589 276 b 481 461 589 382 557 438 b 600 650 558 490 600 550 l 600 761 b 336 990 600 908 524 990 l 85 990 l 85 0 l 214 0 l 214 400 z m 274 -356 b 414 -164 371 -342 414 -267 b 336 -54 414 -83 394 -54 b 260 -135 283 -54 260 -75 b 322 -207 260 -196 279 -207 b 336 -206 328 -207 332 -207 b 274 -286 332 -251 313 -279 z "},"Ś":{"ha":625,"x_min":0,"x_max":0,"o":"m 321 -12 b 576 235 483 -12 576 89 l 576 286 b 367 550 576 443 468 500 b 190 733 276 594 190 635 l 190 756 b 310 889 190 831 224 889 b 432 763 396 889 432 844 l 432 663 l 563 663 l 563 771 b 311 1001 563 904 490 1001 b 60 758 136 1001 60 893 l 60 726 b 269 461 60 567 168 511 b 447 276 361 417 447 378 l 447 236 b 321 106 447 163 411 106 b 183 247 219 106 183 160 l 183 369 l 47 369 l 47 244 b 321 -12 47 79 117 -12 z m 251 1089 l 351 1089 l 531 1307 l 392 1307 z "},"Š":{"ha":625,"x_min":0,"x_max":0,"o":"m 321 -12 b 576 235 483 -12 576 89 l 576 286 b 367 550 576 443 468 500 b 190 733 276 594 190 635 l 190 756 b 310 889 190 831 224 889 b 432 763 396 889 432 844 l 432 663 l 563 663 l 563 771 b 311 1001 563 904 490 1001 b 60 758 136 1001 60 893 l 60 726 b 269 461 60 567 168 511 b 447 276 361 417 447 378 l 447 236 b 321 106 447 163 411 106 b 183 247 219 106 183 160 l 183 369 l 47 369 l 47 244 b 321 -12 47 79 117 -12 z m 357 1089 l 501 1307 l 392 1307 l 313 1185 l 233 1307 l 121 1307 l 267 1089 z "},"Ş":{"ha":625,"x_min":0,"x_max":0,"o":"m 326 -339 b 504 -199 438 -339 504 -290 b 361 -79 504 -126 454 -82 l 361 -10 b 576 235 499 6 576 101 l 576 286 b 367 550 576 443 468 500 b 190 733 276 594 190 635 l 190 756 b 310 889 190 831 224 889 b 432 763 396 889 432 844 l 432 663 l 563 663 l 563 771 b 311 1001 563 904 490 1001 b 60 758 136 1001 60 893 l 60 726 b 269 461 60 567 168 511 b 447 276 361 417 447 378 l 447 236 b 321 106 447 163 411 106 b 183 247 219 106 183 160 l 183 369 l 47 369 l 47 244 b 267 -10 47 94 104 6 l 267 -153 l 322 -153 b 401 -201 379 -153 401 -172 b 326 -257 401 -237 376 -257 b 244 -194 278 -257 249 -235 l 132 -194 b 326 -339 146 -286 194 -339 z "},"Ŝ":{"ha":625,"x_min":0,"x_max":0,"o":"m 321 -12 b 576 235 483 -12 576 89 l 576 286 b 367 550 576 443 468 500 b 190 733 276 594 190 635 l 190 756 b 310 889 190 831 224 889 b 432 763 396 889 432 844 l 432 663 l 563 663 l 563 771 b 311 1001 563 904 490 1001 b 60 758 136 1001 60 893 l 60 726 b 269 461 60 567 168 511 b 447 276 361 417 447 378 l 447 236 b 321 106 447 163 411 106 b 183 247 219 106 183 160 l 183 369 l 47 369 l 47 244 b 321 -12 47 79 117 -12 z m 396 1089 l 508 1089 l 361 1307 l 271 1307 l 125 1089 l 236 1089 l 317 1215 z "},"Ș":{"ha":625,"x_min":0,"x_max":0,"o":"m 321 -12 b 576 235 483 -12 576 89 l 576 286 b 367 550 576 443 468 500 b 190 733 276 594 190 635 l 190 756 b 310 889 190 831 224 889 b 432 763 396 889 432 844 l 432 663 l 563 663 l 563 771 b 311 1001 563 904 490 1001 b 60 758 136 1001 60 893 l 60 726 b 269 461 60 567 168 511 b 447 276 361 417 447 378 l 447 236 b 321 106 447 163 411 106 b 183 247 219 106 183 160 l 183 369 l 47 369 l 47 244 b 321 -12 47 79 117 -12 z m 256 -381 b 396 -189 353 -367 396 -292 b 318 -79 396 -108 376 -79 b 242 -160 265 -79 242 -100 b 304 -232 242 -221 261 -232 b 318 -231 310 -232 314 -232 b 256 -311 314 -276 294 -304 z "},"Ŧ":{"ha":547,"x_min":0,"x_max":0,"o":"m 444 440 l 444 554 l 339 554 l 339 869 l 518 869 l 518 990 l 29 990 l 29 869 l 208 869 l 208 554 l 99 554 l 99 440 l 208 440 l 208 0 l 339 0 l 339 440 z "},"Ť":{"ha":547,"x_min":0,"x_max":0,"o":"m 518 869 l 518 990 l 29 990 l 29 869 l 208 869 l 208 0 l 339 0 l 339 869 z m 321 1074 l 465 1292 l 356 1292 l 276 1169 l 197 1292 l 85 1292 l 231 1074 z "},"Ţ":{"ha":547,"x_min":0,"x_max":0,"o":"m 518 869 l 518 990 l 29 990 l 29 869 l 208 869 l 208 0 l 339 0 l 339 869 z m 218 -364 b 358 -172 315 -350 358 -275 b 281 -62 358 -92 339 -62 b 204 -143 228 -62 204 -83 b 267 -215 204 -204 224 -215 b 281 -214 272 -215 276 -215 b 218 -294 276 -260 257 -287 z "},"Ú":{"ha":676,"x_min":0,"x_max":0,"o":"m 339 -14 b 599 283 508 -14 599 79 l 599 990 l 464 990 l 464 290 b 339 114 464 165 428 114 b 213 290 250 114 213 167 l 213 990 l 78 990 l 78 283 b 339 -14 78 79 163 -14 z m 286 1068 l 386 1068 l 565 1286 l 426 1286 z "},"Ŭ":{"ha":676,"x_min":0,"x_max":0,"o":"m 339 -14 b 599 283 508 -14 599 79 l 599 990 l 464 990 l 464 290 b 339 114 464 165 428 114 b 213 290 250 114 213 167 l 213 990 l 78 990 l 78 283 b 339 -14 78 79 163 -14 z m 335 1067 b 535 1288 474 1067 535 1144 l 438 1288 b 336 1157 438 1197 407 1158 b 235 1288 264 1158 235 1197 l 139 1288 b 335 1067 139 1143 185 1067 z "},"Û":{"ha":676,"x_min":0,"x_max":0,"o":"m 339 -14 b 599 283 508 -14 599 79 l 599 990 l 464 990 l 464 290 b 339 114 464 165 428 114 b 213 290 250 114 213 167 l 213 990 l 78 990 l 78 283 b 339 -14 78 79 163 -14 z m 417 1068 l 529 1068 l 382 1286 l 292 1286 l 146 1068 l 257 1068 l 338 1194 z "},"Ü":{"ha":676,"x_min":0,"x_max":0,"o":"m 339 -14 b 599 283 508 -14 599 79 l 599 990 l 464 990 l 464 290 b 339 114 464 165 428 114 b 213 290 250 114 213 167 l 213 990 l 78 990 l 78 283 b 339 -14 78 79 163 -14 z m 236 1065 b 310 1147 288 1065 310 1089 b 236 1228 310 1207 286 1228 b 164 1147 188 1228 164 1207 b 236 1065 164 1085 183 1065 z m 440 1065 b 513 1147 489 1065 513 1089 b 440 1228 513 1207 489 1228 b 367 1147 390 1228 367 1207 b 440 1065 367 1085 386 1065 z "},"Ù":{"ha":676,"x_min":0,"x_max":0,"o":"m 339 -14 b 599 283 508 -14 599 79 l 599 990 l 464 990 l 464 290 b 339 114 464 165 428 114 b 213 290 250 114 213 167 l 213 990 l 78 990 l 78 283 b 339 -14 78 79 163 -14 z m 289 1068 l 388 1068 l 261 1286 l 124 1286 z "},"Ű":{"ha":676,"x_min":0,"x_max":0,"o":"m 339 -14 b 599 283 508 -14 599 79 l 599 990 l 464 990 l 464 290 b 339 114 464 165 428 114 b 213 290 250 114 213 167 l 213 990 l 78 990 l 78 283 b 339 -14 78 79 163 -14 z m 646 1286 l 514 1286 l 385 1068 l 476 1068 z m 454 1286 l 324 1286 l 197 1068 l 289 1068 z "},"Ū":{"ha":676,"x_min":0,"x_max":0,"o":"m 339 -14 b 599 283 508 -14 599 79 l 599 990 l 464 990 l 464 290 b 339 114 464 165 428 114 b 213 290 250 114 213 167 l 213 990 l 78 990 l 78 283 b 339 -14 78 79 163 -14 z m 176 1076 l 497 1076 l 497 1176 l 176 1176 z "},"Ų":{"ha":676,"x_min":0,"x_max":0,"o":"m 388 -261 b 575 -122 485 -261 547 -218 l 460 -122 b 394 -176 451 -156 428 -176 b 335 -128 357 -176 335 -160 b 461 8 335 -87 363 -61 b 599 283 551 46 599 136 l 599 990 l 464 990 l 464 290 b 339 114 464 165 428 114 b 213 290 250 114 213 167 l 213 990 l 78 990 l 78 283 b 293 -11 78 99 147 4 b 231 -136 244 -54 231 -94 b 388 -261 231 -219 289 -261 z "},"Ů":{"ha":676,"x_min":0,"x_max":0,"o":"m 339 -14 b 599 283 508 -14 599 79 l 599 990 l 464 990 l 464 290 b 339 114 464 165 428 114 b 213 290 250 114 213 167 l 213 990 l 78 990 l 78 283 b 339 -14 78 79 163 -14 z m 336 1039 b 488 1185 426 1039 488 1092 b 336 1331 488 1278 428 1331 b 188 1185 249 1331 188 1274 b 336 1039 188 1089 247 1039 z m 336 1126 b 279 1185 300 1126 279 1149 b 336 1246 279 1222 303 1246 b 396 1185 372 1246 396 1222 b 336 1126 396 1146 365 1126 z "},"Ũ":{"ha":676,"x_min":0,"x_max":0,"o":"m 339 -14 b 599 283 508 -14 599 79 l 599 990 l 464 990 l 464 290 b 339 114 464 165 428 114 b 213 290 250 114 213 167 l 213 990 l 78 990 l 78 283 b 339 -14 78 79 163 -14 z m 124 1071 l 214 1071 b 250 1147 214 1128 225 1147 b 422 1065 300 1147 333 1065 b 549 1239 518 1065 549 1132 l 460 1239 b 419 1163 460 1176 449 1163 b 249 1244 374 1163 335 1244 b 124 1071 157 1244 125 1181 z "},"Ẃ":{"ha":946,"x_min":0,"x_max":0,"o":"m 457 678 l 469 842 l 482 679 l 617 0 l 735 0 l 914 990 l 789 990 l 681 347 l 668 125 l 650 326 l 515 990 l 425 990 l 282 326 l 263 135 l 257 347 l 163 990 l 35 990 l 192 0 l 310 0 z m 419 1074 l 519 1074 l 699 1292 l 560 1292 z "},"Ŵ":{"ha":946,"x_min":0,"x_max":0,"o":"m 457 678 l 469 842 l 482 679 l 617 0 l 735 0 l 914 990 l 789 990 l 681 347 l 668 125 l 650 326 l 515 990 l 425 990 l 282 326 l 263 135 l 257 347 l 163 990 l 35 990 l 192 0 l 310 0 z m 550 1074 l 663 1074 l 515 1292 l 425 1292 l 279 1074 l 390 1074 l 471 1200 z "},"Ẅ":{"ha":946,"x_min":0,"x_max":0,"o":"m 457 678 l 469 842 l 482 679 l 617 0 l 735 0 l 914 990 l 789 990 l 681 347 l 668 125 l 650 326 l 515 990 l 425 990 l 282 326 l 263 135 l 257 347 l 163 990 l 35 990 l 192 0 l 310 0 z m 369 1071 b 443 1153 421 1071 443 1094 b 369 1233 443 1213 419 1233 b 297 1153 321 1233 297 1213 b 369 1071 297 1090 317 1071 z m 574 1071 b 646 1153 622 1071 646 1094 b 574 1233 646 1213 622 1233 b 500 1153 524 1233 500 1213 b 574 1071 500 1090 519 1071 z "},"Ẁ":{"ha":946,"x_min":0,"x_max":0,"o":"m 457 678 l 469 842 l 482 679 l 617 0 l 735 0 l 914 990 l 789 990 l 681 347 l 668 125 l 650 326 l 515 990 l 425 990 l 282 326 l 263 135 l 257 347 l 163 990 l 35 990 l 192 0 l 310 0 z m 422 1074 l 521 1074 l 394 1292 l 257 1292 z "},"Ý":{"ha":593,"x_min":0,"x_max":0,"o":"m 360 0 l 360 361 l 586 990 l 447 990 l 313 569 l 294 475 l 278 569 l 147 990 l 8 990 l 225 361 l 225 0 z m 254 1067 l 354 1067 l 533 1285 l 394 1285 z "},"Ŷ":{"ha":593,"x_min":0,"x_max":0,"o":"m 360 0 l 360 361 l 586 990 l 447 990 l 313 569 l 294 475 l 278 569 l 147 990 l 8 990 l 225 361 l 225 0 z m 385 1067 l 497 1067 l 350 1285 l 260 1285 l 114 1067 l 225 1067 l 306 1193 z "},"Ÿ":{"ha":593,"x_min":0,"x_max":0,"o":"m 360 0 l 360 361 l 586 990 l 447 990 l 313 569 l 294 475 l 278 569 l 147 990 l 8 990 l 225 361 l 225 0 z m 204 1064 b 278 1146 256 1064 278 1088 b 204 1226 278 1206 254 1226 b 132 1146 156 1226 132 1206 b 204 1064 132 1083 151 1064 z m 408 1064 b 481 1146 457 1064 481 1088 b 408 1226 481 1206 457 1226 b 335 1146 358 1226 335 1206 b 408 1064 335 1083 354 1064 z "},"Ỳ":{"ha":593,"x_min":0,"x_max":0,"o":"m 360 0 l 360 361 l 586 990 l 447 990 l 313 569 l 294 475 l 278 569 l 147 990 l 8 990 l 225 361 l 225 0 z m 257 1067 l 356 1067 l 229 1285 l 92 1285 z "},"Ĳ":{"ha":801,"x_min":0,"x_max":0,"o":"m 421 0 l 421 122 l 299 122 l 299 872 l 421 872 l 421 990 l 49 990 l 49 872 l 172 872 l 172 122 l 49 122 l 49 0 z m 486 0 l 506 0 b 725 224 683 0 725 38 l 725 990 l 590 990 l 590 231 b 506 122 590 136 583 122 l 486 122 z "},"Ź":{"ha":597,"x_min":0,"x_max":0,"o":"m 547 0 l 547 126 l 197 126 l 544 872 l 544 990 l 76 990 l 76 868 l 404 868 l 47 113 l 47 0 z m 251 1074 l 351 1074 l 531 1292 l 392 1292 z "},"Ž":{"ha":597,"x_min":0,"x_max":0,"o":"m 547 0 l 547 126 l 197 126 l 544 872 l 544 990 l 76 990 l 76 868 l 404 868 l 47 113 l 47 0 z m 344 1074 l 489 1292 l 379 1292 l 300 1169 l 221 1292 l 108 1292 l 254 1074 z "},"Ż":{"ha":597,"x_min":0,"x_max":0,"o":"m 547 0 l 547 126 l 197 126 l 544 872 l 544 990 l 76 990 l 76 868 l 404 868 l 47 113 l 47 0 z m 301 1072 b 382 1163 356 1072 382 1097 b 301 1253 382 1229 354 1253 b 218 1163 246 1253 218 1229 b 301 1072 218 1094 240 1072 z "},"Þ":{"ha":642,"x_min":0,"x_max":0,"o":"m 332 181 b 597 439 517 181 597 278 l 597 576 b 328 828 597 757 513 828 l 213 828 l 213 990 l 85 990 l 85 0 l 213 0 l 213 181 z m 325 713 b 468 575 422 713 468 678 l 468 440 b 326 296 468 344 422 296 l 213 296 l 213 713 z "},"a":{"ha":629,"x_min":0,"x_max":0,"o":"m 292 96 b 185 197 226 96 185 135 l 185 211 b 214 314 185 260 194 290 b 329 383 236 340 267 361 b 435 442 389 406 419 419 l 435 288 b 292 96 435 174 379 96 z m 456 0 l 558 0 l 558 581 b 317 808 558 726 483 808 b 65 590 153 808 65 724 l 65 500 l 192 500 l 192 586 b 317 703 192 658 238 703 b 435 589 394 703 435 665 l 435 581 b 294 460 435 522 410 501 b 117 374 201 425 156 408 b 47 213 75 336 47 286 l 47 183 b 240 -10 47 56 118 -10 b 438 125 333 -10 403 39 z "},"b":{"ha":665,"x_min":0,"x_max":0,"o":"m 376 -11 b 604 294 518 -11 604 86 l 604 517 b 381 810 604 715 521 810 b 204 683 292 810 232 765 l 204 1024 l 79 1024 l 79 0 l 185 0 l 199 138 b 376 -11 221 47 276 -11 z m 338 107 b 204 290 250 107 204 175 l 204 524 b 342 699 204 628 254 699 b 472 519 426 699 472 638 l 472 294 b 338 107 472 165 424 107 z "},"c":{"ha":622,"x_min":0,"x_max":0,"o":"m 315 -12 b 571 254 476 -12 571 74 l 571 335 l 433 335 l 433 257 b 315 104 433 153 401 104 b 193 265 229 104 193 158 l 193 531 b 318 697 193 646 231 697 b 433 544 406 697 433 653 l 433 483 l 571 483 l 571 546 b 319 811 571 728 483 811 b 61 532 154 811 61 719 l 61 263 b 315 -12 61 81 136 -12 z "},"d":{"ha":667,"x_min":0,"x_max":0,"o":"m 325 104 b 193 297 246 104 193 163 l 193 513 b 328 699 193 633 239 699 b 463 522 417 699 463 626 l 463 285 b 325 104 463 175 415 104 z m 485 0 l 588 0 l 588 1024 l 463 1024 l 463 690 b 289 810 433 767 376 810 b 61 517 150 810 61 714 l 61 292 b 285 -11 61 82 146 -11 b 467 135 389 -11 444 49 z "},"e":{"ha":628,"x_min":0,"x_max":0,"o":"m 576 251 l 576 267 l 446 267 l 446 239 b 322 104 446 161 418 104 b 186 264 224 104 186 158 l 186 357 l 576 357 l 576 539 b 324 811 576 688 507 811 b 61 528 158 811 61 704 l 61 261 b 321 -12 61 86 140 -12 b 576 251 529 -12 576 108 z m 186 533 b 324 697 186 642 232 697 b 449 544 417 697 449 644 l 449 465 l 186 465 z "},"f":{"ha":394,"x_min":0,"x_max":0,"o":"m 374 679 l 374 800 l 243 800 l 243 849 b 328 949 243 931 256 949 l 374 949 l 374 1064 l 310 1064 b 118 856 178 1064 118 1013 l 118 800 l 18 800 l 18 679 l 118 679 l 118 0 l 242 0 l 243 679 z "},"g":{"ha":614,"x_min":0,"x_max":0,"o":"m 294 -271 b 604 -64 525 -271 604 -174 l 604 -61 b 385 114 604 43 542 114 l 251 114 b 151 160 175 113 151 129 b 289 211 151 196 185 211 l 310 211 b 558 428 461 211 558 292 l 558 592 b 406 782 558 692 503 767 b 381 785 396 783 389 785 b 551 942 515 790 551 844 l 551 971 l 408 971 l 408 924 b 276 808 408 850 381 829 l 256 804 b 64 586 133 781 64 703 l 64 425 b 174 250 64 335 100 278 b 36 124 82 233 36 192 b 179 3 36 53 82 8 b 35 -135 90 -19 35 -72 b 264 -271 35 -218 103 -271 z m 308 308 b 196 426 235 308 196 349 l 196 588 b 271 707 196 646 219 690 b 314 713 283 711 299 713 b 426 590 394 713 426 660 l 426 428 b 308 308 426 354 388 308 z m 274 -162 b 161 -97 203 -162 161 -137 l 161 -94 b 276 1 161 -46 210 -8 l 367 1 b 478 -71 446 1 478 -31 l 478 -74 b 315 -162 478 -124 428 -162 z "},"h":{"ha":649,"x_min":0,"x_max":0,"o":"m 204 521 b 333 694 204 632 247 694 b 444 543 417 694 444 640 l 444 0 l 575 0 l 575 561 b 379 810 575 721 510 810 b 204 672 285 810 229 757 l 204 1024 l 79 1024 l 79 0 l 204 0 z "},"i":{"ha":288,"x_min":0,"x_max":0,"o":"m 147 869 b 231 963 204 869 231 893 b 147 1056 231 1033 206 1056 b 64 963 89 1056 64 1033 b 147 869 64 892 85 869 z m 208 0 l 208 800 l 79 800 l 79 0 z "},"j":{"ha":288,"x_min":0,"x_max":0,"o":"m 146 869 b 229 963 203 869 229 893 b 146 1056 229 1033 204 1056 b 63 963 88 1056 63 1033 b 146 869 63 892 85 869 z m 10 -260 b 208 -53 171 -260 208 -214 l 208 800 l 81 800 l 81 -39 b -1 -135 81 -121 67 -135 l -39 -135 l -39 -260 z "},"k":{"ha":618,"x_min":0,"x_max":0,"o":"m 467 0 l 604 0 l 394 503 l 594 800 l 447 800 l 219 450 l 200 406 l 204 467 l 204 1024 l 79 1024 l 79 0 l 204 0 l 204 281 l 299 425 z "},"l":{"ha":286,"x_min":0,"x_max":0,"o":"m 207 0 l 207 1024 l 79 1024 l 79 0 z "},"m":{"ha":971,"x_min":0,"x_max":0,"o":"m 207 532 b 321 703 207 635 239 703 b 425 558 400 703 425 646 l 425 0 l 554 0 l 554 556 b 664 703 554 638 583 703 b 771 554 742 703 771 650 l 771 0 l 900 0 l 900 575 b 710 818 900 735 839 818 b 540 686 625 818 567 769 b 371 818 521 769 468 818 b 196 683 279 818 221 768 l 183 800 l 78 800 l 78 0 l 207 0 z "},"n":{"ha":649,"x_min":0,"x_max":0,"o":"m 207 521 b 336 694 207 632 250 694 b 447 543 419 694 447 640 l 447 0 l 578 0 l 578 561 b 378 810 578 721 513 810 b 199 664 281 810 222 756 l 183 800 l 78 800 l 78 0 l 207 0 z "},"o":{"ha":642,"x_min":0,"x_max":0,"o":"m 321 -12 b 581 263 482 -12 581 82 l 581 532 b 321 811 581 714 481 811 b 61 532 164 811 61 715 l 61 263 b 321 -12 61 81 150 -12 z m 321 104 b 193 265 235 104 193 163 l 193 531 b 321 697 193 642 238 697 b 449 531 406 697 449 639 l 449 265 b 321 104 449 161 407 104 z "},"p":{"ha":660,"x_min":0,"x_max":0,"o":"m 335 104 b 203 281 247 104 203 174 l 203 514 b 339 699 203 628 247 699 b 471 511 426 699 471 643 l 471 282 b 335 104 471 161 422 104 z m 376 -11 b 603 286 515 -11 603 82 l 603 507 b 378 811 603 721 518 811 b 196 671 281 811 222 756 l 181 800 l 78 800 l 78 -264 l 203 -264 l 203 114 b 376 -11 228 35 282 -11 z "},"q":{"ha":664,"x_min":0,"x_max":0,"o":"m 586 -264 l 586 800 l 482 800 l 468 675 b 289 810 443 758 388 810 b 61 513 147 810 61 721 l 61 274 b 285 -11 61 68 151 -11 b 461 118 379 -11 435 35 l 461 -264 z m 325 101 b 193 278 246 101 193 160 l 193 517 b 328 697 193 646 242 697 b 463 510 415 697 463 628 l 463 276 b 325 101 463 168 410 101 z "},"r":{"ha":428,"x_min":0,"x_max":0,"o":"m 206 0 l 206 475 b 360 665 206 611 233 665 l 404 665 l 404 806 l 379 806 b 199 649 263 806 213 778 l 178 800 l 78 800 l 78 0 z "},"s":{"ha":575,"x_min":0,"x_max":0,"o":"m 290 -12 b 535 210 451 -12 535 72 l 535 239 b 333 464 535 382 429 426 b 179 589 253 494 179 519 l 179 603 b 286 701 179 658 213 701 b 394 600 363 701 394 663 l 394 542 l 522 542 l 522 601 b 286 811 522 729 443 811 b 51 601 132 811 51 722 l 51 582 b 247 365 51 446 153 401 b 407 229 331 333 407 308 l 407 210 b 293 101 407 142 367 101 b 175 217 208 101 175 138 l 175 289 l 39 289 l 39 208 b 290 -12 39 60 117 -12 z "},"t":{"ha":428,"x_min":0,"x_max":0,"o":"m 393 125 l 354 125 b 244 258 264 125 244 142 l 244 679 l 393 679 l 393 800 l 244 800 l 244 957 l 149 957 b 132 856 144 911 142 885 b 88 803 122 828 107 811 b 21 792 68 794 49 792 l 21 679 l 122 679 l 122 246 b 325 0 122 51 168 0 l 393 0 z "},"u":{"ha":636,"x_min":0,"x_max":0,"o":"m 453 0 l 558 0 l 558 800 l 428 800 l 428 279 b 310 104 428 171 390 104 b 204 254 231 104 204 160 l 204 800 l 74 800 l 74 233 b 267 -11 74 74 133 -11 b 438 139 363 -11 417 44 z "},"v":{"ha":578,"x_min":0,"x_max":0,"o":"m 351 0 l 564 800 l 433 800 l 304 250 l 286 121 l 269 250 l 144 800 l 14 800 l 221 0 z "},"w":{"ha":875,"x_min":0,"x_max":0,"o":"m 417 504 l 432 651 l 444 507 l 557 0 l 681 0 l 858 800 l 733 800 l 628 278 l 611 131 l 592 281 l 472 800 l 392 800 l 265 282 l 242 138 l 231 279 l 143 800 l 17 800 l 164 0 l 293 0 z "},"x":{"ha":592,"x_min":0,"x_max":0,"o":"m 286 289 l 296 340 l 306 289 l 436 0 l 578 0 l 367 421 l 557 800 l 418 800 l 306 549 l 296 499 l 285 549 l 172 800 l 33 800 l 224 419 l 14 0 l 156 0 z "},"y":{"ha":593,"x_min":0,"x_max":0,"o":"m 119 -235 b 351 -43 271 -235 308 -204 l 576 800 l 444 800 l 317 258 l 304 144 l 292 253 l 153 800 l 21 800 l 243 15 l 232 -26 b 113 -112 213 -103 192 -112 l 51 -112 l 51 -235 z "},"z":{"ha":531,"x_min":0,"x_max":0,"o":"m 42 -1 l 493 0 l 493 119 l 189 119 l 492 693 l 492 800 l 60 800 l 60 683 l 351 683 l 42 101 z "},"á":{"ha":629,"x_min":0,"x_max":0,"o":"m 292 96 b 185 197 226 96 185 135 l 185 211 b 214 314 185 260 194 290 b 329 383 236 340 267 361 b 435 442 389 406 419 419 l 435 288 b 292 96 435 174 379 96 z m 456 0 l 558 0 l 558 581 b 317 808 558 726 483 808 b 65 590 153 808 65 724 l 65 500 l 192 500 l 192 586 b 317 703 192 658 238 703 b 435 589 394 703 435 665 l 435 581 b 294 460 435 522 410 501 b 117 374 201 425 156 408 b 47 213 75 336 47 286 l 47 183 b 240 -10 47 56 118 -10 b 438 125 333 -10 403 39 z m 261 893 l 361 893 l 540 1111 l 401 1111 z "},"ă":{"ha":629,"x_min":0,"x_max":0,"o":"m 292 96 b 185 197 226 96 185 135 l 185 211 b 214 314 185 260 194 290 b 329 383 236 340 267 361 b 435 442 389 406 419 419 l 435 288 b 292 96 435 174 379 96 z m 456 0 l 558 0 l 558 581 b 317 808 558 726 483 808 b 65 590 153 808 65 724 l 65 500 l 192 500 l 192 586 b 317 703 192 658 238 703 b 435 589 394 703 435 665 l 435 581 b 294 460 435 522 410 501 b 117 374 201 425 156 408 b 47 213 75 336 47 286 l 47 183 b 240 -10 47 56 118 -10 b 438 125 333 -10 403 39 z m 319 892 b 519 1113 458 892 519 969 l 422 1113 b 321 982 422 1022 392 983 b 219 1113 249 983 219 1022 l 124 1113 b 319 892 124 968 169 892 z "},"â":{"ha":629,"x_min":0,"x_max":0,"o":"m 292 96 b 185 197 226 96 185 135 l 185 211 b 214 314 185 260 194 290 b 329 383 236 340 267 361 b 435 442 389 406 419 419 l 435 288 b 292 96 435 174 379 96 z m 456 0 l 558 0 l 558 581 b 317 808 558 726 483 808 b 65 590 153 808 65 724 l 65 500 l 192 500 l 192 586 b 317 703 192 658 238 703 b 435 589 394 703 435 665 l 435 581 b 294 460 435 522 410 501 b 117 374 201 425 156 408 b 47 213 75 336 47 286 l 47 183 b 240 -10 47 56 118 -10 b 438 125 333 -10 403 39 z m 401 893 l 514 893 l 367 1111 l 276 1111 l 131 893 l 242 893 l 322 1019 z "},"ä":{"ha":629,"x_min":0,"x_max":0,"o":"m 292 96 b 185 197 226 96 185 135 l 185 211 b 214 314 185 260 194 290 b 329 383 236 340 267 361 b 435 442 389 406 419 419 l 435 288 b 292 96 435 174 379 96 z m 456 0 l 558 0 l 558 581 b 317 808 558 726 483 808 b 65 590 153 808 65 724 l 65 500 l 192 500 l 192 586 b 317 703 192 658 238 703 b 435 589 394 703 435 665 l 435 581 b 294 460 435 522 410 501 b 117 374 201 425 156 408 b 47 213 75 336 47 286 l 47 183 b 240 -10 47 56 118 -10 b 438 125 333 -10 403 39 z m 221 890 b 294 972 272 890 294 914 b 221 1053 294 1032 271 1053 b 149 972 172 1053 149 1032 b 221 890 149 910 168 890 z m 425 890 b 497 972 474 890 497 914 b 425 1053 497 1032 474 1053 b 351 972 375 1053 351 1032 b 425 890 351 910 371 890 z "},"à":{"ha":629,"x_min":0,"x_max":0,"o":"m 292 96 b 185 197 226 96 185 135 l 185 211 b 214 314 185 260 194 290 b 329 383 236 340 267 361 b 435 442 389 406 419 419 l 435 288 b 292 96 435 174 379 96 z m 456 0 l 558 0 l 558 581 b 317 808 558 726 483 808 b 65 590 153 808 65 724 l 65 500 l 192 500 l 192 586 b 317 703 192 658 238 703 b 435 589 394 703 435 665 l 435 581 b 294 460 435 522 410 501 b 117 374 201 425 156 408 b 47 213 75 336 47 286 l 47 183 b 240 -10 47 56 118 -10 b 438 125 333 -10 403 39 z m 274 893 l 372 893 l 246 1111 l 108 1111 z "},"ā":{"ha":629,"x_min":0,"x_max":0,"o":"m 292 96 b 185 197 226 96 185 135 l 185 211 b 214 314 185 260 194 290 b 329 383 236 340 267 361 b 435 442 389 406 419 419 l 435 288 b 292 96 435 174 379 96 z m 456 0 l 558 0 l 558 581 b 317 808 558 726 483 808 b 65 590 153 808 65 724 l 65 500 l 192 500 l 192 586 b 317 703 192 658 238 703 b 435 589 394 703 435 665 l 435 581 b 294 460 435 522 410 501 b 117 374 201 425 156 408 b 47 213 75 336 47 286 l 47 183 b 240 -10 47 56 118 -10 b 438 125 333 -10 403 39 z m 161 901 l 482 901 l 482 1001 l 161 1001 z "},"ą":{"ha":629,"x_min":0,"x_max":0,"o":"m 292 96 b 185 197 226 96 185 135 l 185 211 b 214 314 185 260 194 290 b 329 383 236 340 267 361 b 435 442 389 406 419 419 l 435 288 b 292 96 435 174 379 96 z m 669 -132 l 554 -132 b 489 -186 546 -165 522 -186 b 429 -137 451 -186 429 -169 b 558 0 429 -97 457 -71 l 558 581 b 317 808 558 726 483 808 b 65 590 153 808 65 724 l 65 500 l 192 500 l 192 586 b 317 703 192 658 238 703 b 435 589 394 703 435 665 l 435 581 b 294 460 435 522 410 501 b 117 374 201 425 156 408 b 47 213 75 336 47 286 l 47 183 b 240 -10 47 56 118 -10 b 438 125 333 -10 403 39 l 451 26 b 325 -146 351 -36 325 -90 b 482 -271 325 -229 383 -271 b 669 -132 579 -271 642 -228 z "},"å":{"ha":629,"x_min":0,"x_max":0,"o":"m 292 96 b 185 197 226 96 185 135 l 185 211 b 214 314 185 260 194 290 b 329 383 236 340 267 361 b 435 442 389 406 419 419 l 435 288 b 292 96 435 174 379 96 z m 456 0 l 558 0 l 558 581 b 317 808 558 726 483 808 b 65 590 153 808 65 724 l 65 500 l 192 500 l 192 586 b 317 703 192 658 238 703 b 435 589 394 703 435 665 l 435 581 b 294 460 435 522 410 501 b 117 374 201 425 156 408 b 47 213 75 336 47 286 l 47 183 b 240 -10 47 56 118 -10 b 438 125 333 -10 403 39 z m 317 899 b 468 1044 407 899 468 951 b 317 1190 468 1138 408 1190 b 168 1044 229 1190 168 1133 b 317 899 168 949 228 899 z m 317 986 b 260 1044 281 986 260 1008 b 317 1106 260 1082 283 1106 b 376 1044 353 1106 376 1082 b 317 986 376 1006 346 986 z "},"ǻ":{"ha":632,"x_min":0,"x_max":0,"o":"m 292 96 b 185 197 226 96 185 135 l 185 211 b 214 314 185 260 194 290 b 329 383 236 340 267 361 b 435 442 389 406 419 419 l 435 288 b 292 96 435 174 379 96 z m 456 0 l 558 0 l 558 581 b 317 808 558 726 483 808 b 65 590 153 808 65 724 l 65 500 l 192 500 l 192 586 b 317 703 192 658 238 703 b 435 589 394 703 435 665 l 435 581 b 294 460 435 522 410 501 b 117 374 201 425 156 408 b 47 213 75 336 47 286 l 47 183 b 240 -10 47 56 118 -10 b 438 125 333 -10 403 39 z m 317 872 b 468 1018 407 872 468 925 b 317 1164 468 1111 408 1164 b 168 1018 229 1164 168 1107 b 317 872 168 922 228 872 z m 317 960 b 260 1018 281 960 260 982 b 317 1079 260 1056 283 1079 b 376 1018 353 1079 376 1056 b 317 960 376 979 346 960 z m 267 1208 l 367 1208 l 546 1426 l 407 1426 z "},"ã":{"ha":629,"x_min":0,"x_max":0,"o":"m 292 96 b 185 197 226 96 185 135 l 185 211 b 214 314 185 260 194 290 b 329 383 236 340 267 361 b 435 442 389 406 419 419 l 435 288 b 292 96 435 174 379 96 z m 456 0 l 558 0 l 558 581 b 317 808 558 726 483 808 b 65 590 153 808 65 724 l 65 500 l 192 500 l 192 586 b 317 703 192 658 238 703 b 435 589 394 703 435 665 l 435 581 b 294 460 435 522 410 501 b 117 374 201 425 156 408 b 47 213 75 336 47 286 l 47 183 b 240 -10 47 56 118 -10 b 438 125 333 -10 403 39 z m 108 896 l 199 896 b 235 972 199 953 210 972 b 407 890 285 972 318 890 b 533 1064 503 890 533 957 l 444 1064 b 404 988 444 1001 433 988 b 233 1069 358 988 319 1069 b 108 896 142 1069 110 1006 z "},"æ":{"ha":1007,"x_min":0,"x_max":0,"o":"m 956 242 l 956 267 l 825 267 l 825 238 b 693 104 825 160 790 104 b 558 271 600 104 558 165 l 558 351 l 956 351 l 956 539 b 704 811 956 700 882 811 b 510 725 615 811 551 781 b 314 811 479 781 419 811 b 65 593 153 811 65 726 l 65 500 l 192 500 l 192 589 b 317 706 192 661 238 706 b 435 592 394 706 435 668 l 435 575 b 294 461 435 528 410 503 b 115 374 201 426 154 408 b 47 214 69 333 47 290 l 47 183 b 247 -11 47 56 122 -11 b 461 135 356 -11 428 42 b 692 -12 493 42 567 -12 b 956 242 883 -12 956 99 z m 558 533 b 699 697 558 642 607 697 b 829 544 790 697 829 644 l 829 460 l 558 460 z m 288 96 b 186 201 226 96 186 131 l 186 213 b 215 315 186 260 192 288 b 329 383 238 342 267 361 b 435 442 389 406 419 419 l 435 288 b 288 96 435 174 379 96 z "},"ǽ":{"ha":1007,"x_min":0,"x_max":0,"o":"m 956 242 l 956 267 l 825 267 l 825 238 b 693 104 825 160 790 104 b 558 271 600 104 558 165 l 558 351 l 956 351 l 956 539 b 704 811 956 700 882 811 b 510 725 615 811 551 781 b 314 811 479 781 419 811 b 65 593 153 811 65 726 l 65 500 l 192 500 l 192 589 b 317 706 192 661 238 706 b 435 592 394 706 435 668 l 435 575 b 294 461 435 528 410 503 b 115 374 201 426 154 408 b 47 214 69 333 47 290 l 47 183 b 247 -11 47 56 122 -11 b 461 135 356 -11 428 42 b 692 -12 493 42 567 -12 b 956 242 883 -12 956 99 z m 558 533 b 699 697 558 642 607 697 b 829 544 790 697 829 644 l 829 460 l 558 460 z m 288 96 b 186 201 226 96 186 131 l 186 213 b 215 315 186 260 192 288 b 329 383 238 342 267 361 b 435 442 389 406 419 419 l 435 288 b 288 96 435 174 379 96 z m 461 858 l 561 858 l 740 1076 l 601 1076 z "},"ć":{"ha":622,"x_min":0,"x_max":0,"o":"m 315 -12 b 571 254 476 -12 571 74 l 571 335 l 433 335 l 433 257 b 315 104 433 153 401 104 b 193 265 229 104 193 158 l 193 531 b 318 697 193 646 231 697 b 433 544 406 697 433 653 l 433 483 l 571 483 l 571 546 b 319 811 571 728 483 811 b 61 532 154 811 61 719 l 61 263 b 315 -12 61 81 136 -12 z m 274 893 l 374 893 l 553 1111 l 414 1111 z "},"č":{"ha":622,"x_min":0,"x_max":0,"o":"m 315 -12 b 571 254 476 -12 571 74 l 571 335 l 433 335 l 433 257 b 315 104 433 153 401 104 b 193 265 229 104 193 158 l 193 531 b 318 697 193 646 231 697 b 433 544 406 697 433 653 l 433 483 l 571 483 l 571 546 b 319 811 571 728 483 811 b 61 532 154 811 61 719 l 61 263 b 315 -12 61 81 136 -12 z m 367 893 l 511 1111 l 401 1111 l 322 989 l 243 1111 l 131 1111 l 276 893 z "},"ç":{"ha":622,"x_min":0,"x_max":0,"o":"m 336 -339 b 514 -199 447 -339 514 -290 b 371 -79 514 -126 464 -82 l 371 -8 b 571 254 497 10 571 96 l 571 335 l 433 335 l 433 257 b 315 104 433 153 401 104 b 193 265 229 104 193 158 l 193 531 b 318 697 193 646 231 697 b 433 544 406 697 433 653 l 433 483 l 571 483 l 571 546 b 319 811 571 728 483 811 b 61 532 154 811 61 719 l 61 263 b 276 -11 61 94 125 3 l 276 -153 l 332 -153 b 411 -201 389 -153 411 -172 b 336 -257 411 -237 386 -257 b 254 -194 288 -257 258 -235 l 142 -194 b 336 -339 156 -286 204 -339 z "},"ĉ":{"ha":622,"x_min":0,"x_max":0,"o":"m 315 -12 b 571 254 476 -12 571 74 l 571 335 l 433 335 l 433 257 b 315 104 433 153 401 104 b 193 265 229 104 193 158 l 193 531 b 318 697 193 646 231 697 b 433 544 406 697 433 653 l 433 483 l 571 483 l 571 546 b 319 811 571 728 483 811 b 61 532 154 811 61 719 l 61 263 b 315 -12 61 81 136 -12 z m 406 893 l 518 893 l 371 1111 l 281 1111 l 135 893 l 246 893 l 326 1019 z "},"ċ":{"ha":622,"x_min":0,"x_max":0,"o":"m 315 -12 b 571 254 476 -12 571 74 l 571 335 l 433 335 l 433 257 b 315 104 433 153 401 104 b 193 265 229 104 193 158 l 193 531 b 318 697 193 646 231 697 b 433 544 406 697 433 653 l 433 483 l 571 483 l 571 546 b 319 811 571 728 483 811 b 61 532 154 811 61 719 l 61 263 b 315 -12 61 81 136 -12 z m 324 892 b 404 982 378 892 404 917 b 324 1072 404 1049 376 1072 b 240 982 268 1072 240 1049 b 324 892 240 914 263 892 z "},"ď":{"ha":667,"x_min":0,"x_max":0,"o":"m 325 104 b 193 297 246 104 193 163 l 193 513 b 328 699 193 633 239 699 b 463 522 417 699 463 626 l 463 285 b 325 104 463 175 415 104 z m 485 0 l 588 0 l 588 1024 l 463 1024 l 463 690 b 289 810 433 767 376 810 b 61 517 150 810 61 714 l 61 292 b 285 -11 61 82 146 -11 b 467 135 389 -11 444 49 z m 653 899 l 736 899 l 801 1111 l 692 1111 z "},"đ":{"ha":667,"x_min":0,"x_max":0,"o":"m 325 104 b 193 297 246 104 193 163 l 193 513 b 328 699 193 633 239 699 b 463 522 417 699 463 626 l 463 285 b 325 104 463 175 415 104 z m 467 135 l 485 0 l 588 0 l 588 865 l 658 865 l 658 946 l 588 946 l 588 1024 l 463 1024 l 463 946 l 369 946 l 369 865 l 463 865 l 463 690 b 289 810 433 767 376 810 b 61 517 150 810 61 714 l 61 292 b 285 -11 61 82 146 -11 b 467 135 389 -11 444 49 z "},"ð":{"ha":651,"x_min":0,"x_max":0,"o":"m 321 -12 b 578 263 482 -12 578 82 l 578 533 b 401 954 578 708 513 846 l 525 1050 l 393 1050 l 339 1008 b 282 1050 321 1024 301 1036 l 90 1050 b 250 942 153 1011 206 975 l 124 844 l 257 844 l 314 889 b 443 693 383 825 424 764 b 286 789 417 753 367 789 b 61 522 146 789 61 696 l 61 263 b 321 -12 61 81 150 -12 z m 321 104 b 193 265 235 104 193 163 l 193 521 b 326 678 193 624 242 678 b 449 522 410 678 449 624 l 449 265 b 321 104 449 161 407 104 z "},"é":{"ha":628,"x_min":0,"x_max":0,"o":"m 576 251 l 576 267 l 446 267 l 446 239 b 322 104 446 161 418 104 b 186 264 224 104 186 158 l 186 357 l 576 357 l 576 539 b 324 811 576 688 507 811 b 61 528 158 811 61 704 l 61 261 b 321 -12 61 86 140 -12 b 576 251 529 -12 576 108 z m 186 533 b 324 697 186 642 232 697 b 449 544 417 697 449 644 l 449 465 l 186 465 z m 275 892 l 375 892 l 554 1110 l 415 1110 z "},"ĕ":{"ha":628,"x_min":0,"x_max":0,"o":"m 576 251 l 576 267 l 446 267 l 446 239 b 322 104 446 161 418 104 b 186 264 224 104 186 158 l 186 357 l 576 357 l 576 539 b 324 811 576 688 507 811 b 61 528 158 811 61 704 l 61 261 b 321 -12 61 86 140 -12 b 576 251 529 -12 576 108 z m 186 533 b 324 697 186 642 232 697 b 449 544 417 697 449 644 l 449 465 l 186 465 z m 340 890 b 540 1111 479 890 540 968 l 443 1111 b 342 981 443 1021 413 982 b 240 1111 269 982 240 1021 l 144 1111 b 340 890 144 967 190 890 z "},"ě":{"ha":628,"x_min":0,"x_max":0,"o":"m 576 251 l 576 267 l 446 267 l 446 239 b 322 104 446 161 418 104 b 186 264 224 104 186 158 l 186 357 l 576 357 l 576 539 b 324 811 576 688 507 811 b 61 528 158 811 61 704 l 61 261 b 321 -12 61 86 140 -12 b 576 251 529 -12 576 108 z m 186 533 b 324 697 186 642 232 697 b 449 544 417 697 449 644 l 449 465 l 186 465 z m 381 892 l 525 1110 l 415 1110 l 336 988 l 257 1110 l 144 1110 l 290 892 z "},"ê":{"ha":628,"x_min":0,"x_max":0,"o":"m 576 251 l 576 267 l 446 267 l 446 239 b 322 104 446 161 418 104 b 186 264 224 104 186 158 l 186 357 l 576 357 l 576 539 b 324 811 576 688 507 811 b 61 528 158 811 61 704 l 61 261 b 321 -12 61 86 140 -12 b 576 251 529 -12 576 108 z m 186 533 b 324 697 186 642 232 697 b 449 544 417 697 449 644 l 449 465 l 186 465 z m 408 892 l 521 892 l 374 1110 l 283 1110 l 138 892 l 249 892 l 329 1018 z "},"ë":{"ha":628,"x_min":0,"x_max":0,"o":"m 576 251 l 576 267 l 446 267 l 446 239 b 322 104 446 161 418 104 b 186 264 224 104 186 158 l 186 357 l 576 357 l 576 539 b 324 811 576 688 507 811 b 61 528 158 811 61 704 l 61 261 b 321 -12 61 86 140 -12 b 576 251 529 -12 576 108 z m 186 533 b 324 697 186 642 232 697 b 449 544 417 697 449 644 l 449 465 l 186 465 z m 225 889 b 299 971 276 889 299 913 b 225 1051 299 1031 275 1051 b 153 971 176 1051 153 1031 b 225 889 153 908 172 889 z m 429 889 b 501 971 478 889 501 913 b 429 1051 501 1031 478 1051 b 356 971 379 1051 356 1031 b 429 889 356 908 375 889 z "},"ė":{"ha":628,"x_min":0,"x_max":0,"o":"m 576 251 l 576 267 l 446 267 l 446 239 b 322 104 446 161 418 104 b 186 264 224 104 186 158 l 186 357 l 576 357 l 576 539 b 324 811 576 688 507 811 b 61 528 158 811 61 704 l 61 261 b 321 -12 61 86 140 -12 b 576 251 529 -12 576 108 z m 186 533 b 324 697 186 642 232 697 b 449 544 417 697 449 644 l 449 465 l 186 465 z m 335 890 b 415 981 389 890 415 915 b 335 1071 415 1047 388 1071 b 251 981 279 1071 251 1047 b 335 890 251 913 274 890 z "},"è":{"ha":628,"x_min":0,"x_max":0,"o":"m 576 251 l 576 267 l 446 267 l 446 239 b 322 104 446 161 418 104 b 186 264 224 104 186 158 l 186 357 l 576 357 l 576 539 b 324 811 576 688 507 811 b 61 528 158 811 61 704 l 61 261 b 321 -12 61 86 140 -12 b 576 251 529 -12 576 108 z m 186 533 b 324 697 186 642 232 697 b 449 544 417 697 449 644 l 449 465 l 186 465 z m 289 892 l 388 892 l 261 1110 l 124 1110 z "},"ē":{"ha":628,"x_min":0,"x_max":0,"o":"m 576 251 l 576 267 l 446 267 l 446 239 b 322 104 446 161 418 104 b 186 264 224 104 186 158 l 186 357 l 576 357 l 576 539 b 324 811 576 688 507 811 b 61 528 158 811 61 704 l 61 261 b 321 -12 61 86 140 -12 b 576 251 529 -12 576 108 z m 186 533 b 324 697 186 642 232 697 b 449 544 417 697 449 644 l 449 465 l 186 465 z m 176 900 l 497 900 l 497 1000 l 176 1000 z "},"ę":{"ha":628,"x_min":0,"x_max":0,"o":"m 400 -251 b 588 -112 497 -251 560 -208 l 472 -112 b 407 -167 464 -146 440 -167 b 347 -118 369 -167 347 -150 b 476 19 347 -78 375 -51 l 474 21 b 576 251 554 67 576 154 l 576 267 l 446 267 l 446 239 b 322 104 446 161 418 104 b 186 264 224 104 186 158 l 186 357 l 576 357 l 576 539 b 324 811 576 688 507 811 b 61 528 158 811 61 704 l 61 261 b 294 -11 61 94 132 -3 b 243 -126 256 -51 243 -89 b 400 -251 243 -210 301 -251 z m 186 533 b 324 697 186 642 232 697 b 449 544 417 697 449 644 l 449 465 l 186 465 z "},"ğ":{"ha":614,"x_min":0,"x_max":0,"o":"m 294 -271 b 604 -64 525 -271 604 -174 l 604 -61 b 385 114 604 43 542 114 l 251 114 b 151 160 175 113 151 129 b 289 211 151 196 185 211 l 310 211 b 558 428 461 211 558 292 l 558 592 b 406 782 558 692 503 767 b 383 785 397 783 390 785 b 551 872 515 788 551 808 l 551 901 l 408 901 l 408 896 b 276 808 408 822 381 829 l 256 804 b 64 586 133 781 64 703 l 64 425 b 174 250 64 335 100 278 b 36 124 82 233 36 192 b 179 3 36 53 82 8 b 35 -135 90 -19 35 -72 b 264 -271 35 -218 103 -271 z m 308 308 b 196 426 235 308 196 349 l 196 588 b 271 707 196 646 219 690 b 314 713 283 711 299 713 b 426 590 394 713 426 660 l 426 428 b 308 308 426 354 388 308 z m 274 -162 b 161 -97 203 -162 161 -137 l 161 -94 b 276 1 161 -46 210 -8 l 367 1 b 478 -71 446 1 478 -31 l 478 -74 b 315 -162 478 -124 428 -162 z m 285 915 b 485 1136 424 915 485 993 l 388 1136 b 286 1006 388 1046 357 1007 b 185 1136 214 1007 185 1046 l 89 1136 b 285 915 89 992 135 915 z "},"ĝ":{"ha":614,"x_min":0,"x_max":0,"o":"m 383 954 l 496 954 l 349 1172 l 258 1172 l 113 954 l 224 954 l 304 1081 z m 294 -271 b 604 -64 525 -271 604 -174 l 604 -61 b 385 114 604 43 542 114 l 251 114 b 151 160 175 113 151 129 b 289 211 151 196 185 211 l 310 211 b 558 428 461 211 558 292 l 558 592 b 406 782 558 692 503 767 b 383 785 397 783 390 785 b 551 872 515 788 551 808 l 551 901 l 408 901 l 408 896 b 276 808 408 822 381 829 l 256 804 b 64 586 133 781 64 703 l 64 425 b 174 250 64 335 100 278 b 36 124 82 233 36 192 b 179 3 36 53 82 8 b 35 -135 90 -19 35 -72 b 264 -271 35 -218 103 -271 z m 308 308 b 196 426 235 308 196 349 l 196 588 b 271 707 196 646 219 690 b 314 713 283 711 299 713 b 426 590 394 713 426 660 l 426 428 b 308 308 426 354 388 308 z m 274 -162 b 161 -97 203 -162 161 -137 l 161 -94 b 276 1 161 -46 210 -8 l 367 1 b 478 -71 446 1 478 -31 l 478 -74 b 315 -162 478 -124 428 -162 z "},"ģ":{"ha":614,"x_min":0,"x_max":0,"o":"m 301 907 b 379 988 354 907 379 928 b 317 1060 379 1049 358 1060 b 301 1058 311 1060 307 1060 b 365 1139 307 1104 325 1132 l 365 1208 b 224 1017 267 1194 224 1119 b 301 907 224 936 244 907 z m 294 -271 b 604 -64 525 -271 604 -174 l 604 -61 b 385 114 604 43 542 114 l 251 114 b 151 160 175 113 151 129 b 289 211 151 196 185 211 l 310 211 b 558 428 461 211 558 292 l 558 592 b 406 782 558 692 503 767 b 383 785 397 783 390 785 b 551 872 515 788 551 808 l 551 901 l 408 901 l 408 896 b 276 808 408 822 381 829 l 256 804 b 64 586 133 781 64 703 l 64 425 b 174 250 64 335 100 278 b 36 124 82 233 36 192 b 179 3 36 53 82 8 b 35 -135 90 -19 35 -72 b 264 -271 35 -218 103 -271 z m 308 308 b 196 426 235 308 196 349 l 196 588 b 271 707 196 646 219 690 b 314 713 283 711 299 713 b 426 590 394 713 426 660 l 426 428 b 308 308 426 354 388 308 z m 274 -162 b 161 -97 203 -162 161 -137 l 161 -94 b 276 1 161 -46 210 -8 l 367 1 b 478 -71 446 1 478 -31 l 478 -74 b 315 -162 478 -124 428 -162 z "},"ġ":{"ha":614,"x_min":0,"x_max":0,"o":"m 318 925 b 399 1015 372 925 399 950 b 318 1106 399 1082 371 1106 b 235 1015 263 1106 235 1082 b 318 925 235 947 257 925 z m 294 -271 b 604 -64 525 -271 604 -174 l 604 -61 b 385 114 604 43 542 114 l 251 114 b 151 160 175 113 151 129 b 289 211 151 196 185 211 l 310 211 b 558 428 461 211 558 292 l 558 592 b 406 782 558 692 503 767 b 383 785 397 783 390 785 b 551 872 515 788 551 808 l 551 901 l 408 901 l 408 896 b 276 808 408 822 381 829 l 256 804 b 64 586 133 781 64 703 l 64 425 b 174 250 64 335 100 278 b 36 124 82 233 36 192 b 179 3 36 53 82 8 b 35 -135 90 -19 35 -72 b 264 -271 35 -218 103 -271 z m 308 308 b 196 426 235 308 196 349 l 196 588 b 271 707 196 646 219 690 b 314 713 283 711 299 713 b 426 590 394 713 426 660 l 426 428 b 308 308 426 354 388 308 z m 274 -162 b 161 -97 203 -162 161 -137 l 161 -94 b 276 1 161 -46 210 -8 l 367 1 b 478 -71 446 1 478 -31 l 478 -74 b 315 -162 478 -124 428 -162 z "},"ß":{"ha":676,"x_min":0,"x_max":0,"o":"m 207 804 b 336 928 207 881 244 928 b 464 810 419 928 464 889 l 464 746 b 336 607 464 654 428 607 l 310 607 l 310 493 l 336 493 b 481 347 435 493 481 449 l 481 267 b 349 122 481 169 449 122 l 308 122 l 308 0 l 369 0 b 615 256 574 0 615 110 l 615 349 b 482 551 615 460 578 526 b 589 750 569 583 589 657 l 589 817 b 336 1046 589 961 507 1046 b 79 810 167 1046 79 953 l 79 0 l 207 0 z "},"ħ":{"ha":649,"x_min":0,"x_max":0,"o":"m 204 521 b 333 694 204 632 247 694 b 444 543 417 694 444 640 l 444 0 l 575 0 l 575 561 b 379 810 575 721 510 810 b 204 672 285 810 229 757 l 204 867 l 296 867 l 296 947 l 204 947 l 204 1024 l 79 1024 l 79 947 l 0 947 l 0 867 l 79 867 l 79 0 l 204 0 z "},"ĥ":{"ha":649,"x_min":0,"x_max":0,"o":"m 204 521 b 333 694 204 632 247 694 b 444 543 417 694 444 640 l 444 0 l 575 0 l 575 561 b 379 810 575 721 510 810 b 204 672 285 810 229 757 l 204 1024 l 79 1024 l 79 0 l 204 0 z m 219 1107 l 332 1107 l 185 1325 l 94 1325 l -51 1107 l 60 1107 l 140 1233 z "},"í":{"ha":288,"x_min":0,"x_max":0,"o":"m 208 0 l 208 800 l 79 800 l 79 0 z m 92 883 l 192 883 l 371 1101 l 232 1101 z "},"ĭ":{"ha":288,"x_min":0,"x_max":0,"o":"m 208 0 l 208 800 l 79 800 l 79 0 z m 142 882 b 342 1103 281 882 342 960 l 244 1103 b 143 972 244 1013 214 974 b 42 1103 71 974 42 1013 l -54 1103 b 142 882 -54 958 -8 882 z "},"î":{"ha":288,"x_min":0,"x_max":0,"o":"m 208 0 l 208 800 l 79 800 l 79 0 z m 219 883 l 332 883 l 185 1101 l 94 1101 l -51 883 l 60 883 l 140 1010 z "},"ï":{"ha":288,"x_min":0,"x_max":0,"o":"m 208 0 l 208 800 l 79 800 l 79 0 z m 38 881 b 111 963 89 881 111 904 b 38 1043 111 1022 88 1043 b -35 963 -11 1043 -35 1022 b 38 881 -35 900 -15 881 z m 242 881 b 314 963 290 881 314 904 b 242 1043 314 1022 290 1043 b 168 963 192 1043 168 1022 b 242 881 168 900 188 881 z "},"ì":{"ha":288,"x_min":0,"x_max":0,"o":"m 208 0 l 208 800 l 79 800 l 79 0 z m 96 883 l 194 883 l 68 1101 l -69 1101 z "},"ī":{"ha":288,"x_min":0,"x_max":0,"o":"m 208 0 l 208 800 l 79 800 l 79 0 z m -17 892 l 304 892 l 304 992 l -17 992 z "},"į":{"ha":288,"x_min":0,"x_max":0,"o":"m 147 869 b 231 963 204 869 231 893 b 147 1056 231 1033 206 1056 b 64 963 89 1056 64 1033 b 147 869 64 892 85 869 z m 319 -132 l 204 -132 b 139 -186 196 -165 172 -186 b 79 -137 101 -186 79 -169 b 208 0 79 -97 107 -71 l 208 800 l 79 800 l 79 11 b -25 -146 -3 -44 -25 -94 b 132 -271 -25 -229 33 -271 b 319 -132 229 -271 292 -228 z "},"ĩ":{"ha":288,"x_min":0,"x_max":0,"o":"m 208 0 l 208 800 l 79 800 l 79 0 z m -62 886 l 28 886 b 64 963 28 943 39 963 b 236 881 114 963 147 881 b 363 1054 332 881 363 947 l 274 1054 b 233 978 274 992 263 978 b 63 1060 188 978 149 1060 b -62 886 -29 1060 -61 996 z "},"ı":{"ha":288,"x_min":0,"x_max":0,"o":"m 208 0 l 208 800 l 79 800 l 79 0 z "},"ĵ":{"ha":288,"x_min":0,"x_max":0,"o":"m -39 -260 l 10 -260 b 208 -53 171 -260 208 -214 l 208 800 l 81 800 l 81 -39 b -1 -135 81 -121 67 -135 l -39 -135 z m 221 883 l 333 883 l 186 1101 l 96 1101 l -50 883 l 61 883 l 142 1010 z "},"ȷ":{"ha":288,"x_min":0,"x_max":0,"o":"m -39 -260 l 10 -260 b 208 -53 171 -260 208 -214 l 208 800 l 81 800 l 81 -39 b -1 -135 81 -121 67 -135 l -39 -135 z "},"ķ":{"ha":618,"x_min":0,"x_max":0,"o":"m 467 0 l 604 0 l 394 503 l 594 800 l 447 800 l 219 450 l 200 406 l 204 467 l 204 1024 l 79 1024 l 79 0 l 204 0 l 204 281 l 299 425 z m 265 -356 b 406 -164 363 -342 406 -267 b 328 -54 406 -83 386 -54 b 251 -135 275 -54 251 -75 b 314 -207 251 -196 271 -207 b 328 -206 319 -207 324 -207 b 265 -286 324 -251 304 -279 z "},"ĸ":{"ha":618,"x_min":0,"x_max":0,"o":"m 467 0 l 604 0 l 394 503 l 594 800 l 447 800 l 219 450 l 200 406 l 204 467 l 204 800 l 79 800 l 79 0 l 204 0 l 204 281 l 299 425 z "},"ĺ":{"ha":286,"x_min":0,"x_max":0,"o":"m 207 0 l 207 1024 l 79 1024 l 79 0 z m 92 1107 l 192 1107 l 371 1325 l 232 1325 z "},"ľ":{"ha":286,"x_min":0,"x_max":0,"o":"m 207 0 l 207 1024 l 79 1024 l 79 0 z m 276 899 l 360 899 l 425 1111 l 315 1111 z "},"ļ":{"ha":286,"x_min":0,"x_max":0,"o":"m 207 0 l 207 1024 l 79 1024 l 79 0 z m 81 -378 b 221 -186 178 -364 221 -289 b 143 -76 221 -106 201 -76 b 67 -157 90 -76 67 -97 b 129 -229 67 -218 86 -229 b 143 -228 135 -229 139 -229 b 81 -308 139 -274 119 -301 z "},"ŀ":{"ha":428,"x_min":0,"x_max":0,"o":"m 207 0 l 207 1024 l 79 1024 l 79 0 z m 354 293 b 435 383 408 293 435 318 b 354 474 435 450 407 474 b 271 383 299 474 271 450 b 354 293 271 315 293 293 z "},"ł":{"ha":310,"x_min":0,"x_max":0,"o":"m 221 0 l 221 415 l 317 446 l 293 521 l 221 499 l 221 1024 l 93 1024 l 93 458 l -3 428 l 21 353 l 93 375 l 93 0 z "},"ń":{"ha":649,"x_min":0,"x_max":0,"o":"m 207 521 b 336 694 207 632 250 694 b 447 543 419 694 447 640 l 447 0 l 578 0 l 578 561 b 378 810 578 721 513 810 b 199 664 281 810 222 756 l 183 800 l 78 800 l 78 0 l 207 0 z m 278 889 l 378 889 l 557 1107 l 418 1107 z "},"ň":{"ha":649,"x_min":0,"x_max":0,"o":"m 207 521 b 336 694 207 632 250 694 b 447 543 419 694 447 640 l 447 0 l 578 0 l 578 561 b 378 810 578 721 513 810 b 199 664 281 810 222 756 l 183 800 l 78 800 l 78 0 l 207 0 z m 371 889 l 515 1107 l 406 1107 l 326 985 l 247 1107 l 135 1107 l 281 889 z "},"ņ":{"ha":649,"x_min":0,"x_max":0,"o":"m 207 521 b 336 694 207 632 250 694 b 447 543 419 694 447 640 l 447 0 l 578 0 l 578 561 b 378 810 578 721 513 810 b 199 664 281 810 222 756 l 183 800 l 78 800 l 78 0 l 207 0 z m 263 -358 b 403 -167 360 -344 403 -269 b 325 -57 403 -86 383 -57 b 249 -137 272 -57 249 -78 b 311 -210 249 -199 268 -210 b 325 -208 317 -210 321 -210 b 263 -289 321 -254 301 -282 z "},"ñ":{"ha":649,"x_min":0,"x_max":0,"o":"m 207 521 b 336 694 207 632 250 694 b 447 543 419 694 447 640 l 447 0 l 578 0 l 578 561 b 378 810 578 721 513 810 b 199 664 281 810 222 756 l 183 800 l 78 800 l 78 0 l 207 0 z m 129 892 l 219 892 b 256 968 219 949 231 968 b 428 886 306 968 339 886 b 554 1060 524 886 554 953 l 465 1060 b 425 983 465 997 454 983 b 254 1065 379 983 340 1065 b 129 892 163 1065 131 1001 z "},"ŋ":{"ha":651,"x_min":0,"x_max":0,"o":"m 376 -260 b 578 -53 538 -260 578 -218 l 578 561 b 378 810 578 721 513 810 b 199 664 281 810 222 756 l 183 800 l 78 800 l 78 0 l 207 0 l 207 521 b 336 694 207 632 250 694 b 447 543 419 694 447 640 l 447 -39 b 365 -135 447 -121 433 -135 l 328 -135 l 328 -260 z "},"ó":{"ha":642,"x_min":0,"x_max":0,"o":"m 321 -12 b 581 263 482 -12 581 82 l 581 532 b 321 811 581 714 481 811 b 61 532 164 811 61 715 l 61 263 b 321 -12 61 81 150 -12 z m 321 104 b 193 265 235 104 193 163 l 193 531 b 321 697 193 642 238 697 b 449 531 406 697 449 639 l 449 265 b 321 104 449 161 407 104 z m 274 893 l 374 893 l 553 1111 l 414 1111 z "},"ŏ":{"ha":642,"x_min":0,"x_max":0,"o":"m 321 -12 b 581 263 482 -12 581 82 l 581 532 b 321 811 581 714 481 811 b 61 532 164 811 61 715 l 61 263 b 321 -12 61 81 150 -12 z m 321 104 b 193 265 235 104 193 163 l 193 531 b 321 697 193 642 238 697 b 449 531 406 697 449 639 l 449 265 b 321 104 449 161 407 104 z m 322 892 b 522 1113 461 892 522 969 l 425 1113 b 324 982 425 1022 394 983 b 222 1113 251 983 222 1022 l 126 1113 b 322 892 126 968 172 892 z "},"ô":{"ha":642,"x_min":0,"x_max":0,"o":"m 321 -12 b 581 263 482 -12 581 82 l 581 532 b 321 811 581 714 481 811 b 61 532 164 811 61 715 l 61 263 b 321 -12 61 81 150 -12 z m 321 104 b 193 265 235 104 193 163 l 193 531 b 321 697 193 642 238 697 b 449 531 406 697 449 639 l 449 265 b 321 104 449 161 407 104 z m 404 893 l 517 893 l 369 1111 l 279 1111 l 133 893 l 244 893 l 325 1019 z "},"ö":{"ha":642,"x_min":0,"x_max":0,"o":"m 321 -12 b 581 263 482 -12 581 82 l 581 532 b 321 811 581 714 481 811 b 61 532 164 811 61 715 l 61 263 b 321 -12 61 81 150 -12 z m 321 104 b 193 265 235 104 193 163 l 193 531 b 321 697 193 642 238 697 b 449 531 406 697 449 639 l 449 265 b 321 104 449 161 407 104 z m 224 890 b 297 972 275 890 297 914 b 224 1053 297 1032 274 1053 b 151 972 175 1053 151 1032 b 224 890 151 910 171 890 z m 428 890 b 500 972 476 890 500 914 b 428 1053 500 1032 476 1053 b 354 972 378 1053 354 1032 b 428 890 354 910 374 890 z "},"œ":{"ha":1025,"x_min":0,"x_max":0,"o":"m 972 242 l 972 267 l 842 267 l 842 238 b 710 104 842 160 807 104 b 575 268 617 104 575 163 l 575 351 l 972 351 l 972 539 b 724 811 972 688 899 811 b 515 700 618 811 551 771 b 314 811 481 774 417 811 b 61 532 163 811 61 715 l 61 263 b 311 -12 61 81 147 -12 b 511 89 413 -12 476 22 b 719 -12 546 24 610 -12 b 972 242 901 -12 972 99 z m 575 533 b 715 697 575 642 624 697 b 846 544 807 697 846 644 l 846 460 l 575 460 z m 321 104 b 193 265 235 104 193 163 l 193 531 b 321 697 193 642 238 697 b 449 531 406 697 449 639 l 449 265 b 321 104 449 161 407 104 z "},"ò":{"ha":642,"x_min":0,"x_max":0,"o":"m 321 -12 b 581 263 482 -12 581 82 l 581 532 b 321 811 581 714 481 811 b 61 532 164 811 61 715 l 61 263 b 321 -12 61 81 150 -12 z m 321 104 b 193 265 235 104 193 163 l 193 531 b 321 697 193 642 238 697 b 449 531 406 697 449 639 l 449 265 b 321 104 449 161 407 104 z m 276 893 l 375 893 l 249 1111 l 111 1111 z "},"ő":{"ha":642,"x_min":0,"x_max":0,"o":"m 321 -12 b 581 263 482 -12 581 82 l 581 532 b 321 811 581 714 481 811 b 61 532 164 811 61 715 l 61 263 b 321 -12 61 81 150 -12 z m 321 104 b 193 265 235 104 193 163 l 193 531 b 321 697 193 642 238 697 b 449 531 406 697 449 639 l 449 265 b 321 104 449 161 407 104 z m 633 1111 l 501 1111 l 372 893 l 464 893 z m 442 1111 l 311 1111 l 185 893 l 276 893 z "},"ō":{"ha":642,"x_min":0,"x_max":0,"o":"m 321 -12 b 581 263 482 -12 581 82 l 581 532 b 321 811 581 714 481 811 b 61 532 164 811 61 715 l 61 263 b 321 -12 61 81 150 -12 z m 321 104 b 193 265 235 104 193 163 l 193 531 b 321 697 193 642 238 697 b 449 531 406 697 449 639 l 449 265 b 321 104 449 161 407 104 z m 164 901 l 485 901 l 485 1001 l 164 1001 z "},"ø":{"ha":642,"x_min":0,"x_max":0,"o":"m 192 265 l 192 531 b 321 697 192 642 238 697 b 353 694 332 697 343 696 l 215 158 b 192 265 200 186 192 221 z m 321 104 b 288 107 310 104 299 106 l 425 643 b 450 531 442 615 450 578 l 450 265 b 321 104 450 161 407 104 z m 321 -12 b 581 263 482 -12 581 82 l 581 532 b 461 778 581 653 538 736 l 499 911 l 413 911 l 383 806 b 321 811 364 810 343 811 b 61 532 164 811 61 715 l 61 263 b 178 18 61 140 101 58 l 139 -125 l 229 -125 l 258 -8 b 321 -12 278 -11 299 -12 z "},"ǿ":{"ha":642,"x_min":0,"x_max":0,"o":"m 192 265 l 192 531 b 321 697 192 642 238 697 b 353 694 332 697 343 696 l 215 158 b 192 265 200 186 192 221 z m 321 104 b 288 107 310 104 299 106 l 425 643 b 450 531 442 615 450 578 l 450 265 b 321 104 450 161 407 104 z m 321 -12 b 581 263 482 -12 581 82 l 581 532 b 461 778 581 653 538 736 l 499 911 l 413 911 l 383 806 b 321 811 364 810 343 811 b 61 532 164 811 61 715 l 61 263 b 178 18 61 140 101 58 l 139 -125 l 229 -125 l 258 -8 b 321 -12 278 -11 299 -12 z m 276 936 l 376 936 l 556 1154 l 417 1154 z "},"õ":{"ha":642,"x_min":0,"x_max":0,"o":"m 321 -12 b 581 263 482 -12 581 82 l 581 532 b 321 811 581 714 481 811 b 61 532 164 811 61 715 l 61 263 b 321 -12 61 81 150 -12 z m 321 104 b 193 265 235 104 193 163 l 193 531 b 321 697 193 642 238 697 b 449 531 406 697 449 639 l 449 265 b 321 104 449 161 407 104 z m 111 896 l 201 896 b 238 972 201 953 213 972 b 410 890 288 972 321 890 b 536 1064 506 890 536 957 l 447 1064 b 407 988 447 1001 436 988 b 236 1069 361 988 322 1069 b 111 896 144 1069 113 1006 z "},"ŕ":{"ha":428,"x_min":0,"x_max":0,"o":"m 206 0 l 206 475 b 360 665 206 611 233 665 l 404 665 l 404 806 l 379 806 b 199 649 263 806 213 778 l 178 800 l 78 800 l 78 0 z m 178 872 l 278 872 l 457 1090 l 318 1090 z "},"ř":{"ha":428,"x_min":0,"x_max":0,"o":"m 206 0 l 206 475 b 360 665 206 611 233 665 l 404 665 l 404 806 l 379 806 b 199 649 263 806 213 778 l 178 800 l 78 800 l 78 0 z m 271 872 l 415 1090 l 306 1090 l 226 968 l 147 1090 l 35 1090 l 181 872 z "},"ŗ":{"ha":428,"x_min":0,"x_max":0,"o":"m 206 0 l 206 475 b 360 665 206 611 233 665 l 404 665 l 404 806 l 379 806 b 199 649 263 806 213 778 l 178 800 l 78 800 l 78 0 z m 76 -378 b 217 -186 174 -364 217 -289 b 139 -76 217 -106 197 -76 b 63 -157 86 -76 63 -97 b 125 -229 63 -218 82 -229 b 139 -228 131 -229 135 -229 b 76 -308 135 -274 115 -301 z "},"ś":{"ha":575,"x_min":0,"x_max":0,"o":"m 290 -12 b 535 210 451 -12 535 72 l 535 239 b 333 464 535 382 429 426 b 179 589 253 494 179 519 l 179 603 b 286 701 179 658 213 701 b 394 600 363 701 394 663 l 394 542 l 522 542 l 522 601 b 286 811 522 729 443 811 b 51 601 132 811 51 722 l 51 582 b 247 365 51 446 153 401 b 407 229 331 333 407 308 l 407 210 b 293 101 407 142 367 101 b 175 217 208 101 175 138 l 175 289 l 39 289 l 39 208 b 290 -12 39 60 117 -12 z m 236 893 l 336 893 l 515 1111 l 376 1111 z "},"š":{"ha":575,"x_min":0,"x_max":0,"o":"m 290 -12 b 535 210 451 -12 535 72 l 535 239 b 333 464 535 382 429 426 b 179 589 253 494 179 519 l 179 603 b 286 701 179 658 213 701 b 394 600 363 701 394 663 l 394 542 l 522 542 l 522 601 b 286 811 522 729 443 811 b 51 601 132 811 51 722 l 51 582 b 247 365 51 446 153 401 b 407 229 331 333 407 308 l 407 210 b 293 101 407 142 367 101 b 175 217 208 101 175 138 l 175 289 l 39 289 l 39 208 b 290 -12 39 60 117 -12 z m 329 893 l 474 1111 l 364 1111 l 285 989 l 206 1111 l 93 1111 l 239 893 z "},"ş":{"ha":575,"x_min":0,"x_max":0,"o":"m 313 -339 b 490 -199 424 -339 490 -290 b 347 -79 490 -126 440 -82 l 347 -8 b 535 210 471 10 535 89 l 535 239 b 333 464 535 382 429 426 b 179 589 253 494 179 519 l 179 603 b 286 701 179 658 213 701 b 394 600 363 701 394 663 l 394 542 l 522 542 l 522 601 b 286 811 522 729 443 811 b 51 601 132 811 51 722 l 51 582 b 247 365 51 446 153 401 b 407 229 331 333 407 308 l 407 210 b 293 101 407 142 367 101 b 175 217 208 101 175 138 l 175 289 l 39 289 l 39 208 b 253 -11 39 71 106 -1 l 253 -153 l 308 -153 b 388 -201 365 -153 388 -172 b 313 -257 388 -237 363 -257 b 231 -194 264 -257 235 -235 l 118 -194 b 313 -339 132 -286 181 -339 z "},"ŝ":{"ha":575,"x_min":0,"x_max":0,"o":"m 290 -12 b 535 210 451 -12 535 72 l 535 239 b 333 464 535 382 429 426 b 179 589 253 494 179 519 l 179 603 b 286 701 179 658 213 701 b 394 600 363 701 394 663 l 394 542 l 522 542 l 522 601 b 286 811 522 729 443 811 b 51 601 132 811 51 722 l 51 582 b 247 365 51 446 153 401 b 407 229 331 333 407 308 l 407 210 b 293 101 407 142 367 101 b 175 217 208 101 175 138 l 175 289 l 39 289 l 39 208 b 290 -12 39 60 117 -12 z m 367 893 l 479 893 l 332 1111 l 242 1111 l 96 893 l 207 893 l 288 1019 z "},"ș":{"ha":575,"x_min":0,"x_max":0,"o":"m 290 -12 b 535 210 451 -12 535 72 l 535 239 b 333 464 535 382 429 426 b 179 589 253 494 179 519 l 179 603 b 286 701 179 658 213 701 b 394 600 363 701 394 663 l 394 542 l 522 542 l 522 601 b 286 811 522 729 443 811 b 51 601 132 811 51 722 l 51 582 b 247 365 51 446 153 401 b 407 229 331 333 407 308 l 407 210 b 293 101 407 142 367 101 b 175 217 208 101 175 138 l 175 289 l 39 289 l 39 208 b 290 -12 39 60 117 -12 z m 226 -385 b 367 -193 324 -371 367 -296 b 289 -83 367 -112 347 -83 b 213 -164 236 -83 213 -104 b 275 -236 213 -225 232 -236 b 289 -235 281 -236 285 -236 b 226 -315 285 -281 265 -308 z "},"ŧ":{"ha":424,"x_min":0,"x_max":0,"o":"m 393 125 l 354 125 b 244 258 264 125 244 142 l 244 356 l 331 356 l 331 461 l 244 461 l 244 679 l 393 679 l 393 800 l 244 800 l 244 957 l 149 957 b 132 856 144 911 142 885 b 88 803 122 828 107 811 b 21 792 68 794 49 792 l 21 679 l 122 679 l 122 461 l 39 461 l 39 356 l 122 356 l 122 246 b 325 0 122 51 168 0 l 393 0 z "},"ť":{"ha":424,"x_min":0,"x_max":0,"o":"m 393 125 l 354 125 b 244 258 264 125 244 142 l 244 679 l 393 679 l 393 800 l 244 800 l 244 957 l 149 957 b 132 856 144 911 142 885 b 88 803 122 828 107 811 b 21 792 68 794 49 792 l 21 679 l 122 679 l 122 246 b 325 0 122 51 168 0 l 393 0 z m 324 899 l 407 899 l 472 1111 l 363 1111 z "},"ţ":{"ha":428,"x_min":0,"x_max":0,"o":"m 393 125 l 354 125 b 244 258 264 125 244 142 l 244 679 l 393 679 l 393 800 l 244 800 l 244 957 l 149 957 b 132 856 144 911 142 885 b 88 803 122 828 107 811 b 21 792 68 794 49 792 l 21 679 l 122 679 l 122 246 b 325 0 122 51 168 0 l 393 0 z m 203 -375 b 343 -183 300 -361 343 -286 b 265 -74 343 -103 324 -74 b 189 -154 213 -74 189 -94 b 251 -226 189 -215 208 -226 b 265 -225 257 -226 261 -226 b 203 -306 261 -271 242 -299 z "},"ú":{"ha":636,"x_min":0,"x_max":0,"o":"m 453 0 l 558 0 l 558 800 l 428 800 l 428 279 b 310 104 428 171 390 104 b 204 254 231 104 204 160 l 204 800 l 74 800 l 74 233 b 267 -11 74 74 133 -11 b 438 139 363 -11 417 44 z m 261 875 l 361 875 l 540 1093 l 401 1093 z "},"ŭ":{"ha":636,"x_min":0,"x_max":0,"o":"m 453 0 l 558 0 l 558 800 l 428 800 l 428 279 b 310 104 428 171 390 104 b 204 254 231 104 204 160 l 204 800 l 74 800 l 74 233 b 267 -11 74 74 133 -11 b 438 139 363 -11 417 44 z m 315 874 b 515 1094 454 874 515 951 l 418 1094 b 317 964 418 1004 388 965 b 215 1094 244 965 215 1004 l 119 1094 b 315 874 119 950 165 874 z "},"û":{"ha":636,"x_min":0,"x_max":0,"o":"m 453 0 l 558 0 l 558 800 l 428 800 l 428 279 b 310 104 428 171 390 104 b 204 254 231 104 204 160 l 204 800 l 74 800 l 74 233 b 267 -11 74 74 133 -11 b 438 139 363 -11 417 44 z m 392 875 l 504 875 l 357 1093 l 267 1093 l 121 875 l 232 875 l 313 1001 z "},"ü":{"ha":636,"x_min":0,"x_max":0,"o":"m 453 0 l 558 0 l 558 800 l 428 800 l 428 279 b 310 104 428 171 390 104 b 204 254 231 104 204 160 l 204 800 l 74 800 l 74 233 b 267 -11 74 74 133 -11 b 438 139 363 -11 417 44 z m 211 872 b 285 954 263 872 285 896 b 211 1035 285 1014 261 1035 b 139 954 163 1035 139 1014 b 211 872 139 892 158 872 z m 415 872 b 488 954 464 872 488 896 b 415 1035 488 1014 464 1035 b 342 954 365 1035 342 1014 b 415 872 342 892 361 872 z "},"ù":{"ha":636,"x_min":0,"x_max":0,"o":"m 453 0 l 558 0 l 558 800 l 428 800 l 428 279 b 310 104 428 171 390 104 b 204 254 231 104 204 160 l 204 800 l 74 800 l 74 233 b 267 -11 74 74 133 -11 b 438 139 363 -11 417 44 z m 264 875 l 363 875 l 236 1093 l 99 1093 z "},"ű":{"ha":636,"x_min":0,"x_max":0,"o":"m 453 0 l 558 0 l 558 800 l 428 800 l 428 279 b 310 104 428 171 390 104 b 204 254 231 104 204 160 l 204 800 l 74 800 l 74 233 b 267 -11 74 74 133 -11 b 438 139 363 -11 417 44 z m 621 1093 l 489 1093 l 360 875 l 451 875 z m 429 1093 l 299 1093 l 172 875 l 264 875 z "},"ū":{"ha":636,"x_min":0,"x_max":0,"o":"m 453 0 l 558 0 l 558 800 l 428 800 l 428 279 b 310 104 428 171 390 104 b 204 254 231 104 204 160 l 204 800 l 74 800 l 74 233 b 267 -11 74 74 133 -11 b 438 139 363 -11 417 44 z m 151 883 l 472 883 l 472 983 l 151 983 z "},"ų":{"ha":636,"x_min":0,"x_max":0,"o":"m 669 -132 l 554 -132 b 489 -186 546 -165 522 -186 b 429 -137 451 -186 429 -169 b 558 0 429 -97 457 -71 l 558 800 l 428 800 l 428 279 b 310 104 428 171 390 104 b 204 254 231 104 204 160 l 204 800 l 74 800 l 74 233 b 267 -11 74 74 133 -11 b 438 139 363 -11 417 44 l 450 25 b 325 -146 350 -36 325 -90 b 482 -271 325 -229 383 -271 b 669 -132 579 -271 642 -228 z "},"ů":{"ha":636,"x_min":0,"x_max":0,"o":"m 453 0 l 558 0 l 558 800 l 428 800 l 428 279 b 310 104 428 171 390 104 b 204 254 231 104 204 160 l 204 800 l 74 800 l 74 233 b 267 -11 74 74 133 -11 b 438 139 363 -11 417 44 z m 315 878 b 467 1024 406 878 467 931 b 315 1169 467 1117 407 1169 b 167 1024 228 1169 167 1113 b 315 878 167 928 226 878 z m 315 965 b 258 1024 279 965 258 988 b 315 1085 258 1061 282 1085 b 375 1024 351 1085 375 1061 b 315 965 375 985 344 965 z "},"ũ":{"ha":636,"x_min":0,"x_max":0,"o":"m 453 0 l 558 0 l 558 800 l 428 800 l 428 279 b 310 104 428 171 390 104 b 204 254 231 104 204 160 l 204 800 l 74 800 l 74 233 b 267 -11 74 74 133 -11 b 438 139 363 -11 417 44 z m 114 883 l 204 883 b 240 960 204 940 215 960 b 413 878 290 960 324 878 b 539 1051 508 878 539 944 l 450 1051 b 410 975 450 989 439 975 b 239 1057 364 975 325 1057 b 114 883 147 1057 115 993 z "},"ẃ":{"ha":875,"x_min":0,"x_max":0,"o":"m 417 504 l 432 651 l 444 507 l 557 0 l 681 0 l 858 800 l 733 800 l 628 278 l 611 131 l 592 281 l 472 800 l 392 800 l 265 282 l 242 138 l 231 279 l 143 800 l 17 800 l 164 0 l 293 0 z m 374 883 l 474 883 l 653 1101 l 514 1101 z "},"ŵ":{"ha":875,"x_min":0,"x_max":0,"o":"m 417 504 l 432 651 l 444 507 l 557 0 l 681 0 l 858 800 l 733 800 l 628 278 l 611 131 l 592 281 l 472 800 l 392 800 l 265 282 l 242 138 l 231 279 l 143 800 l 17 800 l 164 0 l 293 0 z m 504 883 l 617 883 l 469 1101 l 379 1101 l 233 883 l 344 883 l 425 1010 z "},"ẅ":{"ha":875,"x_min":0,"x_max":0,"o":"m 417 504 l 432 651 l 444 507 l 557 0 l 681 0 l 858 800 l 733 800 l 628 278 l 611 131 l 592 281 l 472 800 l 392 800 l 265 282 l 242 138 l 231 279 l 143 800 l 17 800 l 164 0 l 293 0 z m 324 881 b 397 963 375 881 397 904 b 324 1043 397 1022 374 1043 b 251 963 275 1043 251 1022 b 324 881 251 900 271 881 z m 528 881 b 600 963 576 881 600 904 b 528 1043 600 1022 576 1043 b 454 963 478 1043 454 1022 b 528 881 454 900 474 881 z "},"ẁ":{"ha":875,"x_min":0,"x_max":0,"o":"m 417 504 l 432 651 l 444 507 l 557 0 l 681 0 l 858 800 l 733 800 l 628 278 l 611 131 l 592 281 l 472 800 l 392 800 l 265 282 l 242 138 l 231 279 l 143 800 l 17 800 l 164 0 l 293 0 z m 376 883 l 475 883 l 349 1101 l 211 1101 z "},"ý":{"ha":593,"x_min":0,"x_max":0,"o":"m 119 -235 b 351 -43 271 -235 308 -204 l 576 800 l 444 800 l 317 258 l 304 144 l 292 253 l 153 800 l 21 800 l 243 15 l 232 -26 b 113 -112 213 -103 192 -112 l 51 -112 l 51 -235 z m 244 871 l 344 871 l 524 1089 l 385 1089 z "},"ŷ":{"ha":593,"x_min":0,"x_max":0,"o":"m 119 -235 b 351 -43 271 -235 308 -204 l 576 800 l 444 800 l 317 258 l 304 144 l 292 253 l 153 800 l 21 800 l 243 15 l 232 -26 b 113 -112 213 -103 192 -112 l 51 -112 l 51 -235 z m 376 876 l 489 876 l 342 1094 l 251 1094 l 106 876 l 217 876 l 297 1003 z "},"ÿ":{"ha":593,"x_min":0,"x_max":0,"o":"m 119 -235 b 351 -43 271 -235 308 -204 l 576 800 l 444 800 l 317 258 l 304 144 l 292 253 l 153 800 l 21 800 l 243 15 l 232 -26 b 113 -112 213 -103 192 -112 l 51 -112 l 51 -235 z m 196 874 b 269 956 247 874 269 897 b 196 1036 269 1015 246 1036 b 124 956 147 1036 124 1015 b 196 874 124 893 143 874 z m 400 874 b 472 956 449 874 472 897 b 400 1036 472 1015 449 1036 b 326 956 350 1036 326 1015 b 400 874 326 893 346 874 z "},"ỳ":{"ha":593,"x_min":0,"x_max":0,"o":"m 119 -235 b 351 -43 271 -235 308 -204 l 576 800 l 444 800 l 317 258 l 304 144 l 292 253 l 153 800 l 21 800 l 243 15 l 232 -26 b 113 -112 213 -103 192 -112 l 51 -112 l 51 -235 z m 249 876 l 347 876 l 221 1094 l 83 1094 z "},"ĳ":{"ha":567,"x_min":0,"x_max":0,"o":"m 425 869 b 508 963 482 869 508 893 b 425 1056 508 1033 483 1056 b 342 963 367 1056 342 1033 b 425 869 342 892 364 869 z m 142 869 b 225 963 199 869 225 893 b 142 1056 225 1033 200 1056 b 58 963 83 1056 58 1033 b 142 869 58 892 81 869 z m 167 -247 l 289 -247 b 488 -42 450 -247 488 -203 l 488 801 b 425 797 485 799 433 797 b 360 801 415 797 364 799 l 360 -28 b 278 -124 360 -110 346 -124 l 167 -124 z m 75 0 l 207 0 l 207 801 b 142 797 203 799 151 797 b 75 801 132 797 79 799 z "},"ź":{"ha":531,"x_min":0,"x_max":0,"o":"m 42 -1 l 493 0 l 493 119 l 189 119 l 492 693 l 492 800 l 60 800 l 60 683 l 351 683 l 42 101 z m 225 883 l 325 883 l 504 1101 l 365 1101 z "},"ž":{"ha":531,"x_min":0,"x_max":0,"o":"m 42 -1 l 493 0 l 493 119 l 189 119 l 492 693 l 492 800 l 60 800 l 60 683 l 351 683 l 42 101 z m 318 883 l 463 1101 l 353 1101 l 274 979 l 194 1101 l 82 1101 l 228 883 z "},"ż":{"ha":531,"x_min":0,"x_max":0,"o":"m 42 -1 l 493 0 l 493 119 l 189 119 l 492 693 l 492 800 l 60 800 l 60 683 l 351 683 l 42 101 z m 275 882 b 356 972 329 882 356 907 b 275 1063 356 1039 328 1063 b 192 972 219 1063 192 1039 b 275 882 192 904 214 882 z "},"þ":{"ha":661,"x_min":0,"x_max":0,"o":"m 335 104 b 203 281 247 104 203 174 l 203 514 b 339 699 203 628 247 699 b 471 511 426 699 471 643 l 471 282 b 335 104 471 161 422 104 z m 376 -11 b 603 286 515 -11 603 82 l 603 507 b 378 811 603 721 518 811 b 206 690 288 811 233 764 l 206 1024 l 79 1024 l 79 -264 l 206 -264 l 206 101 b 376 -11 233 31 288 -11 z "},"ª":{"ha":475,"x_min":0,"x_max":0,"o":"m 222 521 b 168 578 186 521 168 546 l 168 590 b 189 647 168 615 175 629 b 247 685 201 663 222 675 b 318 726 288 700 308 711 l 318 643 b 222 521 318 567 283 521 z m 332 438 l 435 438 l 435 825 b 247 1003 435 946 372 1003 b 49 826 117 1003 49 936 l 49 786 l 167 786 l 167 824 b 247 904 167 879 196 904 b 318 831 300 904 318 879 l 318 829 b 225 754 318 797 299 782 b 93 692 163 731 129 717 b 36 576 58 668 36 625 l 36 564 b 168 431 36 483 76 431 b 318 522 242 431 292 465 z "},"º":{"ha":489,"x_min":0,"x_max":0,"o":"m 244 431 b 435 621 361 431 435 497 l 435 810 b 244 1003 435 935 357 1003 b 54 810 135 1003 54 936 l 54 621 b 244 431 54 496 121 431 z m 244 538 b 172 625 196 538 172 568 l 172 807 b 244 900 172 871 197 900 b 318 807 293 900 318 868 l 318 625 b 244 538 318 568 294 538 z "},"&":{"ha":824,"x_min":0,"x_max":0,"o":"m 307 772 l 307 779 b 397 903 307 858 338 903 b 482 814 454 903 482 872 l 482 810 b 335 593 482 717 432 658 b 307 772 317 658 307 718 z m 331 97 b 169 246 222 97 169 161 l 169 251 b 272 432 169 333 204 381 b 329 313 289 393 308 353 b 450 125 369 236 410 174 b 331 97 415 107 375 97 z m 694 -11 b 790 18 743 -11 769 -4 l 790 138 b 701 101 768 113 744 101 b 625 125 678 101 651 108 b 763 581 715 235 763 399 l 763 633 l 644 633 l 644 581 b 540 199 644 426 611 288 b 431 364 504 239 468 293 b 371 490 407 408 388 450 b 594 804 511 581 594 675 l 594 814 b 397 1003 594 935 521 1003 b 193 775 265 1003 193 915 l 193 768 b 235 536 193 699 208 619 b 42 247 124 461 42 385 l 42 233 b 331 -14 42 72 151 -14 b 535 44 408 -14 476 7 b 694 -11 586 7 639 -11 z "},"´":{"ha":589,"x_min":0,"x_max":0,"o":"m 213 883 l 313 883 l 492 1101 l 353 1101 z "},"˘":{"ha":589,"x_min":0,"x_max":0,"o":"m 292 882 b 492 1103 431 882 492 960 l 394 1103 b 293 972 394 1013 364 974 b 192 1103 221 974 192 1013 l 96 1103 b 292 882 96 958 142 882 z "},"ˇ":{"ha":589,"x_min":0,"x_max":0,"o":"m 339 883 l 483 1101 l 374 1101 l 294 979 l 215 1101 l 103 1101 l 249 883 z "},"¸":{"ha":589,"x_min":0,"x_max":0,"o":"m 293 -322 b 471 -182 404 -322 471 -274 b 328 -62 471 -110 421 -65 l 328 8 l 233 8 l 233 -136 l 289 -136 b 368 -185 346 -136 368 -156 b 293 -240 368 -221 343 -240 b 211 -178 244 -240 215 -218 l 99 -178 b 293 -322 113 -269 161 -322 z "},"ˆ":{"ha":589,"x_min":0,"x_max":0,"o":"m 374 883 l 486 883 l 339 1101 l 249 1101 l 103 883 l 214 883 l 294 1010 z "},"¨":{"ha":594,"x_min":0,"x_max":0,"o":"m 194 881 b 268 963 246 881 268 904 b 194 1043 268 1022 244 1043 b 122 963 146 1043 122 1022 b 194 881 122 900 142 881 z m 399 881 b 471 963 447 881 471 904 b 399 1043 471 1022 447 1043 b 325 963 349 1043 325 1022 b 399 881 325 900 344 881 z "},"˙":{"ha":593,"x_min":0,"x_max":0,"o":"m 286 882 b 367 972 340 882 367 907 b 286 1063 367 1039 339 1063 b 203 972 231 1063 203 1039 b 286 882 203 904 225 882 z "},"`":{"ha":589,"x_min":0,"x_max":0,"o":"m 308 883 l 407 883 l 281 1101 l 143 1101 z "},"˝":{"ha":589,"x_min":0,"x_max":0,"o":"m 525 1101 l 393 1101 l 264 883 l 356 883 z m 333 1101 l 203 1101 l 76 883 l 168 883 z "},"¯":{"ha":589,"x_min":0,"x_max":0,"o":"m 135 892 l 456 892 l 456 992 l 135 992 z "},"˛":{"ha":589,"x_min":0,"x_max":0,"o":"m 289 -271 b 476 -132 386 -271 449 -228 l 361 -132 b 296 -186 353 -165 329 -186 b 236 -137 258 -186 236 -169 b 365 0 236 -97 264 -71 l 288 43 b 132 -146 163 -26 132 -85 b 289 -271 132 -229 190 -271 z "},"˚":{"ha":589,"x_min":0,"x_max":0,"o":"m 292 889 b 443 1035 382 889 443 942 b 292 1181 443 1128 383 1181 b 143 1035 204 1181 143 1124 b 292 889 143 939 203 889 z m 292 976 b 235 1035 256 976 235 999 b 292 1096 235 1072 258 1096 b 351 1035 328 1096 351 1072 b 292 976 351 996 321 976 z "},"˜":{"ha":589,"x_min":0,"x_max":0,"o":"m 85 886 l 175 886 b 211 963 175 943 186 963 b 383 881 261 963 294 881 b 510 1054 479 881 510 947 l 421 1054 b 381 978 421 992 410 978 b 210 1060 335 978 296 1060 b 85 886 118 1060 86 996 z "},".":{"ha":343,"x_min":0,"x_max":0,"o":"m 171 -12 b 258 88 231 -12 258 14 b 171 185 258 163 231 185 b 85 88 111 185 85 163 b 171 -12 85 11 107 -12 z "},",":{"ha":343,"x_min":0,"x_max":0,"o":"m 97 -174 b 260 51 208 -151 260 -72 b 172 175 260 150 236 175 b 88 81 111 175 88 154 b 157 -8 88 7 110 -8 b 176 -6 164 -8 171 -7 b 96 -100 169 -58 143 -89 z "},":":{"ha":347,"x_min":0,"x_max":0,"o":"m 174 533 b 260 629 236 533 260 553 b 174 724 260 704 236 724 b 89 629 111 724 89 704 b 174 533 89 551 108 533 z m 174 36 b 260 132 236 36 260 56 b 174 226 260 208 238 226 b 89 132 111 226 89 208 b 174 36 89 54 110 36 z "},";":{"ha":347,"x_min":0,"x_max":0,"o":"m 174 533 b 260 629 236 533 260 553 b 174 724 260 704 236 724 b 89 629 111 724 89 704 b 174 533 89 551 108 533 z m 101 -174 b 263 51 211 -151 263 -72 b 175 175 263 150 240 175 b 90 81 114 175 90 154 b 160 -8 90 7 114 -8 b 181 -6 167 -8 174 -7 b 100 -100 174 -58 146 -89 z "},"…":{"ha":844,"x_min":0,"x_max":0,"o":"m 168 -11 b 247 85 226 -11 247 10 b 168 179 247 160 228 179 b 89 85 110 179 89 160 b 168 -11 89 8 108 -11 z m 424 -11 b 503 85 482 -11 503 10 b 424 179 503 160 483 179 b 344 85 365 179 344 160 b 424 -11 344 8 364 -11 z m 678 -11 b 757 85 736 -11 757 10 b 678 179 757 160 738 179 b 599 85 619 179 599 160 b 678 -11 599 8 618 -11 z "},"!":{"ha":354,"x_min":0,"x_max":0,"o":"m 107 990 l 107 753 b 129 239 107 553 124 265 b 176 244 139 242 156 244 b 224 239 197 244 213 242 b 246 753 229 265 246 553 l 246 990 z m 175 -12 b 263 86 235 -12 263 13 b 175 183 263 161 235 183 b 89 86 115 183 89 161 b 175 -12 89 11 111 -12 z "},"¡":{"ha":354,"x_min":0,"x_max":0,"o":"m 178 817 b 90 718 118 817 90 792 b 178 621 90 643 118 621 b 264 718 238 621 264 643 b 178 817 264 793 242 817 z m 246 -187 l 246 51 b 224 565 246 251 229 539 b 176 560 214 563 197 560 b 129 565 156 560 140 563 b 107 51 124 539 107 251 l 107 -187 z "},"?":{"ha":631,"x_min":0,"x_max":0,"o":"m 235 235 b 300 249 244 243 268 249 b 363 235 332 249 353 243 l 364 310 b 461 464 365 388 411 424 b 575 682 517 508 575 560 l 575 781 b 319 1001 575 908 493 1001 b 57 772 144 1001 57 915 l 57 618 l 194 618 l 194 760 b 318 883 194 840 226 883 b 440 771 406 883 440 835 l 440 676 b 346 533 440 603 394 571 b 232 325 290 492 232 443 l 232 299 b 235 235 232 275 233 246 z m 299 -12 b 386 88 360 -12 386 14 b 300 185 386 163 360 185 b 213 88 240 185 213 163 b 299 -12 213 11 236 -12 z "},"¿":{"ha":631,"x_min":0,"x_max":0,"o":"m 400 568 b 335 554 390 560 367 554 b 272 568 303 554 282 560 l 271 493 b 174 339 269 415 224 379 b 60 121 118 294 60 243 l 60 22 b 315 -199 60 -106 142 -199 b 578 31 490 -199 578 -112 l 578 185 l 440 185 l 440 43 b 317 -81 440 -37 408 -81 b 194 32 229 -81 194 -32 l 194 126 b 289 269 194 200 240 232 b 403 478 344 311 403 360 l 403 504 b 400 568 403 528 401 557 z m 336 815 b 249 715 275 815 249 789 b 335 618 249 640 275 618 b 422 715 394 618 422 640 b 336 815 422 792 399 815 z "},"‽":{"ha":668,"x_min":0,"x_max":0,"o":"m 385 753 l 385 894 b 475 782 447 881 475 840 l 475 676 b 374 474 475 560 415 572 b 385 753 382 569 385 678 z m 332 246 b 378 239 354 246 368 243 l 379 294 b 600 682 383 461 600 451 l 600 792 b 333 1004 600 911 517 1004 b 60 772 150 1004 60 919 l 60 611 l 186 611 l 186 763 b 272 893 186 833 211 878 l 272 753 b 276 339 272 618 274 444 b 283 238 278 281 281 253 b 332 246 293 243 308 246 z m 332 -12 b 418 88 392 -12 418 14 b 332 185 418 163 392 185 b 246 88 272 185 246 163 b 332 -12 246 11 268 -12 z "},"⸘":{"ha":668,"x_min":0,"x_max":0,"o":"m 336 810 b 250 710 276 810 250 783 b 336 613 250 635 276 613 b 422 710 396 613 422 635 b 336 810 422 786 400 810 z m 335 -207 b 608 25 518 -207 608 -122 l 608 186 l 482 186 l 482 35 b 396 -96 482 -36 457 -81 l 396 44 b 392 458 396 179 394 353 b 385 560 390 517 388 544 b 336 551 375 554 360 551 b 290 558 314 551 300 554 l 289 503 b 68 115 285 336 68 346 l 68 6 b 335 -207 68 -114 151 -207 z m 193 15 l 193 121 b 294 324 193 238 253 225 b 283 44 286 228 283 119 l 283 -97 b 193 15 221 -83 193 -43 z "},"‘":{"ha":318,"x_min":0,"x_max":0,"o":"m 163 683 b 238 771 218 683 238 703 b 174 854 238 840 218 854 b 158 853 168 854 163 854 b 228 942 163 911 183 936 l 228 1006 b 82 804 128 999 82 928 b 163 683 82 708 103 683 z "},"’":{"ha":318,"x_min":0,"x_max":0,"o":"m 92 681 b 238 882 192 688 238 758 b 157 1003 238 978 217 1003 b 82 915 101 1003 82 983 b 146 832 82 846 101 832 b 161 833 151 832 157 832 b 92 744 157 775 136 750 z "},"“":{"ha":544,"x_min":0,"x_max":0,"o":"m 163 683 b 238 771 218 683 238 703 b 174 854 238 840 218 854 b 158 853 168 854 163 854 b 228 942 163 911 183 936 l 228 1006 b 82 804 128 999 82 928 b 163 683 82 708 103 683 z m 389 683 b 464 771 444 683 464 703 b 400 854 464 840 444 854 b 385 853 394 854 389 854 b 454 942 389 911 410 936 l 454 1006 b 308 804 354 999 308 928 b 389 683 308 708 329 683 z "},"”":{"ha":544,"x_min":0,"x_max":0,"o":"m 317 681 b 463 882 417 688 463 758 b 382 1003 463 978 442 1003 b 307 915 326 1003 307 983 b 371 832 307 846 326 832 b 386 833 376 832 382 832 b 317 744 382 775 361 750 z m 90 681 b 236 882 190 688 236 758 b 156 1003 236 978 215 1003 b 81 915 100 1003 81 983 b 144 832 81 846 100 832 b 160 833 150 832 156 832 b 90 744 156 775 135 750 z "},"‚":{"ha":333,"x_min":0,"x_max":0,"o":"m 96 -154 b 242 47 196 -147 242 -76 b 161 168 242 143 221 168 b 86 81 106 168 86 149 b 150 -3 86 11 106 -3 b 165 -1 156 -3 161 -3 b 96 -90 161 -60 140 -85 z "},"„":{"ha":544,"x_min":0,"x_max":0,"o":"m 317 -154 b 463 47 417 -147 463 -76 b 382 168 463 143 442 168 b 307 81 326 168 307 149 b 371 -3 307 11 326 -3 b 386 -1 376 -3 382 -3 b 317 -90 382 -60 361 -85 z m 90 -154 b 236 47 190 -147 236 -76 b 156 168 236 143 215 168 b 81 81 100 168 81 149 b 144 -3 81 11 100 -3 b 160 -1 150 -3 156 -3 b 90 -90 156 -60 135 -85 z "},"‛":{"ha":318,"x_min":0,"x_max":0,"o":"m 228 744 b 158 833 183 750 163 775 b 174 832 163 832 168 832 b 238 915 218 832 238 846 b 163 1003 238 983 218 1003 b 81 878 103 1003 81 974 b 228 681 81 754 128 688 z "},"‟":{"ha":544,"x_min":0,"x_max":0,"o":"m 453 744 b 383 833 408 750 388 775 b 399 832 388 832 393 832 b 463 915 443 832 463 846 b 388 1003 463 983 443 1003 b 306 878 328 1003 306 974 b 453 681 306 754 353 688 z m 226 744 b 157 833 182 750 161 775 b 172 832 161 832 167 832 b 236 915 217 832 236 846 b 161 1003 236 983 217 1003 b 79 878 101 1003 79 974 b 226 681 79 754 126 688 z "},"‹":{"ha":431,"x_min":0,"x_max":0,"o":"m 376 157 l 199 419 l 364 683 l 243 683 l 83 422 l 83 408 l 250 157 z "},"›":{"ha":431,"x_min":0,"x_max":0,"o":"m 181 157 l 347 408 l 347 422 l 188 683 l 67 683 l 232 419 l 54 157 z "},"«":{"ha":654,"x_min":0,"x_max":0,"o":"m 376 157 l 199 422 l 361 683 l 244 683 l 83 422 l 83 411 l 250 157 z m 611 157 l 425 426 l 588 683 l 469 683 l 310 428 l 310 414 l 485 157 z "},"»":{"ha":654,"x_min":0,"x_max":0,"o":"m 411 157 l 578 411 l 578 422 l 418 683 l 300 683 l 464 424 l 285 157 z m 178 157 l 351 414 l 351 428 l 193 683 l 74 683 l 238 426 l 51 157 z "},"/":{"ha":422,"x_min":0,"x_max":0,"o":"m 165 0 l 393 990 l 260 990 l 31 0 z "},"\\":{"ha":422,"x_min":0,"x_max":0,"o":"m 33 990 l 257 0 l 389 0 l 165 990 z "},"|":{"ha":300,"x_min":0,"x_max":0,"o":"m 215 -86 l 215 1076 l 85 1076 l 85 -86 z "},"‖":{"ha":568,"x_min":0,"x_max":0,"o":"m 215 -86 l 215 1076 l 85 1076 l 85 -86 z m 483 -86 l 483 1076 l 353 1076 l 353 -86 z "},"¦":{"ha":300,"x_min":0,"x_max":0,"o":"m 85 556 l 215 556 l 215 1076 l 85 1076 z m 85 453 l 85 -86 l 215 -86 l 215 453 z "},"•":{"ha":368,"x_min":0,"x_max":0,"o":"m 183 293 b 293 401 257 293 293 325 b 183 510 293 482 256 510 b 75 401 113 510 75 479 b 183 293 75 324 106 293 z "},"·":{"ha":343,"x_min":0,"x_max":0,"o":"m 171 318 b 258 417 231 318 258 343 b 171 514 258 492 231 514 b 85 417 111 514 85 492 b 171 318 85 342 107 318 z "},"-":{"ha":549,"x_min":0,"x_max":0,"o":"m 486 479 l 64 479 l 64 350 l 486 350 z "},"­":{"ha":549,"x_min":0,"x_max":0,"o":"m 486 479 l 64 479 l 64 350 l 486 350 z "},"–":{"ha":518,"x_min":0,"x_max":0,"o":"m 454 479 l 64 479 l 64 350 l 454 350 z "},"—":{"ha":699,"x_min":0,"x_max":0,"o":"m 635 479 l 64 479 l 64 350 l 635 350 z "},"‒":{"ha":719,"x_min":0,"x_max":0,"o":"m 656 479 l 64 479 l 64 350 l 656 350 z "},"―":{"ha":893,"x_min":0,"x_max":0,"o":"m 829 479 l 64 479 l 64 350 l 829 350 z "},"(":{"ha":443,"x_min":0,"x_max":0,"o":"m 82 182 b 399 -228 82 -104 193 -219 l 399 -101 b 218 189 281 -94 218 -11 l 218 601 b 399 894 218 804 279 885 l 399 1018 b 82 604 201 1008 82 889 z "},")":{"ha":443,"x_min":0,"x_max":0,"o":"m 44 -228 b 361 182 250 -219 361 -104 l 361 604 b 44 1018 361 889 242 1008 l 44 893 b 225 601 164 885 225 804 l 225 189 b 44 -101 225 -11 163 -94 z "},"[":{"ha":431,"x_min":0,"x_max":0,"o":"m 385 -114 l 225 -114 l 225 903 l 385 903 l 385 1015 l 94 1015 l 94 -226 l 385 -226 z "},"]":{"ha":431,"x_min":0,"x_max":0,"o":"m 338 -226 l 338 1015 l 47 1015 l 47 903 l 207 903 l 207 -114 l 47 -114 l 47 -226 z "},"{":{"ha":451,"x_min":0,"x_max":0,"o":"m 406 -226 l 406 -119 l 356 -119 b 249 -26 278 -119 249 -89 b 315 264 249 53 315 174 b 188 401 315 349 274 401 l 188 408 b 314 539 275 410 314 456 b 250 817 314 629 250 739 b 356 910 250 878 278 910 l 406 910 l 406 1017 l 294 1017 b 115 849 158 1017 115 947 b 181 556 115 744 181 632 b 93 467 181 493 154 467 l 44 467 l 44 343 l 97 343 b 186 247 156 343 186 315 b 113 -60 186 172 113 46 b 293 -226 113 -158 158 -226 z "},"}":{"ha":451,"x_min":0,"x_max":0,"o":"m 46 -226 l 158 -226 b 339 -60 293 -226 339 -158 b 265 247 339 46 265 172 b 354 343 265 315 296 343 l 408 343 l 408 467 l 358 467 b 271 556 297 467 271 493 b 336 849 271 632 336 744 b 157 1017 336 947 293 1017 l 46 1017 l 46 910 l 96 910 b 203 817 174 910 203 878 b 139 539 203 739 139 629 b 265 408 139 456 176 410 l 265 401 b 136 264 178 401 136 349 b 203 -26 136 174 203 53 b 97 -119 203 -89 175 -119 l 46 -119 z "},"〈":{"ha":407,"x_min":0,"x_max":0,"o":"m 386 -226 l 193 401 l 375 1015 l 238 1015 l 54 399 l 246 -226 z "},"〉":{"ha":407,"x_min":0,"x_max":0,"o":"m 163 -226 l 353 399 l 171 1015 l 32 1015 l 214 401 l 21 -226 z "},"*":{"ha":507,"x_min":0,"x_max":0,"o":"m 400 696 l 453 789 l 275 843 l 453 896 l 399 989 l 265 863 l 308 1042 l 200 1042 l 243 861 l 108 988 l 54 894 l 232 842 l 54 789 l 108 696 l 242 822 l 200 643 l 308 643 l 267 821 z "},"†":{"ha":532,"x_min":0,"x_max":0,"o":"m 476 661 l 476 790 l 329 790 l 329 1076 l 201 1076 l 201 790 l 56 790 l 56 661 l 201 661 l 201 -86 l 329 -86 l 329 661 z "},"‡":{"ha":532,"x_min":0,"x_max":0,"o":"m 476 228 l 476 357 l 329 357 l 329 664 l 476 664 l 476 793 l 329 793 l 329 1076 l 201 1076 l 201 793 l 56 793 l 56 664 l 201 664 l 201 357 l 56 357 l 56 228 l 201 228 l 201 -86 l 329 -86 l 329 228 z "},"§":{"ha":611,"x_min":0,"x_max":0,"o":"m 318 429 b 131 558 172 483 131 508 l 131 561 b 158 622 132 588 142 608 b 292 563 193 600 239 582 b 479 433 438 508 479 483 l 479 431 b 456 372 478 406 469 386 b 318 429 419 393 372 408 z m 306 -12 b 550 194 467 -12 550 57 l 550 206 b 482 357 550 282 525 325 b 593 468 542 361 593 410 l 593 475 b 378 661 593 578 510 613 b 194 789 246 710 194 724 l 194 794 b 301 881 194 850 228 881 b 410 792 378 881 410 854 l 410 731 l 538 731 l 538 793 b 301 990 538 921 458 990 b 67 793 147 990 67 914 l 67 786 b 138 636 67 715 92 671 b 17 524 72 631 17 582 l 17 517 b 232 331 17 414 100 379 b 422 196 364 282 422 261 l 422 194 b 308 101 422 126 382 101 b 190 208 224 101 190 129 l 190 267 l 54 267 l 54 200 b 306 -12 54 51 132 -12 z "},"¶":{"ha":799,"x_min":0,"x_max":0,"o":"m 346 513 b 181 696 239 513 181 575 b 344 881 181 818 235 881 l 369 881 l 369 513 z m 493 0 l 493 881 l 592 881 l 592 0 l 715 0 l 715 990 l 344 990 b 49 696 149 990 49 881 b 344 400 49 508 150 399 l 369 400 l 369 0 z "},"^":{"ha":624,"x_min":0,"x_max":0,"o":"m 418 611 l 535 611 l 357 990 l 263 990 l 89 611 l 206 611 l 310 868 z "},"~":{"ha":618,"x_min":0,"x_max":0,"o":"m 86 751 l 178 751 b 217 832 179 811 192 832 b 394 746 265 832 301 746 b 526 925 493 746 526 814 l 435 925 b 390 844 435 860 421 844 b 215 931 343 844 304 931 b 86 751 121 931 86 865 z "},"_":{"ha":653,"x_min":0,"x_max":0,"o":"m 604 -64 l 49 -64 l 49 -190 l 604 -190 z "},"'":{"ha":251,"x_min":0,"x_max":0,"o":"m 88 664 l 161 664 b 185 965 172 717 185 840 l 185 990 l 67 990 l 67 965 b 88 664 67 840 76 715 z "},"\"":{"ha":447,"x_min":0,"x_max":0,"o":"m 88 664 l 161 664 b 185 965 172 717 185 840 l 185 990 l 67 990 l 67 965 b 88 664 67 840 76 717 z m 283 664 l 357 664 b 381 965 368 717 381 840 l 381 990 l 263 990 l 263 965 b 283 664 263 840 272 717 z "},"‴":{"ha":643,"x_min":0,"x_max":0,"o":"m 67 990 l 67 965 b 88 664 67 840 76 717 l 163 664 b 185 965 174 717 185 840 l 185 990 z m 263 990 l 263 965 b 283 664 263 840 272 717 l 358 664 b 381 965 369 717 381 840 l 381 990 z m 458 990 l 458 965 b 478 664 458 840 467 717 l 553 664 b 576 965 564 717 576 840 l 576 990 z "},"@":{"ha":883,"x_min":0,"x_max":0,"o":"m 438 -176 b 738 -32 574 -176 672 -125 l 622 7 b 440 -71 579 -44 529 -71 b 171 226 269 -71 171 26 l 171 549 b 446 851 171 743 276 851 b 714 574 633 851 714 738 l 714 282 b 661 138 714 176 697 138 b 613 222 625 138 613 160 l 613 733 l 546 733 l 528 657 b 411 742 513 707 475 742 b 264 540 322 742 264 679 l 264 236 b 413 39 264 103 313 39 b 528 122 476 39 513 69 b 657 44 549 72 593 44 b 819 279 763 44 819 118 l 819 579 b 447 957 819 801 692 957 b 65 556 221 957 65 810 l 65 218 b 438 -176 65 -53 214 -176 z m 439 132 b 371 244 388 132 371 163 l 371 532 b 439 650 371 618 392 650 b 507 529 490 650 507 615 l 507 246 b 439 132 507 165 489 132 z "},"©":{"ha":865,"x_min":0,"x_max":0,"o":"m 436 -14 b 800 357 646 -14 800 118 l 800 633 b 431 1001 800 865 643 1001 b 65 622 218 1001 65 860 l 65 353 b 436 -14 65 104 218 -14 z m 436 82 b 161 360 265 82 161 179 l 161 615 b 431 907 161 801 265 907 b 703 626 597 907 703 806 l 703 364 b 436 82 703 181 604 82 z m 436 161 b 619 347 540 161 619 222 l 619 439 l 521 439 l 521 350 b 438 253 521 283 492 253 b 350 365 378 253 350 289 l 350 625 b 439 743 350 708 381 743 b 521 653 490 743 521 715 l 521 575 l 619 575 l 619 656 b 438 833 619 772 549 833 b 253 626 325 833 253 763 l 253 363 b 436 161 253 228 317 161 z "},"®":{"ha":567,"x_min":0,"x_max":0,"o":"m 286 521 b 514 750 415 521 514 604 l 514 778 b 282 1008 514 921 414 1008 b 53 775 151 1008 53 921 l 53 749 b 286 521 53 593 151 521 z m 286 589 b 124 756 188 589 124 643 l 124 769 b 282 940 124 881 189 940 b 444 772 378 940 444 883 l 444 756 b 286 589 444 643 381 589 z m 282 839 b 329 810 314 839 329 833 b 282 778 329 786 314 778 l 254 778 l 254 839 z m 283 721 b 319 686 314 721 319 715 l 319 656 b 324 640 319 650 321 643 l 389 640 b 383 654 385 643 383 649 l 383 686 b 346 749 383 724 372 742 b 392 813 375 758 392 779 b 292 893 392 861 363 893 l 192 893 l 192 640 l 254 640 l 254 721 z "},"℗":{"ha":864,"x_min":0,"x_max":0,"o":"m 436 -14 b 800 357 646 -14 800 118 l 800 633 b 431 1001 800 865 643 1001 b 65 622 218 1001 65 860 l 65 353 b 436 -14 65 104 218 -14 z m 436 82 b 161 360 265 82 161 179 l 161 615 b 431 907 161 801 265 907 b 703 626 597 907 703 806 l 703 364 b 436 82 703 181 604 82 z m 444 374 b 608 529 558 374 608 433 l 608 672 b 439 819 608 769 556 819 l 289 819 l 289 168 l 382 168 l 382 374 z m 435 736 b 514 663 492 736 514 715 l 514 535 b 438 460 514 482 492 460 l 382 460 l 382 736 z "},"™":{"ha":686,"x_min":0,"x_max":0,"o":"m 264 917 l 264 990 l 36 990 l 36 917 l 110 917 l 110 568 l 188 568 l 188 917 z m 383 760 l 371 888 l 399 792 l 457 676 l 468 676 l 525 792 l 553 888 l 540 760 l 540 568 l 614 568 l 614 990 l 547 990 l 463 801 l 376 990 l 311 990 l 311 568 l 383 568 z "},"℠":{"ha":703,"x_min":0,"x_max":0,"o":"m 411 761 l 407 860 l 419 808 l 486 644 l 497 644 l 563 808 l 575 860 l 571 761 l 571 568 l 646 568 l 646 990 l 579 990 l 492 779 l 404 990 l 338 990 l 338 568 l 411 568 z m 165 564 b 285 672 244 564 285 610 l 285 694 b 193 815 285 765 238 792 b 121 885 156 833 121 850 l 121 892 b 161 936 121 919 136 936 b 201 894 190 936 201 922 l 201 854 l 281 854 l 281 901 b 161 1000 281 958 247 1000 b 42 896 86 1000 42 954 l 42 882 b 138 763 42 808 92 785 b 208 689 174 744 208 728 l 208 674 b 165 633 208 650 196 633 b 118 679 126 633 118 649 l 118 728 l 36 728 l 36 675 b 165 564 36 604 74 564 z "},"€":{"ha":694,"x_min":0,"x_max":0,"o":"m 675 271 l 675 294 l 536 294 l 536 279 b 404 108 536 157 507 108 b 254 299 296 108 254 172 l 254 358 l 463 358 l 499 453 l 254 453 l 254 549 l 531 549 l 568 643 l 254 643 l 254 692 b 401 885 254 817 292 885 b 536 729 503 885 536 832 l 536 719 l 671 719 l 671 735 b 403 1003 671 892 593 1003 b 122 697 224 1003 122 899 l 122 643 l 35 643 l 35 549 l 122 549 l 122 453 l 35 453 l 35 358 l 122 358 l 122 290 b 406 -14 122 81 224 -14 b 675 271 581 -14 675 83 z "},"$":{"ha":626,"x_min":0,"x_max":0,"o":"m 383 -157 l 383 -7 b 576 235 507 15 576 108 l 576 286 b 367 550 576 443 468 500 b 190 733 276 594 190 635 l 190 756 b 310 889 190 831 224 889 b 432 763 396 889 432 844 l 432 663 l 563 663 l 563 771 b 390 994 563 882 513 969 l 390 1151 l 265 1151 l 265 999 b 60 758 122 981 60 881 l 60 726 b 269 461 60 567 168 511 b 447 276 361 417 447 378 l 447 236 b 321 106 447 163 411 106 b 183 247 219 106 183 160 l 183 369 l 47 369 l 47 244 b 257 -8 47 97 101 10 l 257 -157 z "},"¢":{"ha":633,"x_min":0,"x_max":0,"o":"m 581 253 l 581 335 l 443 335 l 443 256 b 321 104 443 151 407 104 b 193 265 235 104 193 158 l 193 531 b 322 697 193 646 235 697 b 443 544 410 697 443 653 l 443 483 l 581 483 l 581 546 b 390 806 581 701 513 785 l 390 949 l 267 949 l 267 807 b 61 532 136 788 61 697 l 61 263 b 264 -8 61 101 125 10 l 264 -157 l 389 -157 l 389 -7 b 581 253 510 15 581 99 z "},"£":{"ha":693,"x_min":0,"x_max":0,"o":"m 481 -21 b 654 211 613 -21 654 44 l 654 263 l 517 263 l 517 229 b 450 97 517 129 500 97 b 339 140 413 97 376 117 b 350 224 346 167 350 194 b 331 399 350 288 343 344 l 483 399 l 483 501 l 306 501 b 260 772 281 592 260 672 b 354 888 260 846 292 888 b 451 776 425 888 451 847 l 451 721 l 592 722 l 592 778 b 363 1006 592 926 510 1006 b 122 771 207 1006 122 911 b 181 501 122 661 153 581 l 69 501 l 69 399 l 217 399 b 254 214 239 338 254 278 b 253 190 254 206 254 197 b 149 219 221 207 186 219 b 14 97 68 219 14 171 b 153 -21 14 22 60 -21 b 294 53 210 -21 260 7 b 481 -21 346 15 407 -21 z m 160 65 b 115 100 132 65 115 79 b 153 135 115 121 128 135 b 228 103 176 135 201 121 b 160 65 211 78 189 65 z "},"ƒ":{"ha":424,"x_min":0,"x_max":0,"o":"m 272 1 l 274 439 l 403 439 l 403 556 l 274 556 l 274 861 b 360 978 274 958 288 978 l 403 978 l 403 1090 l 342 1090 b 146 874 203 1090 146 1033 l 146 556 l 21 556 l 21 439 l 146 439 l 146 18 b 64 -81 146 -65 132 -81 l 7 -81 l 7 -203 l 79 -203 b 272 1 236 -203 272 -157 z "},"¥":{"ha":593,"x_min":0,"x_max":0,"o":"m 522 179 l 522 282 l 358 282 l 358 369 l 524 369 l 524 474 l 360 474 l 585 990 l 447 990 l 311 643 l 293 564 l 278 643 l 146 990 l 8 990 l 224 474 l 72 474 l 72 369 l 226 369 l 226 282 l 71 282 l 71 179 l 226 179 l 226 0 l 358 0 l 358 179 z "},"₡":{"ha":715,"x_min":0,"x_max":0,"o":"m 329 106 b 283 118 313 108 296 113 l 397 892 b 444 882 414 890 431 888 z m 190 311 l 190 672 b 324 889 190 799 236 871 l 218 176 b 190 311 199 211 190 256 z m 283 -158 l 360 -158 l 382 -17 b 674 275 586 -12 674 103 l 674 397 l 546 397 l 546 279 b 403 104 546 175 506 114 l 511 838 b 546 731 533 811 546 774 l 546 619 l 671 619 l 671 733 b 532 974 671 849 619 932 l 561 1136 l 485 1136 l 463 997 b 414 1004 447 1000 431 1003 l 433 1136 l 360 1136 l 340 1004 b 65 681 164 992 65 871 l 65 303 b 193 29 65 175 110 81 l 157 -158 l 233 -158 l 261 -1 b 308 -12 276 -7 292 -10 z "},"₢":{"ha":714,"x_min":0,"x_max":0,"o":"m 656 267 l 656 375 l 528 375 l 528 271 b 417 104 528 178 497 121 l 417 308 b 547 463 417 443 431 463 l 618 463 l 618 592 l 565 592 b 410 464 479 592 426 556 l 392 588 l 300 588 l 300 108 b 196 306 225 131 196 196 l 196 681 b 365 889 196 815 256 889 b 522 735 472 889 522 832 l 522 668 l 653 668 l 653 738 b 365 1006 653 914 546 1006 b 65 689 179 1006 65 890 l 65 299 b 363 -17 65 94 161 -17 b 656 267 567 -17 656 103 z "},"₣":{"ha":557,"x_min":0,"x_max":0,"o":"m 496 246 l 496 367 l 213 367 l 213 469 l 496 469 l 496 590 l 213 590 l 213 871 l 513 871 l 513 990 l 85 990 l 85 0 l 213 0 l 213 246 z "},"₤":{"ha":693,"x_min":0,"x_max":0,"o":"m 481 -21 b 654 211 613 -21 654 44 l 654 263 l 517 263 l 517 229 b 450 97 517 129 500 97 b 342 138 414 97 378 115 b 347 203 346 158 347 179 b 338 329 347 246 343 289 l 483 329 l 483 417 l 321 417 b 306 483 317 439 311 461 l 483 483 l 483 572 l 285 572 b 258 772 271 639 258 706 b 354 888 258 846 288 888 b 451 776 425 888 451 847 l 451 721 l 592 722 l 592 778 b 360 1006 592 926 507 1006 b 122 771 200 1006 122 911 b 157 572 122 703 138 638 l 69 572 l 69 483 l 188 483 b 211 417 196 461 204 439 l 69 417 l 69 329 l 239 329 b 260 196 251 285 260 240 l 260 188 b 149 219 225 206 189 219 b 14 97 68 219 14 171 b 153 -21 14 22 60 -21 b 303 47 217 -21 268 3 b 481 -21 353 13 411 -21 z m 160 65 b 115 100 132 65 115 79 b 153 135 115 121 128 135 b 238 96 179 135 207 118 b 160 65 221 74 194 65 z "},"₦":{"ha":818,"x_min":0,"x_max":0,"o":"m 236 626 l 224 832 l 267 699 l 299 624 l 236 624 z m 581 461 l 481 461 l 449 535 l 581 535 z m 367 461 l 236 461 l 236 535 l 336 535 z m 547 303 l 517 374 l 581 374 l 581 372 l 593 164 z m 563 0 l 699 0 l 699 374 l 804 374 l 804 461 l 699 461 l 699 535 l 804 535 l 804 624 l 699 624 l 699 990 l 581 990 l 581 624 l 411 624 l 257 990 l 118 990 l 118 624 l 14 624 l 14 535 l 118 535 l 118 461 l 14 461 l 14 374 l 118 374 l 118 0 l 236 0 l 236 374 l 404 374 z "},"₧":{"ha":1585,"x_min":0,"x_max":0,"o":"m 325 875 b 468 738 422 875 468 840 l 468 578 b 326 433 468 482 422 433 l 213 433 l 213 875 z m 332 318 b 597 576 517 318 597 415 l 597 679 l 724 679 l 724 321 b 1068 0 724 83 767 0 l 1221 0 b 1544 219 1476 0 1544 78 l 1544 239 b 1367 454 1544 369 1456 419 b 1189 589 1278 490 1189 513 l 1189 603 b 1296 701 1189 658 1222 701 b 1404 600 1372 701 1404 663 l 1404 542 l 1532 542 l 1532 601 b 1296 811 1532 729 1453 811 b 1061 601 1142 811 1061 722 l 1061 582 b 1239 372 1061 454 1150 408 b 1417 229 1328 338 1417 314 l 1417 226 b 1214 117 1417 153 1389 117 l 1085 117 b 846 339 871 117 846 163 l 846 679 l 994 679 l 994 800 l 846 800 l 846 957 l 750 957 b 733 856 746 911 743 885 b 689 803 724 828 708 811 b 594 792 671 794 624 792 b 328 990 579 933 493 990 l 85 990 l 85 0 l 213 0 l 213 318 z "},"₨":{"ha":1229,"x_min":0,"x_max":0,"o":"m 903 -14 b 1174 224 1083 -14 1174 85 l 1174 239 b 818 589 1174 500 818 436 l 818 603 b 925 701 818 658 851 701 b 1033 600 1001 701 1033 663 l 1033 542 l 1161 542 l 1161 601 b 925 811 1161 729 1082 811 b 690 601 771 811 690 722 l 690 582 b 1046 229 690 326 1046 397 l 1046 219 b 896 103 1046 150 997 103 l 875 103 b 661 253 782 103 725 144 l 614 333 b 472 458 579 392 540 436 b 600 650 556 486 600 547 l 600 761 b 336 990 600 908 524 990 l 85 990 l 85 0 l 214 0 l 214 400 l 296 400 b 515 265 418 400 471 342 l 563 185 b 871 -14 642 50 706 -14 z m 331 876 b 468 750 428 876 468 836 l 468 657 b 332 515 468 564 428 515 l 214 515 l 214 876 z "},"₩":{"ha":989,"x_min":0,"x_max":0,"o":"m 474 678 l 493 860 l 513 679 l 521 633 l 464 633 z m 729 471 l 639 471 l 625 544 l 742 544 z m 551 471 l 431 471 l 446 544 l 538 544 z m 342 471 l 258 471 l 247 544 l 357 544 z m 667 326 l 656 383 l 714 383 l 708 347 l 692 111 z m 640 0 l 758 0 l 828 383 l 975 383 l 975 471 l 843 471 l 857 544 l 975 544 l 975 633 l 874 633 l 938 990 l 815 990 l 756 633 l 607 633 l 539 990 l 449 990 l 375 633 l 235 633 l 183 990 l 58 990 l 115 633 l 14 633 l 14 544 l 129 544 l 140 471 l 14 471 l 14 383 l 154 383 l 215 0 l 333 0 l 413 383 l 568 383 z m 276 347 l 271 383 l 324 383 l 313 326 l 286 117 z "},"₪":{"ha":950,"x_min":0,"x_max":0,"o":"m 332 879 b 526 663 465 879 526 817 l 526 210 b 649 364 622 210 649 243 l 649 669 b 339 990 649 890 542 990 l 85 990 l 85 0 l 206 0 l 206 879 z m 557 0 b 871 338 760 0 871 119 l 871 990 l 747 990 l 747 344 b 550 113 747 176 665 113 l 428 113 l 428 631 b 306 786 428 758 410 786 l 306 0 z "},"₮":{"ha":547,"x_min":0,"x_max":0,"o":"m 461 446 l 461 531 l 339 475 l 339 550 l 461 606 l 461 690 l 339 635 l 339 869 l 518 869 l 518 990 l 29 990 l 29 869 l 208 869 l 208 576 l 96 525 l 96 439 l 208 490 l 208 415 l 96 364 l 96 279 l 208 331 l 208 0 l 339 0 l 339 390 z "},"₱":{"ha":683,"x_min":0,"x_max":0,"o":"m 328 278 b 593 515 504 278 586 367 l 669 515 l 669 597 l 593 597 l 593 675 l 669 675 l 669 758 l 593 758 b 324 990 586 925 501 990 l 92 990 l 92 758 l 14 758 l 14 675 l 92 675 l 92 597 l 14 597 l 14 515 l 92 515 l 92 0 l 219 0 l 219 278 z m 321 875 b 463 758 411 875 457 844 l 219 758 l 219 875 z m 464 597 l 219 597 l 219 675 l 464 675 z m 322 393 l 219 393 l 219 515 l 463 515 b 322 393 456 433 410 393 z "},"฿":{"ha":699,"x_min":0,"x_max":0,"o":"m 404 -128 l 404 0 b 646 235 582 0 646 90 l 646 328 b 514 507 646 419 606 481 b 632 699 596 536 632 596 l 632 776 b 404 989 632 900 575 981 l 404 1118 l 307 1118 l 307 990 l 85 990 l 85 0 l 307 0 l 307 -128 z m 214 563 l 214 879 l 307 879 l 307 563 z m 503 764 l 503 701 b 404 565 503 617 476 575 l 404 878 b 503 764 471 868 503 832 z m 214 117 l 214 449 l 307 449 l 307 117 z m 511 319 l 511 243 b 404 118 511 156 482 122 l 404 447 b 511 319 481 438 511 396 z "},"#":{"ha":910,"x_min":0,"x_max":0,"o":"m 526 393 l 354 393 l 383 624 l 556 624 z m 475 0 l 600 0 l 636 281 l 824 281 l 824 393 l 650 393 l 679 624 l 860 624 l 860 736 l 694 736 l 726 990 l 603 990 l 569 736 l 397 736 l 431 990 l 306 990 l 272 736 l 88 736 l 88 624 l 258 624 l 229 393 l 51 393 l 51 281 l 214 281 l 178 0 l 303 0 l 339 281 l 511 281 z "},"⁰":{"ha":378,"x_min":0,"x_max":0,"o":"m 189 488 b 336 640 282 488 336 535 l 336 847 b 189 997 336 951 279 997 b 43 847 97 997 43 950 l 43 640 b 189 488 43 535 94 488 z m 189 576 b 139 643 153 576 139 596 l 139 847 b 190 913 139 893 154 913 b 240 847 226 913 240 893 l 240 643 b 189 576 240 596 225 576 z "},"¹":{"ha":299,"x_min":0,"x_max":0,"o":"m 269 496 l 269 582 l 194 582 l 194 990 l 122 990 b 43 910 115 939 94 913 l 43 839 l 110 839 l 110 582 l 32 582 l 32 496 z "},"²":{"ha":356,"x_min":0,"x_max":0,"o":"m 321 496 l 321 583 l 142 583 b 318 838 160 674 318 700 l 318 871 b 181 997 318 953 275 997 b 40 869 92 997 40 950 l 40 797 l 133 797 l 133 865 b 179 918 133 897 143 918 b 225 868 214 918 225 901 l 225 842 b 39 560 225 736 39 717 l 39 496 z "},"³":{"ha":363,"x_min":0,"x_max":0,"o":"m 178 488 b 322 604 268 488 322 532 l 322 665 b 260 753 322 713 303 742 b 315 838 303 767 315 797 l 315 878 b 178 997 315 954 274 997 b 39 867 88 997 39 951 l 39 824 l 132 824 l 132 867 b 179 919 132 903 143 919 b 225 868 215 919 225 906 l 225 835 b 181 788 225 800 217 788 l 139 788 l 139 707 l 181 707 b 228 663 214 707 228 697 l 228 613 b 176 571 228 583 214 571 b 128 618 140 571 128 588 l 128 675 l 33 675 l 33 613 b 178 488 33 529 79 488 z "},"⁴":{"ha":361,"x_min":0,"x_max":0,"o":"m 347 596 l 347 671 l 289 671 l 289 990 l 210 990 l 24 663 l 24 596 l 210 596 l 210 496 l 289 496 l 289 596 z m 192 810 l 218 881 l 210 803 l 210 671 l 115 671 z "},"⁵":{"ha":364,"x_min":0,"x_max":0,"o":"m 185 488 b 331 622 285 488 331 539 l 331 724 b 224 839 331 797 290 839 b 129 792 175 839 147 819 l 143 904 l 228 904 b 311 985 292 904 311 925 l 311 990 l 71 990 l 47 735 l 126 714 l 132 728 b 189 765 144 749 164 765 b 242 717 221 765 242 754 l 242 626 b 186 571 242 592 225 571 b 136 618 153 571 136 586 l 136 669 l 39 669 l 39 614 b 185 488 39 531 83 488 z "},"⁶":{"ha":376,"x_min":0,"x_max":0,"o":"m 336 629 l 336 686 b 228 797 336 761 294 797 b 131 750 182 797 150 781 l 131 846 b 186 919 131 903 151 919 b 238 857 222 919 238 900 l 238 835 l 332 835 l 332 857 b 186 997 332 950 282 997 b 42 846 94 997 42 944 l 42 649 b 192 488 42 543 78 488 b 336 629 285 488 336 542 z m 192 569 b 131 642 149 569 131 588 l 131 692 b 193 731 139 717 160 731 b 247 681 226 731 247 714 l 247 632 b 192 569 247 590 231 569 z "},"⁷":{"ha":318,"x_min":0,"x_max":0,"o":"m 161 496 b 294 915 183 647 233 796 l 294 990 l 25 990 l 25 903 l 203 903 b 60 496 151 804 86 654 z "},"⁸":{"ha":376,"x_min":0,"x_max":0,"o":"m 188 488 b 336 613 283 488 336 531 l 336 658 b 271 753 336 710 310 740 b 331 840 307 765 331 793 l 331 876 b 190 997 331 956 276 997 b 49 876 104 997 49 954 l 49 840 b 108 753 49 793 71 764 b 40 658 68 739 40 707 l 40 613 b 188 488 40 528 86 488 z m 193 785 l 183 785 b 136 833 154 785 136 803 l 136 869 b 190 924 136 907 156 924 b 243 871 226 924 243 906 l 243 833 b 193 785 243 801 224 785 z m 188 568 b 131 621 149 568 131 583 l 131 665 b 183 717 131 694 146 717 l 193 717 b 247 665 231 717 247 697 l 247 621 b 188 568 247 583 226 568 z "},"⁹":{"ha":368,"x_min":0,"x_max":0,"o":"m 179 758 b 125 808 146 758 125 775 l 125 856 b 182 918 125 897 143 918 b 242 844 225 918 242 899 l 242 808 b 179 758 236 776 217 758 z m 186 486 b 331 639 283 488 331 544 l 331 836 b 182 997 331 942 288 997 b 36 856 85 997 36 943 l 36 803 b 149 692 36 728 82 692 b 242 743 196 692 225 708 l 242 639 b 188 568 242 586 222 568 b 135 628 151 568 135 585 l 135 657 l 40 657 l 40 624 b 186 486 40 531 85 485 z "},"⁺":{"ha":374,"x_min":0,"x_max":0,"o":"m 315 697 l 315 772 l 224 772 l 224 863 l 146 863 l 146 772 l 56 772 l 56 697 l 146 697 l 146 604 l 224 604 l 224 697 z "},"⁻":{"ha":374,"x_min":0,"x_max":0,"o":"m 314 694 l 314 776 l 57 776 l 57 694 z "},"⁼":{"ha":374,"x_min":0,"x_max":0,"o":"m 314 767 l 314 844 l 57 844 l 57 767 z m 314 628 l 314 706 l 57 706 l 57 628 z "},"⁽":{"ha":268,"x_min":0,"x_max":0,"o":"m 53 615 b 247 364 53 442 122 368 l 247 458 b 143 619 182 463 143 504 l 143 851 b 247 1021 143 971 181 1015 l 247 1110 b 53 854 126 1103 53 1024 z "},"⁾":{"ha":268,"x_min":0,"x_max":0,"o":"m 22 364 b 215 615 147 368 215 442 l 215 854 b 22 1110 215 1024 143 1103 l 22 1019 b 126 851 89 1014 126 971 l 126 619 b 22 457 126 504 86 463 z "},"₀":{"ha":378,"x_min":0,"x_max":0,"o":"m 189 -8 b 336 144 282 -8 336 39 l 336 351 b 189 501 336 456 279 501 b 43 351 97 501 43 454 l 43 144 b 189 -8 43 39 94 -8 z m 189 81 b 139 147 153 81 139 100 l 139 351 b 190 417 139 397 154 417 b 240 351 226 417 240 397 l 240 147 b 189 81 240 100 225 81 z "},"₁":{"ha":299,"x_min":0,"x_max":0,"o":"m 269 0 l 269 86 l 194 86 l 194 494 l 122 494 b 43 414 115 443 94 417 l 43 343 l 110 343 l 110 86 l 32 86 l 32 0 z "},"₂":{"ha":356,"x_min":0,"x_max":0,"o":"m 321 0 l 321 88 l 142 88 b 318 342 160 178 318 204 l 318 375 b 181 501 318 457 275 501 b 40 374 92 501 40 454 l 40 301 l 133 301 l 133 369 b 179 422 133 401 143 422 b 225 372 214 422 225 406 l 225 346 b 39 64 225 240 39 221 l 39 0 z "},"₃":{"ha":363,"x_min":0,"x_max":0,"o":"m 178 -8 b 322 108 268 -8 322 36 l 322 169 b 260 257 322 217 303 246 b 315 342 303 271 315 301 l 315 382 b 178 501 315 458 274 501 b 39 371 88 501 39 456 l 39 328 l 132 328 l 132 371 b 179 424 132 407 143 424 b 225 372 215 424 225 410 l 225 339 b 181 292 225 304 217 292 l 139 292 l 139 211 l 181 211 b 228 167 214 211 228 201 l 228 117 b 176 75 228 88 214 75 b 128 122 140 75 128 92 l 128 179 l 33 179 l 33 117 b 178 -8 33 33 79 -8 z "},"₄":{"ha":361,"x_min":0,"x_max":0,"o":"m 347 100 l 347 175 l 289 175 l 289 494 l 210 494 l 24 167 l 24 100 l 210 100 l 210 0 l 289 0 l 289 100 z m 192 314 l 218 385 l 210 307 l 210 175 l 115 175 z "},"₅":{"ha":364,"x_min":0,"x_max":0,"o":"m 185 -8 b 331 126 285 -8 331 43 l 331 228 b 224 343 331 301 290 343 b 129 296 175 343 147 324 l 143 408 l 228 408 b 311 489 292 408 311 429 l 311 494 l 71 494 l 47 239 l 126 218 l 132 232 b 189 269 144 253 164 269 b 242 221 221 269 242 258 l 242 131 b 186 75 242 96 225 75 b 136 122 153 75 136 90 l 136 174 l 39 174 l 39 118 b 185 -8 39 35 83 -8 z "},"₆":{"ha":376,"x_min":0,"x_max":0,"o":"m 336 133 l 336 190 b 228 301 336 265 294 301 b 131 254 182 301 150 285 l 131 350 b 186 424 131 407 151 424 b 238 361 222 424 238 404 l 238 339 l 332 339 l 332 361 b 186 501 332 454 282 501 b 42 350 94 501 42 449 l 42 153 b 192 -8 42 47 78 -8 b 336 133 285 -8 336 46 z m 192 74 b 131 146 149 74 131 92 l 131 196 b 193 235 139 221 160 235 b 247 185 226 235 247 218 l 247 136 b 192 74 247 94 231 74 z "},"₇":{"ha":318,"x_min":0,"x_max":0,"o":"m 161 0 b 294 419 183 151 233 300 l 294 494 l 25 494 l 25 407 l 203 407 b 60 0 151 308 86 158 z "},"₈":{"ha":376,"x_min":0,"x_max":0,"o":"m 188 -8 b 336 117 283 -8 336 35 l 336 163 b 271 257 336 214 310 244 b 331 344 307 269 331 297 l 331 381 b 190 501 331 460 276 501 b 49 381 104 501 49 458 l 49 344 b 108 257 49 297 71 268 b 40 163 68 243 40 211 l 40 117 b 188 -8 40 32 86 -8 z m 193 289 l 183 289 b 136 338 154 289 136 307 l 136 374 b 190 428 136 411 156 428 b 243 375 226 428 243 410 l 243 338 b 193 289 243 306 224 289 z m 188 72 b 131 125 149 72 131 88 l 131 169 b 183 221 131 199 146 221 l 193 221 b 247 169 231 221 247 201 l 247 125 b 188 72 247 88 226 72 z "},"₉":{"ha":368,"x_min":0,"x_max":0,"o":"m 179 263 b 125 313 146 263 125 279 l 125 360 b 182 422 125 401 143 422 b 242 349 225 422 242 403 l 242 313 b 179 263 236 281 217 263 z m 186 -10 b 331 143 283 -8 331 49 l 331 340 b 182 501 331 446 288 501 b 36 360 85 501 36 447 l 36 307 b 149 196 36 232 82 196 b 242 247 196 196 225 213 l 242 143 b 188 72 242 90 222 72 b 135 132 151 72 135 89 l 135 161 l 40 161 l 40 128 b 186 -10 40 35 85 -11 z "},"₊":{"ha":374,"x_min":0,"x_max":0,"o":"m 315 201 l 315 276 l 224 276 l 224 367 l 146 367 l 146 276 l 56 276 l 56 201 l 146 201 l 146 108 l 224 108 l 224 201 z "},"₋":{"ha":374,"x_min":0,"x_max":0,"o":"m 314 199 l 314 281 l 57 281 l 57 199 z "},"₌":{"ha":374,"x_min":0,"x_max":0,"o":"m 314 271 l 314 349 l 57 349 l 57 271 z m 314 132 l 314 210 l 57 210 l 57 132 z "},"₍":{"ha":268,"x_min":0,"x_max":0,"o":"m 53 119 b 247 -132 53 -54 122 -128 l 247 -37 b 143 124 182 -33 143 8 l 143 356 b 247 525 143 475 181 519 l 247 614 b 53 358 126 607 53 528 z "},"₎":{"ha":268,"x_min":0,"x_max":0,"o":"m 22 -132 b 215 119 147 -128 215 -54 l 215 358 b 22 614 215 528 143 607 l 22 524 b 126 356 89 518 126 475 l 126 124 b 22 -39 126 8 86 -33 z "},"⁄":{"ha":799,"x_min":0,"x_max":0,"o":"m 469 554 l 761 942 l 638 1022 l 428 582 z m 349 458 l 56 61 l 183 -25 l 389 431 z "},"⅟":{"ha":799,"x_min":0,"x_max":0,"o":"m 469 554 l 761 942 l 638 1022 l 428 582 z m 349 458 l 56 61 l 183 -25 l 389 431 z m 296 496 l 296 582 l 221 582 l 221 990 l 149 990 b 69 910 142 939 121 913 l 69 839 l 136 839 l 136 582 l 58 582 l 58 496 z "},"½":{"ha":799,"x_min":0,"x_max":0,"o":"m 469 554 l 761 942 l 638 1022 l 428 582 z m 349 458 l 56 61 l 183 -25 l 389 431 z m 296 496 l 296 582 l 221 582 l 221 990 l 149 990 b 69 910 142 939 121 913 l 69 839 l 136 839 l 136 582 l 58 582 l 58 496 z m 744 0 l 744 88 l 565 88 b 742 342 583 178 742 204 l 742 375 b 604 501 742 457 699 501 b 464 374 515 501 464 454 l 464 301 l 557 301 l 557 369 b 603 422 557 401 567 422 b 649 372 638 422 649 406 l 649 346 b 463 64 649 240 463 221 l 463 0 z "},"⅓":{"ha":799,"x_min":0,"x_max":0,"o":"m 469 554 l 761 942 l 638 1022 l 428 582 z m 349 458 l 56 61 l 183 -25 l 389 431 z m 296 496 l 296 582 l 221 582 l 221 990 l 149 990 b 69 910 142 939 121 913 l 69 839 l 136 839 l 136 582 l 58 582 l 58 496 z m 594 -8 b 739 108 685 -8 739 36 l 739 169 b 676 257 739 217 719 246 b 732 342 719 271 732 301 l 732 382 b 594 501 732 458 690 501 b 456 371 504 501 456 456 l 456 328 l 549 328 l 549 371 b 596 424 549 407 560 424 b 642 372 632 424 642 410 l 642 339 b 597 292 642 304 633 292 l 556 292 l 556 211 l 597 211 b 644 167 631 211 644 201 l 644 117 b 593 75 644 88 631 75 b 544 122 557 75 544 92 l 544 179 l 450 179 l 450 117 b 594 -8 450 33 496 -8 z "},"⅔":{"ha":799,"x_min":0,"x_max":0,"o":"m 469 554 l 761 942 l 638 1022 l 428 582 z m 349 458 l 56 61 l 183 -25 l 389 431 z m 326 496 l 326 583 l 147 583 b 324 838 165 674 324 700 l 324 871 b 186 997 324 953 281 997 b 46 869 97 997 46 950 l 46 797 l 139 797 l 139 865 b 185 918 139 897 149 918 b 231 868 219 918 231 901 l 231 842 b 44 560 231 736 44 717 l 44 496 z m 594 -8 b 739 108 685 -8 739 36 l 739 169 b 676 257 739 217 719 246 b 732 342 719 271 732 301 l 732 382 b 594 501 732 458 690 501 b 456 371 504 501 456 456 l 456 328 l 549 328 l 549 371 b 596 424 549 407 560 424 b 642 372 632 424 642 410 l 642 339 b 597 292 642 304 633 292 l 556 292 l 556 211 l 597 211 b 644 167 631 211 644 201 l 644 117 b 593 75 644 88 631 75 b 544 122 557 75 544 92 l 544 179 l 450 179 l 450 117 b 594 -8 450 33 496 -8 z "},"¼":{"ha":799,"x_min":0,"x_max":0,"o":"m 469 554 l 761 942 l 638 1022 l 428 582 z m 349 458 l 56 61 l 183 -25 l 389 431 z m 739 100 l 739 175 l 681 175 l 681 494 l 601 494 l 415 167 l 415 100 l 601 100 l 601 0 l 681 0 l 681 100 z m 583 314 l 610 385 l 601 307 l 601 175 l 507 175 z m 296 496 l 296 582 l 221 582 l 221 990 l 149 990 b 69 910 142 939 121 913 l 69 839 l 136 839 l 136 582 l 58 582 l 58 496 z "},"¾":{"ha":799,"x_min":0,"x_max":0,"o":"m 469 554 l 761 942 l 638 1022 l 428 582 z m 349 458 l 56 61 l 183 -25 l 389 431 z m 738 100 l 738 175 l 679 175 l 679 494 l 600 494 l 414 167 l 414 100 l 600 100 l 600 0 l 679 0 l 679 100 z m 582 314 l 608 385 l 600 307 l 600 175 l 506 175 z m 178 488 b 322 604 268 488 322 532 l 322 665 b 260 753 322 713 303 742 b 315 838 303 767 315 797 l 315 878 b 178 997 315 954 274 997 b 39 867 88 997 39 951 l 39 824 l 132 824 l 132 867 b 179 919 132 903 143 919 b 225 868 215 919 225 906 l 225 835 b 181 788 225 800 217 788 l 139 788 l 139 707 l 181 707 b 228 663 214 707 228 697 l 228 613 b 176 571 228 583 214 571 b 128 618 140 571 128 588 l 128 675 l 33 675 l 33 613 b 178 488 33 529 79 488 z "},"⅕":{"ha":799,"x_min":0,"x_max":0,"o":"m 469 554 l 761 942 l 638 1022 l 428 582 z m 349 458 l 56 61 l 183 -25 l 389 431 z m 600 -8 b 746 126 700 -8 746 43 l 746 228 b 639 343 746 301 706 343 b 544 296 590 343 563 324 l 558 408 l 643 408 b 726 489 707 408 726 429 l 726 494 l 486 494 l 463 239 l 542 218 l 547 232 b 604 269 560 253 579 269 b 657 221 636 269 657 258 l 657 131 b 601 75 657 96 640 75 b 551 122 568 75 551 90 l 551 174 l 454 174 l 454 118 b 600 -8 454 35 499 -8 z m 296 496 l 296 582 l 221 582 l 221 990 l 149 990 b 69 910 142 939 121 913 l 69 839 l 136 839 l 136 582 l 58 582 l 58 496 z "},"⅖":{"ha":799,"x_min":0,"x_max":0,"o":"m 469 554 l 761 942 l 638 1022 l 428 582 z m 349 458 l 56 61 l 183 -25 l 389 431 z m 600 -8 b 746 126 700 -8 746 43 l 746 228 b 639 343 746 301 706 343 b 544 296 590 343 563 324 l 558 408 l 643 408 b 726 489 707 408 726 429 l 726 494 l 486 494 l 463 239 l 542 218 l 547 232 b 604 269 560 253 579 269 b 657 221 636 269 657 258 l 657 131 b 601 75 657 96 640 75 b 551 122 568 75 551 90 l 551 174 l 454 174 l 454 118 b 600 -8 454 35 499 -8 z m 328 496 l 328 583 l 149 583 b 325 838 167 674 325 700 l 325 871 b 188 997 325 953 282 997 b 47 869 99 997 47 950 l 47 797 l 140 797 l 140 865 b 186 918 140 897 150 918 b 232 868 221 918 232 901 l 232 842 b 46 560 232 736 46 717 l 46 496 z "},"⅗":{"ha":799,"x_min":0,"x_max":0,"o":"m 469 554 l 761 942 l 638 1022 l 428 582 z m 349 458 l 56 61 l 183 -25 l 389 431 z m 600 -8 b 746 126 700 -8 746 43 l 746 228 b 639 343 746 301 706 343 b 544 296 590 343 563 324 l 558 408 l 643 408 b 726 489 707 408 726 429 l 726 494 l 486 494 l 463 239 l 542 218 l 547 232 b 604 269 560 253 579 269 b 657 221 636 269 657 258 l 657 131 b 601 75 657 96 640 75 b 551 122 568 75 551 90 l 551 174 l 454 174 l 454 118 b 600 -8 454 35 499 -8 z m 181 488 b 325 604 271 488 325 532 l 325 665 b 263 753 325 713 306 742 b 318 838 306 767 318 797 l 318 878 b 181 997 318 954 276 997 b 42 867 90 997 42 951 l 42 824 l 135 824 l 135 867 b 182 919 135 903 146 919 b 228 868 218 919 228 906 l 228 835 b 183 788 228 800 219 788 l 142 788 l 142 707 l 183 707 b 231 663 217 707 231 697 l 231 613 b 179 571 231 583 217 571 b 131 618 143 571 131 588 l 131 675 l 36 675 l 36 613 b 181 488 36 529 82 488 z "},"⅘":{"ha":799,"x_min":0,"x_max":0,"o":"m 469 554 l 761 942 l 638 1022 l 428 582 z m 349 458 l 56 61 l 183 -25 l 389 431 z m 600 -8 b 746 126 700 -8 746 43 l 746 228 b 639 343 746 301 706 343 b 544 296 590 343 563 324 l 558 408 l 643 408 b 726 489 707 408 726 429 l 726 494 l 486 494 l 463 239 l 542 218 l 547 232 b 604 269 560 253 579 269 b 657 221 636 269 657 258 l 657 131 b 601 75 657 96 640 75 b 551 122 568 75 551 90 l 551 174 l 454 174 l 454 118 b 600 -8 454 35 499 -8 z m 353 596 l 353 671 l 294 671 l 294 990 l 215 990 l 29 663 l 29 596 l 215 596 l 215 496 l 294 496 l 294 596 z m 197 810 l 224 881 l 215 803 l 215 671 l 121 671 z "},"⅙":{"ha":799,"x_min":0,"x_max":0,"o":"m 469 554 l 761 942 l 638 1022 l 428 582 z m 349 458 l 56 61 l 183 -25 l 389 431 z m 296 496 l 296 582 l 221 582 l 221 990 l 149 990 b 69 910 142 939 121 913 l 69 839 l 136 839 l 136 582 l 58 582 l 58 496 z m 743 133 l 743 190 b 635 301 743 265 701 301 b 538 254 589 301 557 285 l 538 350 b 593 424 538 407 558 424 b 644 361 629 424 644 404 l 644 339 l 739 339 l 739 361 b 593 501 739 454 689 501 b 449 350 501 501 449 449 l 449 153 b 599 -8 449 47 485 -8 b 743 133 692 -8 743 46 z m 599 74 b 538 146 556 74 538 92 l 538 196 b 600 235 546 221 567 235 b 654 185 633 235 654 218 l 654 136 b 599 74 654 94 638 74 z "},"⅚":{"ha":799,"x_min":0,"x_max":0,"o":"m 469 554 l 761 942 l 638 1022 l 428 582 z m 349 458 l 56 61 l 183 -25 l 389 431 z m 182 488 b 328 622 282 488 328 539 l 328 724 b 221 839 328 797 288 839 b 126 792 172 839 144 819 l 140 904 l 225 904 b 308 985 289 904 308 925 l 308 990 l 68 990 l 44 735 l 124 714 l 129 728 b 186 765 142 749 161 765 b 239 717 218 765 239 754 l 239 626 b 183 571 239 592 222 571 b 133 618 150 571 133 586 l 133 669 l 36 669 l 36 614 b 182 488 36 531 81 488 z m 743 133 l 743 190 b 635 301 743 265 701 301 b 538 254 589 301 557 285 l 538 350 b 593 424 538 407 558 424 b 644 361 629 424 644 404 l 644 339 l 739 339 l 739 361 b 593 501 739 454 689 501 b 449 350 501 501 449 449 l 449 153 b 599 -8 449 47 485 -8 b 743 133 692 -8 743 46 z m 599 74 b 538 146 556 74 538 92 l 538 196 b 600 235 546 221 567 235 b 654 185 633 235 654 218 l 654 136 b 599 74 654 94 638 74 z "},"⅛":{"ha":799,"x_min":0,"x_max":0,"o":"m 469 554 l 761 942 l 638 1022 l 428 582 z m 349 458 l 56 61 l 183 -25 l 389 431 z m 297 496 l 297 582 l 222 582 l 222 990 l 150 990 b 71 910 143 939 122 913 l 71 839 l 138 839 l 138 582 l 60 582 l 60 496 z m 594 -8 b 743 117 690 -8 743 35 l 743 163 b 678 257 743 214 717 244 b 738 344 714 269 738 297 l 738 381 b 597 501 738 460 683 501 b 456 381 511 501 456 458 l 456 344 b 515 257 456 297 478 268 b 447 163 475 243 447 211 l 447 117 b 594 -8 447 32 493 -8 z m 600 289 l 590 289 b 543 338 561 289 543 307 l 543 374 b 597 428 543 411 563 428 b 650 375 633 428 650 410 l 650 338 b 600 289 650 306 631 289 z m 594 72 b 538 125 556 72 538 88 l 538 169 b 590 221 538 199 553 221 l 600 221 b 654 169 638 221 654 201 l 654 125 b 594 72 654 88 633 72 z "},"⅜":{"ha":799,"x_min":0,"x_max":0,"o":"m 469 554 l 761 942 l 638 1022 l 428 582 z m 349 458 l 56 61 l 183 -25 l 389 431 z m 594 -8 b 743 117 690 -8 743 35 l 743 163 b 678 257 743 214 717 244 b 738 344 714 269 738 297 l 738 381 b 597 501 738 460 683 501 b 456 381 511 501 456 458 l 456 344 b 515 257 456 297 478 268 b 447 163 475 243 447 211 l 447 117 b 594 -8 447 32 493 -8 z m 600 289 l 590 289 b 543 338 561 289 543 307 l 543 374 b 597 428 543 411 563 428 b 650 375 633 428 650 410 l 650 338 b 600 289 650 306 631 289 z m 594 72 b 538 125 556 72 538 88 l 538 169 b 590 221 538 199 553 221 l 600 221 b 654 169 638 221 654 201 l 654 125 b 594 72 654 88 633 72 z m 179 488 b 324 604 269 488 324 532 l 324 665 b 261 753 324 713 304 742 b 317 838 304 767 317 797 l 317 878 b 179 997 317 954 275 997 b 40 867 89 997 40 951 l 40 824 l 133 824 l 133 867 b 181 919 133 903 144 919 b 226 868 217 919 226 906 l 226 835 b 182 788 226 800 218 788 l 140 788 l 140 707 l 182 707 b 229 663 215 707 229 697 l 229 613 b 178 571 229 583 215 571 b 129 618 142 571 129 588 l 129 675 l 35 675 l 35 613 b 179 488 35 529 81 488 z "},"⅝":{"ha":799,"x_min":0,"x_max":0,"o":"m 469 554 l 761 942 l 638 1022 l 428 582 z m 349 458 l 56 61 l 183 -25 l 389 431 z m 594 -8 b 743 117 690 -8 743 35 l 743 163 b 678 257 743 214 717 244 b 738 344 714 269 738 297 l 738 381 b 597 501 738 460 683 501 b 456 381 511 501 456 458 l 456 344 b 515 257 456 297 478 268 b 447 163 475 243 447 211 l 447 117 b 594 -8 447 32 493 -8 z m 600 289 l 590 289 b 543 338 561 289 543 307 l 543 374 b 597 428 543 411 563 428 b 650 375 633 428 650 410 l 650 338 b 600 289 650 306 631 289 z m 594 72 b 538 125 556 72 538 88 l 538 169 b 590 221 538 199 553 221 l 600 221 b 654 169 638 221 654 201 l 654 125 b 594 72 654 88 633 72 z m 182 488 b 328 622 282 488 328 539 l 328 724 b 221 839 328 797 288 839 b 126 792 172 839 144 819 l 140 904 l 225 904 b 308 985 289 904 308 925 l 308 990 l 68 990 l 44 735 l 124 714 l 129 728 b 186 765 142 749 161 765 b 239 717 218 765 239 754 l 239 626 b 183 571 239 592 222 571 b 133 618 150 571 133 586 l 133 669 l 36 669 l 36 614 b 182 488 36 531 81 488 z "},"⅞":{"ha":799,"x_min":0,"x_max":0,"o":"m 469 554 l 761 942 l 638 1022 l 428 582 z m 349 458 l 56 61 l 183 -25 l 389 431 z m 594 -8 b 743 117 690 -8 743 35 l 743 163 b 678 257 743 214 717 244 b 738 344 714 269 738 297 l 738 381 b 597 501 738 460 683 501 b 456 381 511 501 456 458 l 456 344 b 515 257 456 297 478 268 b 447 163 475 243 447 211 l 447 117 b 594 -8 447 32 493 -8 z m 600 289 l 590 289 b 543 338 561 289 543 307 l 543 374 b 597 428 543 411 563 428 b 650 375 633 428 650 410 l 650 338 b 600 289 650 306 631 289 z m 594 72 b 538 125 556 72 538 88 l 538 169 b 590 221 538 199 553 221 l 600 221 b 654 169 638 221 654 201 l 654 125 b 594 72 654 88 633 72 z m 235 496 b 368 915 257 647 307 796 l 368 990 l 99 990 l 99 903 l 276 903 b 133 496 225 804 160 654 z "},"%":{"ha":844,"x_min":0,"x_max":0,"o":"m 211 563 b 369 722 311 563 369 624 l 369 843 b 213 1001 369 944 308 1001 b 54 843 118 1001 54 946 l 54 722 b 211 563 54 621 110 563 z m 75 0 l 211 0 l 768 990 l 635 990 z m 211 650 b 149 729 168 650 149 678 l 149 840 b 213 917 149 890 171 917 b 275 840 254 917 275 890 l 275 729 b 211 650 275 679 256 650 z m 632 -14 b 790 144 731 -14 790 46 l 790 265 b 632 428 790 367 728 428 b 474 265 538 428 474 368 l 474 144 b 632 -14 474 43 531 -14 z m 632 75 b 569 151 589 75 569 101 l 569 263 b 632 339 569 313 590 339 b 696 263 675 339 696 313 l 696 151 b 632 75 696 103 676 75 z "},"‰":{"ha":1232,"x_min":0,"x_max":0,"o":"m 211 563 b 369 722 311 563 369 624 l 369 843 b 213 1001 369 944 308 1001 b 54 843 118 1001 54 946 l 54 722 b 211 563 54 621 110 563 z m 75 0 l 211 0 l 768 990 l 635 990 z m 211 650 b 149 729 168 650 149 678 l 149 840 b 213 917 149 890 171 917 b 275 840 254 917 275 890 l 275 729 b 211 650 275 679 256 650 z m 632 -14 b 790 144 731 -14 790 46 l 790 265 b 632 428 790 367 728 428 b 474 265 538 428 474 368 l 474 144 b 632 -14 474 43 531 -14 z m 1019 -14 b 1178 144 1118 -14 1178 46 l 1178 265 b 1019 428 1178 367 1115 428 b 861 265 925 428 861 368 l 861 144 b 1019 -14 861 43 918 -14 z m 632 75 b 569 151 589 75 569 101 l 569 263 b 632 339 569 313 590 339 b 696 263 675 339 696 313 l 696 151 b 632 75 696 103 676 75 z m 1019 75 b 957 151 976 75 957 101 l 957 263 b 1019 339 957 313 978 339 b 1083 263 1063 339 1083 313 l 1083 151 b 1019 75 1083 103 1064 75 z "},"№":{"ha":1193,"x_min":0,"x_max":0,"o":"m 936 431 b 1126 621 1053 431 1126 497 l 1126 810 b 936 1003 1126 935 1049 1003 b 746 810 826 1003 746 936 l 746 621 b 936 431 746 496 813 431 z m 936 538 b 864 625 888 538 864 568 l 864 807 b 936 900 864 871 889 900 b 1010 807 985 900 1010 868 l 1010 625 b 936 538 1010 568 986 538 z m 204 624 l 182 838 l 231 671 l 528 0 l 640 0 l 640 990 l 519 990 l 519 368 l 540 189 l 492 329 l 199 990 l 85 990 l 85 0 l 204 0 z m 1117 340 l 756 340 l 756 229 l 1117 229 z "},"¤":{"ha":725,"x_min":0,"x_max":0,"o":"m 365 357 b 246 482 290 357 246 413 l 246 535 b 365 660 246 608 292 660 b 485 535 439 660 485 606 l 485 482 b 365 357 485 411 438 357 z m 365 249 b 488 279 413 249 453 260 l 593 165 l 678 250 l 571 364 b 597 481 588 397 597 438 l 597 538 b 565 663 597 585 586 628 l 672 781 l 583 861 l 478 744 b 365 769 446 761 407 769 b 249 743 321 769 282 760 l 140 858 l 57 772 l 164 660 b 133 536 144 625 133 582 l 133 479 b 160 360 133 433 143 393 l 47 239 l 139 157 l 246 275 b 365 249 279 257 319 249 z "},"←":{"ha":1056,"x_min":0,"x_max":0,"o":"m 949 436 l 949 558 l 283 558 b 464 793 354 614 428 703 l 324 793 b 92 525 292 701 192 589 l 92 465 b 331 199 192 404 297 290 l 472 199 b 281 436 433 292 354 382 z "},"→":{"ha":1056,"x_min":0,"x_max":0,"o":"m 726 199 b 964 465 758 290 864 404 l 964 525 b 732 793 864 589 765 701 l 593 793 b 772 558 628 703 701 614 l 108 558 l 108 436 l 776 436 b 583 199 703 382 622 292 z "},"↑":{"ha":1056,"x_min":0,"x_max":0,"o":"m 822 556 l 822 697 b 556 929 731 731 617 829 l 496 929 b 226 697 432 829 319 729 l 226 557 b 465 740 318 593 410 668 l 465 74 l 588 74 l 588 739 b 822 556 642 668 731 593 z "},"↓":{"ha":1056,"x_min":0,"x_max":0,"o":"m 554 67 b 824 299 617 167 731 267 l 824 439 b 583 254 731 401 639 326 l 583 922 l 463 922 l 463 256 b 228 440 408 328 319 403 l 228 299 b 494 67 319 265 432 167 z "},"↖":{"ha":1056,"x_min":0,"x_max":0,"o":"m 871 243 l 400 714 b 696 750 489 701 606 711 l 596 850 b 243 826 508 810 358 799 l 201 783 b 175 429 228 668 218 518 l 274 331 b 313 629 313 421 325 539 l 786 157 z "},"↗":{"ha":1056,"x_min":0,"x_max":0,"o":"m 769 331 l 869 431 b 844 783 828 518 818 668 l 803 825 b 449 851 688 799 536 808 l 349 753 b 647 714 439 714 557 701 l 176 240 l 263 156 l 733 628 b 769 331 721 539 731 422 z "},"↘":{"ha":1056,"x_min":0,"x_max":0,"o":"m 803 181 l 846 222 b 871 576 819 338 829 489 l 772 676 b 733 378 733 585 722 468 l 261 849 l 175 763 l 647 292 b 350 256 558 304 443 294 l 450 156 b 803 181 539 197 689 207 z "},"↙":{"ha":1056,"x_min":0,"x_max":0,"o":"m 597 154 l 696 253 b 397 292 606 292 488 303 l 869 764 l 783 850 l 313 379 b 276 675 325 468 315 583 l 176 575 b 200 222 217 486 228 336 l 243 179 b 597 154 358 206 508 196 z "},"○":{"ha":1249,"x_min":0,"x_max":0,"o":"m 622 -14 b 1124 486 917 -14 1124 199 b 622 989 1124 779 913 989 b 125 486 332 989 125 775 b 622 -14 125 194 332 -14 z m 622 164 b 304 486 443 164 304 303 b 622 814 304 672 443 814 b 944 486 808 814 944 668 b 622 164 944 303 808 164 z "},"●":{"ha":1249,"x_min":0,"x_max":0,"o":"m 622 -14 b 1124 486 917 -14 1124 199 b 622 989 1124 779 913 989 b 125 486 332 989 125 775 b 622 -14 125 194 332 -14 z "},"■":{"ha":1260,"x_min":0,"x_max":0,"o":"m 139 0 l 1121 0 l 1121 990 l 139 990 z "},"□":{"ha":1260,"x_min":0,"x_max":0,"o":"m 139 0 l 1121 0 l 1121 990 l 139 990 z m 318 822 l 942 822 l 942 168 l 318 168 z "},"⊠":{"ha":1260,"x_min":0,"x_max":0,"o":"m 139 0 l 1121 0 l 1121 990 l 139 990 z m 318 822 l 942 822 l 942 168 l 318 168 z m 782 236 l 888 340 l 731 500 l 888 663 l 783 764 l 629 606 l 475 763 l 369 661 l 526 500 l 371 340 l 476 238 l 628 394 z "},"▪":{"ha":1058,"x_min":0,"x_max":0,"o":"m 139 0 l 919 0 l 919 781 l 139 781 z "},"▫":{"ha":1058,"x_min":0,"x_max":0,"o":"m 139 0 l 919 0 l 919 781 l 139 781 z m 318 614 l 743 614 l 743 168 l 318 168 z "},"▲":{"ha":1226,"x_min":0,"x_max":0,"o":"m 1196 0 l 615 1011 l 31 0 z "},"▼":{"ha":1226,"x_min":0,"x_max":0,"o":"m 31 994 l 615 -17 l 1196 994 z "},"◄":{"ha":1226,"x_min":0,"x_max":0,"o":"m 1088 1089 l 76 506 l 1088 -76 z "},"►":{"ha":1226,"x_min":0,"x_max":0,"o":"m 139 -76 l 1150 506 l 139 1089 z "},"◤":{"ha":1226,"x_min":0,"x_max":0,"o":"m 1169 -72 l 868 1053 l 43 228 z "},"◥":{"ha":1226,"x_min":0,"x_max":0,"o":"m 1189 221 l 365 1047 l 64 -78 z "},"◢":{"ha":1226,"x_min":0,"x_max":0,"o":"m 1190 726 l 65 1028 l 365 -99 z "},"◣":{"ha":1226,"x_min":0,"x_max":0,"o":"m 864 -99 l 1165 1028 l 39 726 z "},"◎":{"ha":1249,"x_min":0,"x_max":0,"o":"m 622 -14 b 1124 486 917 -14 1124 199 b 622 989 1124 779 913 989 b 125 486 332 989 125 775 b 622 -14 125 194 332 -14 z m 622 164 b 304 486 443 164 304 303 b 622 814 304 672 443 814 b 944 486 808 814 944 668 b 622 164 944 303 808 164 z m 624 254 b 858 485 758 254 858 354 b 624 718 858 618 757 718 b 392 485 493 718 392 618 b 624 254 392 351 489 254 z m 624 407 b 551 485 582 407 551 442 b 624 565 551 532 582 565 b 699 485 668 565 699 532 b 624 407 699 442 668 407 z "},"★":{"ha":1231,"x_min":0,"x_max":0,"o":"m 767 413 l 1024 596 l 710 597 l 614 893 l 514 597 l 204 599 l 457 414 l 357 115 l 613 300 l 867 115 z "},"☼":{"ha":1269,"x_min":0,"x_max":0,"o":"m 617 772 l 643 772 l 667 967 l 594 967 z m 478 729 l 496 743 l 422 922 l 357 885 z m 763 743 l 783 729 l 901 885 l 839 922 z m 374 618 l 388 639 l 231 757 l 194 694 z m 874 640 l 888 618 l 1067 696 l 1026 757 z m 393 483 b 629 247 393 354 500 247 b 868 483 758 247 868 354 b 629 722 868 614 758 722 b 393 483 500 722 393 614 z m 343 474 l 343 499 l 150 522 l 150 450 z m 917 499 l 917 474 l 1111 450 l 1111 522 z m 888 351 l 874 333 l 1029 213 l 1067 278 z m 388 332 l 374 351 l 194 276 l 233 213 z m 783 243 l 763 229 l 839 50 l 901 86 z m 496 229 l 478 243 l 357 86 l 422 50 z m 643 200 l 617 200 l 594 6 l 667 6 z "},"☾":{"ha":1076,"x_min":0,"x_max":0,"o":"m 731 824 b 826 807 761 824 794 815 b 585 885 757 857 672 885 b 182 481 361 885 182 704 b 585 78 182 260 361 78 b 826 157 672 78 757 107 b 731 140 794 147 761 140 b 404 481 550 140 404 294 b 731 824 404 669 550 824 z "},"♻":{"ha":1135,"x_min":0,"x_max":0,"o":"m 479 925 b 585 861 479 925 549 921 l 667 717 l 621 689 l 818 651 l 890 846 l 840 817 l 807 874 b 703 926 778 924 746 925 l 479 926 z m 243 718 l 417 618 l 550 850 b 360 890 526 893 429 931 b 322 856 343 882 328 865 z m 942 635 l 769 538 l 903 307 b 1033 451 951 307 1033 369 b 1024 500 1033 472 1028 490 z m 228 171 b 232 294 228 171 200 235 b 317 439 235 300 317 439 l 363 410 l 296 603 l 93 567 l 143 538 l 110 481 b 115 363 79 431 94 400 l 225 171 z m 1010 336 b 897 275 1010 336 967 275 l 732 275 l 732 333 l 603 176 l 732 19 l 732 75 l 797 75 b 897 140 858 75 876 104 l 1011 335 z m 528 75 l 528 275 l 261 275 b 322 90 235 232 251 132 b 372 75 340 79 358 75 z "},"♼":{"ha":1135,"x_min":0,"x_max":0,"o":"m 1028 481 b 569 944 1028 739 822 944 b 106 481 314 944 106 739 b 569 24 106 226 314 24 b 1028 481 822 24 1028 226 z m 490 833 l 664 833 b 747 790 699 833 724 831 l 771 749 l 810 768 l 756 618 l 603 647 l 638 669 l 574 781 b 490 832 547 826 490 832 z m 375 775 b 404 804 378 785 390 796 b 551 772 458 836 533 807 l 450 594 l 315 671 z m 915 503 b 926 465 921 493 926 481 b 826 349 926 401 865 349 l 722 529 l 857 608 z m 301 246 l 214 394 b 210 486 201 425 188 447 l 236 531 l 200 554 l 353 581 l 407 432 l 369 456 l 306 343 b 303 246 279 297 303 246 z m 907 371 l 821 222 b 744 175 804 197 790 175 l 693 175 l 693 129 l 592 250 l 693 369 l 693 329 l 821 329 b 906 372 876 329 906 372 z m 410 175 b 369 186 400 175 383 178 b 324 329 317 215 303 294 l 531 329 l 531 175 z "},"♽":{"ha":1135,"x_min":0,"x_max":0,"o":"m 1028 481 b 569 944 1028 739 822 944 b 106 481 314 944 106 739 b 569 24 106 226 314 24 b 1028 481 822 24 1028 226 z m 1006 481 b 569 46 1006 239 810 46 b 129 481 326 46 129 239 b 569 921 129 726 326 921 b 1006 481 810 921 1006 726 z m 490 832 b 574 781 490 832 547 826 l 638 669 l 603 647 l 756 618 l 810 768 l 771 749 l 747 790 b 664 833 724 831 699 833 l 490 833 z m 315 671 l 450 594 l 551 772 b 404 804 533 807 458 836 b 375 775 390 796 378 785 z m 857 608 l 722 529 l 826 349 b 926 465 865 349 926 401 b 915 503 926 481 921 493 z m 303 246 b 306 343 303 246 279 297 l 369 456 l 407 432 l 353 581 l 200 554 l 236 531 l 210 486 b 214 394 188 447 201 425 l 301 246 z m 906 372 b 821 329 906 372 876 329 l 693 329 l 693 369 l 592 250 l 693 129 l 693 175 l 744 175 b 821 222 790 175 804 197 l 907 371 z m 531 175 l 531 329 l 324 329 b 369 186 303 294 317 215 b 410 175 383 178 400 175 z "},"⌂":{"ha":1165,"x_min":0,"x_max":0,"o":"m 1026 0 l 1026 553 l 583 979 l 139 553 l 139 0 z "},"♠":{"ha":1233,"x_min":0,"x_max":0,"o":"m 660 386 b 901 206 696 294 771 206 b 1113 417 1019 206 1113 301 b 808 847 1113 569 1029 671 l 621 996 l 435 847 b 119 417 213 671 119 569 b 347 206 119 301 224 206 b 575 386 471 206 542 294 b 449 0 575 225 485 68 l 793 0 b 660 386 758 68 660 225 z "},"♣":{"ha":1233,"x_min":0,"x_max":0,"o":"m 885 175 b 1119 413 1015 175 1119 282 b 886 647 1119 543 1017 647 b 822 636 864 647 842 643 b 849 756 839 672 849 715 b 615 989 849 885 744 989 b 378 756 483 989 378 885 b 406 639 378 715 389 674 b 349 647 388 643 369 647 b 113 413 218 647 113 543 b 349 175 113 282 218 175 b 574 335 453 175 536 242 b 450 0 557 193 482 60 l 794 0 b 665 333 764 60 683 193 b 885 175 700 242 781 175 z "},"♥":{"ha":1233,"x_min":0,"x_max":0,"o":"m 614 -24 l 800 188 b 1111 738 1024 433 1111 582 b 858 989 1111 875 996 989 b 614 769 719 989 626 893 b 365 989 601 893 503 989 b 121 738 228 989 121 875 b 425 188 121 582 204 433 z "},"♦":{"ha":1233,"x_min":0,"x_max":0,"o":"m 181 494 l 617 -14 l 1051 494 l 617 1000 z "},"+":{"ha":600,"x_min":0,"x_max":0,"o":"m 529 433 l 529 547 l 356 547 l 356 718 l 243 718 l 243 547 l 72 547 l 72 433 l 243 433 l 243 263 l 356 263 l 356 433 z "},"−":{"ha":600,"x_min":0,"x_max":0,"o":"m 538 432 l 538 550 l 63 550 l 63 432 z "},"±":{"ha":600,"x_min":0,"x_max":0,"o":"m 513 556 l 513 671 l 356 671 l 356 822 l 243 822 l 243 671 l 89 671 l 89 556 l 243 556 l 243 404 l 356 404 l 356 556 z m 513 211 l 513 328 l 89 328 l 89 211 z "},"×":{"ha":593,"x_min":0,"x_max":0,"o":"m 442 272 l 519 350 l 371 501 l 513 644 l 436 724 l 294 579 l 157 719 l 79 642 l 217 501 l 67 350 l 143 272 l 293 424 z "},"÷":{"ha":600,"x_min":0,"x_max":0,"o":"m 300 617 b 369 688 347 617 369 635 b 300 757 369 740 349 757 b 231 688 253 757 231 740 b 300 617 231 633 250 617 z m 529 431 l 529 547 l 72 547 l 72 431 z m 300 225 b 369 294 347 225 369 242 b 300 364 369 349 349 364 b 231 294 253 364 231 349 b 300 225 231 240 250 225 z "},"=":{"ha":617,"x_min":0,"x_max":0,"o":"m 526 569 l 526 685 l 89 685 l 89 569 z m 526 307 l 526 422 l 89 422 l 89 307 z "},"≠":{"ha":617,"x_min":0,"x_max":0,"o":"m 526 310 l 526 422 l 321 422 l 361 572 l 526 572 l 526 685 l 392 685 l 419 790 l 344 790 l 317 685 l 89 685 l 89 572 l 286 572 l 246 422 l 89 422 l 89 310 l 215 310 l 183 189 l 258 189 l 290 310 z "},"≈":{"ha":617,"x_min":0,"x_max":0,"o":"m 192 706 b 89 660 149 706 104 685 l 89 536 b 190 590 110 571 154 590 b 428 533 256 590 339 533 b 526 579 469 533 513 554 l 526 703 b 428 649 504 665 467 649 b 192 706 363 649 269 706 z m 89 404 l 89 281 b 190 333 110 313 153 333 b 428 276 256 333 340 276 b 526 322 472 276 513 299 l 526 446 b 428 392 503 408 467 392 b 190 449 364 392 269 449 b 89 404 149 449 104 429 z "},"<":{"ha":617,"x_min":0,"x_max":0,"o":"m 525 261 l 525 396 l 225 513 l 525 628 l 525 756 l 83 565 l 83 454 z "},">":{"ha":617,"x_min":0,"x_max":0,"o":"m 90 261 l 532 454 l 532 565 l 90 756 l 90 628 l 390 513 l 90 396 z "},"≤":{"ha":617,"x_min":0,"x_max":0,"o":"m 526 368 l 526 499 l 235 601 l 526 704 l 526 829 l 85 653 l 85 547 z m 528 178 l 528 293 l 86 293 l 86 178 z "},"≥":{"ha":617,"x_min":0,"x_max":0,"o":"m 92 368 l 533 547 l 533 653 l 92 829 l 92 704 l 382 601 l 92 499 z m 531 178 l 531 293 l 90 293 l 90 178 z "},"¬":{"ha":688,"x_min":0,"x_max":0,"o":"m 601 279 l 601 647 l 58 647 l 58 528 l 478 528 l 478 279 z "},"≡":{"ha":617,"x_min":0,"x_max":0,"o":"m 526 654 l 526 767 l 89 767 l 89 654 z m 526 440 l 526 554 l 89 554 l 89 440 z m 526 228 l 526 340 l 89 340 l 89 228 z "},"′":{"ha":239,"x_min":0,"x_max":0,"o":"m 122 713 l 211 990 l 85 990 l 32 713 z "},"″":{"ha":419,"x_min":0,"x_max":0,"o":"m 121 713 l 208 990 l 83 990 l 32 713 z m 294 713 l 392 990 l 265 990 l 206 713 z "},"℅":{"ha":844,"x_min":0,"x_max":0,"o":"m 75 0 l 211 0 l 768 990 l 635 990 z m 211 563 b 369 722 311 563 369 624 l 369 743 l 269 743 l 269 729 b 211 650 269 679 256 650 b 149 729 168 650 149 678 l 149 840 b 213 917 149 890 171 917 b 269 840 254 917 269 890 l 269 829 l 368 829 l 368 843 b 213 1001 368 944 308 1001 b 54 843 118 1001 54 946 l 54 722 b 211 563 54 621 110 563 z m 632 -14 b 790 144 731 -14 790 46 l 790 265 b 632 428 790 367 728 428 b 474 265 538 428 474 368 l 474 144 b 632 -14 474 43 531 -14 z m 632 75 b 569 151 589 75 569 101 l 569 263 b 632 339 569 313 590 339 b 696 263 675 339 696 313 l 696 151 b 632 75 696 103 676 75 z "},"‗":{"ha":625,"x_min":0,"x_max":0,"o":"m 576 99 l 49 99 l 49 0 l 576 0 z m 576 -69 l 49 -69 l 49 -168 l 576 -168 z "},"‼":{"ha":646,"x_min":0,"x_max":0,"o":"m 107 990 l 107 753 b 129 239 107 553 124 265 b 176 244 139 242 156 244 b 224 239 197 244 213 242 b 246 753 229 265 246 553 l 246 990 z m 400 990 l 400 753 b 422 239 400 553 417 265 b 469 244 432 242 449 244 b 517 239 490 244 506 242 b 539 753 522 265 539 553 l 539 990 z m 175 -12 b 263 88 235 -12 263 14 b 175 185 263 163 235 185 b 89 88 115 185 89 163 b 175 -12 89 11 111 -12 z m 468 -12 b 556 88 528 -12 556 14 b 468 185 556 163 528 185 b 382 88 408 185 382 163 b 468 -12 382 11 404 -12 z "},"∞":{"ha":1006,"x_min":0,"x_max":0,"o":"m 275 301 b 504 424 372 301 439 363 b 732 301 569 364 635 301 b 932 500 853 301 932 383 b 733 699 932 619 853 699 b 504 575 635 699 567 636 b 276 699 440 636 375 699 b 72 499 160 699 72 614 b 275 301 72 372 149 301 z m 278 414 b 192 499 228 414 192 451 b 278 585 192 547 231 585 b 431 500 332 585 381 549 b 278 414 381 453 332 414 z m 729 414 b 581 499 675 414 631 451 b 729 585 631 547 675 585 b 817 499 781 585 817 547 b 729 414 817 451 779 414 z "},"∂":{"ha":651,"x_min":0,"x_max":0,"o":"m 321 -12 b 578 263 482 -12 578 82 l 578 533 b 282 1050 578 764 465 928 l 90 1050 b 443 693 307 915 408 821 b 286 789 417 753 367 789 b 61 522 146 789 61 696 l 61 263 b 321 -12 61 81 150 -12 z m 321 104 b 193 265 235 104 193 163 l 193 521 b 326 678 193 624 242 678 b 449 522 410 678 449 624 l 449 265 b 321 104 449 161 407 104 z "},"π":{"ha":778,"x_min":0,"x_max":0,"o":"m 474 203 b 678 0 474 46 521 0 l 729 0 l 729 118 l 692 118 b 604 217 624 118 604 135 l 604 871 l 744 871 l 744 990 l 33 990 l 33 871 l 167 871 l 167 0 l 296 0 l 296 871 l 474 871 z "},"μ":{"ha":640,"x_min":0,"x_max":0,"o":"m 315 -11 b 444 114 393 -11 429 35 l 457 0 l 563 0 l 563 800 l 432 800 l 432 279 b 314 104 432 171 394 104 b 208 254 235 104 208 160 l 208 800 l 78 800 l 78 -264 l 203 -264 l 203 79 b 315 -11 215 18 246 -11 z "},"∫":{"ha":421,"x_min":0,"x_max":0,"o":"m 6 -203 l 78 -203 b 271 1 235 -203 271 -157 l 272 861 b 358 978 272 958 286 978 l 401 978 l 401 1090 l 340 1090 b 144 874 201 1090 144 1033 l 144 18 b 63 -81 144 -65 131 -81 l 6 -81 z "},"√":{"ha":767,"x_min":0,"x_max":0,"o":"m 401 0 l 735 992 l 597 992 l 344 210 l 219 689 l 43 689 l 43 565 l 124 565 l 278 0 z "},"∆":{"ha":811,"x_min":0,"x_max":0,"o":"m 799 0 l 406 1010 l 13 0 z m 615 118 l 196 118 l 407 688 z "},"Ω":{"ha":863,"x_min":0,"x_max":0,"o":"m 383 103 b 226 567 289 250 226 376 b 425 883 226 800 308 883 b 625 567 546 883 625 800 b 475 103 625 376 569 250 l 533 0 l 825 0 l 825 122 l 631 122 b 760 564 704 238 760 381 b 425 1006 760 867 636 1006 b 93 564 219 1006 93 867 b 226 122 93 374 150 235 l 33 122 l 33 0 l 332 0 z "},"∏":{"ha":778,"x_min":0,"x_max":0,"o":"m 481 0 l 610 0 l 610 871 l 744 871 l 744 990 l 33 990 l 33 871 l 167 871 l 167 0 l 296 0 l 296 871 l 481 871 z "},"∑":{"ha":544,"x_min":0,"x_max":0,"o":"m 500 119 l 175 119 l 408 511 l 189 874 l 483 874 l 483 990 l 49 990 l 49 867 l 267 511 l 40 133 l 40 0 l 500 0 z "},"◊":{"ha":807,"x_min":0,"x_max":0,"o":"m 406 124 l 776 493 l 403 865 l 33 496 z m 201 496 l 401 697 l 607 492 l 406 292 z "},"°":{"ha":431,"x_min":0,"x_max":0,"o":"m 215 667 b 385 828 319 667 385 731 l 385 835 b 215 1000 385 939 317 1000 b 46 835 122 1000 46 942 l 46 828 b 215 667 46 728 111 667 z m 215 758 b 144 832 171 758 144 786 l 144 835 b 215 910 144 885 176 910 b 288 835 258 910 288 883 l 288 832 b 215 758 288 788 261 758 z "}}}
